<svg xmlns="http://www.w3.org/2000/svg" width="512" height="512" x="0" y="0" fill="#000" viewBox="0 0 224 224"><g style="mix-blend-mode:normal" fill="none" stroke="none" stroke-dashoffset="0" stroke-miterlimit="10" stroke-width="1" font-family="none" font-weight="none"><path fill="none" d="M0,224v-224h224v224z"/><g id="Layer_1"><g><g fill="#fff"><path d="M211.75,15.75v127.75c0,9.625 -7.875,17.5 -17.5,17.5h-164.5c-9.625,0 -17.5,-7.875 -17.5,-17.5v-127.75z"/></g><path fill="#444b54" d="M211.75,10.5h-94.5v-3.5c0,-2.975 -2.275,-5.25 -5.25,-5.25c-2.975,0 -5.25,2.275 -5.25,5.25v3.5h-94.5c-2.975,0 -5.25,2.275 -5.25,5.25v127.75c0,12.6 10.15,22.75 22.75,22.75h164.5c12.6,0 22.75,-10.15 22.75,-22.75v-127.75c0,-2.975 -2.275,-5.25 -5.25,-5.25zM194.25,155.75h-164.5c-6.825,0 -12.25,-5.425 -12.25,-12.25v-122.5h189v122.5c0,6.825 -5.425,12.25 -12.25,12.25z"/><path fill="#444b54" d="M150.675,213.325l-35,-35c-0.175,-0.175 -0.525,-0.525 -0.875,-0.7c-0.175,0 -0.175,-0.175 -0.35,-0.175c-0.175,-0.175 -0.35,-0.175 -0.525,-0.35c-0.175,0 -0.35,-0.175 -0.525,-0.175c-0.175,0 -0.35,-0.175 -0.525,-0.175c-0.35,0 -0.7,-0.175 -1.05,-0.175v0v0c-0.35,0 -0.7,0 -1.05,0.175c-0.175,0 -0.35,0 -0.35,0.175c-0.175,0 -0.35,0.175 -0.525,0.175c-0.175,0 -0.35,0.175 -0.525,0.175c-0.175,0 -0.35,0.175 -0.35,0.175c-0.35,0.175 -0.525,0.35 -0.875,0.7l-35,35c-2.1,2.1 -2.1,5.425 0,7.35c1.05,1.05 2.45,1.575 3.675,1.575c1.225,0 2.625,-0.525 3.675,-1.575l26.25,-25.9v22.4c0,2.975 2.275,5.25 5.25,5.25c2.975,0 5.25,-2.275 5.25,-5.25v-22.4l26.075,26.075c1.05,1.05 2.45,1.575 3.675,1.575c1.225,0 2.625,-0.525 3.675,-1.575c2.1,-2.1 2.1,-5.25 0,-7.35z"/><g fill="#3498db"><g><path d="M180.25,64.75c-2.975,0 -5.25,-2.275 -5.25,-5.25v-17.5c0,-2.975 2.275,-5.25 5.25,-5.25c2.975,0 5.25,2.275 5.25,5.25v17.5c0,2.975 -2.275,5.25 -5.25,5.25z"/></g><g><path d="M127.75,134.75c-1.4,0 -2.8,-0.525 -3.675,-1.575l-47.425,-47.425l-14.175,26.95c-1.4,2.625 -4.55,3.5 -7.175,2.275c-2.625,-1.4 -3.5,-4.55 -2.275,-7.175l17.5,-33.25c0.7,-1.4 2.275,-2.45 3.85,-2.8c1.575,-0.175 3.325,0.35 4.55,1.4l47.775,47.775l40.075,-66.675c-2.1,0.175 -4.2,-0.875 -5.25,-2.8c-1.225,-2.625 -0.175,-5.775 2.275,-7l14,-7c2.1,-1.05 4.55,-0.525 6.125,1.05c1.575,1.75 1.925,4.2 0.7,6.3l-52.5,87.5c-0.875,1.4 -2.275,2.275 -3.85,2.45c-0.175,0 -0.35,0 -0.525,0z"/></g><g><path d="M47.25,134.75c-0.35,0 -0.7,0 -1.05,-0.175c-0.35,0 -0.7,-0.175 -1.05,-0.35c-0.35,-0.175 -0.525,-0.35 -0.875,-0.525c-0.35,-0.175 -0.525,-0.35 -0.7,-0.7c-0.175,-0.175 -0.525,-0.525 -0.7,-0.7c-0.175,-0.35 -0.35,-0.525 -0.525,-0.875c-0.175,-0.35 -0.175,-0.7 -0.35,-1.05c0,-0.35 -0.175,-0.7 -0.175,-1.05c0,-0.35 0,-0.7 0.175,-1.05c0,-0.35 0.175,-0.7 0.35,-1.05c0.175,-0.35 0.35,-0.525 0.525,-0.875c0.175,-0.35 0.35,-0.525 0.7,-0.875c0.35,-0.35 0.525,-0.525 0.7,-0.7c0.35,-0.175 0.525,-0.35 0.875,-0.525c0.35,-0.175 0.7,-0.175 1.05,-0.35c0.7,-0.175 1.4,-0.175 2.1,0c0.35,0 0.7,0.175 1.05,0.35c0.35,0.175 0.7,0.35 0.875,0.525c0.35,0.175 0.525,0.35 0.875,0.7c0.175,0.175 0.525,0.525 0.7,0.875c0.175,0.35 0.35,0.525 0.525,0.875c0.175,0.35 0.175,0.7 0.35,1.05c0,0.35 0.175,0.7 0.175,1.05c0,0.35 0,0.7 -0.175,1.05c0,0.35 -0.175,0.7 -0.35,1.05c-0.175,0.35 -0.35,0.7 -0.525,0.875c-0.175,0.35 -0.35,0.525 -0.7,0.7c-0.175,0.175 -0.525,0.525 -0.875,0.7c-0.35,0.175 -0.525,0.35 -0.875,0.525c-0.35,0.175 -0.7,0.175 -1.05,0.35c-0.35,0.175 -0.7,0.175 -1.05,0.175z"/></g></g></g></g></g></svg>