<svg xmlns="http://www.w3.org/2000/svg" x="0px" y="0px"
     width="512" height="512"
     viewBox="0 0 224 224"
     style=" fill:#000000;">
    <g fill="none" stroke="none" stroke-width="1"
       stroke-miterlimit="10" stroke-dasharray="" stroke-dashoffset="0" font-family="none" font-weight="none"
       font-size="none" style="mix-blend-mode: normal">
        <path d="M0,224v-224h224v224z" fill="none"/>
        <g id="Layer_1">
            <g>
                <g fill="#ffffff">
                    <g>
                        <g>
                            <path d="M199.5,129.5h-140c-9.625,0 -17.5,7.875 -17.5,17.5v0c0,9.625 7.875,17.5 17.5,17.5h140h8.75c-9.625,0 -17.5,-7.875 -17.5,-17.5v0c0,-9.625 7.875,-17.5 17.5,-17.5z"/>
                        </g>
                    </g>
                </g>
                <g fill="#ffffff">
                    <g>
                        <g>
                            <path d="M210,164.5h-166.25c-14.525,0 -26.25,11.725 -26.25,26.25v0c0,14.525 11.725,26.25 26.25,26.25h166.25v0c-14.525,0 -26.25,-11.725 -26.25,-26.25v0c0,-14.525 11.725,-26.25 26.25,-26.25z"/>
                        </g>
                    </g>
                </g>
                <g fill="#ffffff">
                    <g>
                        <g>
                            <path d="M199.5,77h-148.75c-14.525,0 -26.25,11.725 -26.25,26.25v0c0,14.525 11.725,26.25 26.25,26.25h148.75v0c-14.525,0 -26.25,-11.725 -26.25,-26.25v0c0,-14.525 11.725,-26.25 26.25,-26.25z"/>
                        </g>
                    </g>
                </g>
                <g fill="#444b54">
                    <path d="M210,211.75h-166.25c-11.55,0 -21,-9.45 -21,-21c0,-11.55 9.45,-21 21,-21h28c2.975,0 5.25,-2.275 5.25,-5.25c0,-2.975 -2.275,-5.25 -5.25,-5.25h-12.25c-6.825,0 -12.25,-5.425 -12.25,-12.25c0,-6.825 5.425,-12.25 12.25,-12.25h140c2.975,0 5.25,-2.275 5.25,-5.25c0,-2.975 -2.275,-5.25 -5.25,-5.25h-148.75c-11.55,0 -21,-9.45 -21,-21c0,-11.55 9.45,-21 21,-21h148.75c2.975,0 5.25,-2.275 5.25,-5.25c0,-2.975 -2.275,-5.25 -5.25,-5.25h-148.75c-17.325,0 -31.5,14.175 -31.5,31.5c0,14.175 9.275,26.075 22.05,30.1c-2.8,3.85 -4.55,8.575 -4.55,13.65c0,4.55 1.4,8.925 3.675,12.425c-15.75,1.575 -28.175,15.05 -28.175,31.325c0,17.325 14.175,31.5 31.5,31.5h166.25c2.975,0 5.25,-2.275 5.25,-5.25c0,-2.975 -2.275,-5.25 -5.25,-5.25z"/>
                    <path d="M129.5,164.5c0,2.975 2.275,5.25 5.25,5.25h75.25c2.975,0 5.25,-2.275 5.25,-5.25c0,-2.975 -2.275,-5.25 -5.25,-5.25h-75.25c-2.8,0 -5.25,2.275 -5.25,5.25z"/>
                </g>
            </g>
            <g fill="#3498db">
                <g>
                    <g>
                        <path d="M115.5,147h-24.5c-2.975,0 -5.25,2.275 -5.25,5.25v35.35c0,2.8 3.15,4.55 5.425,2.8l9.975,-7c1.225,-0.875 2.8,-0.875 4.025,0l9.975,7c2.275,1.575 5.425,0 5.425,-2.8v-35.35c0.175,-2.975 -2.1,-5.25 -5.075,-5.25z"/>
                    </g>
                </g>
            </g>
        </g>
    </g>
</svg>