<svg xmlns="http://www.w3.org/2000/svg" xmlns:xlink="http://www.w3.org/1999/xlink" id="Capa_1" x="0" y="0" enable-background="new 0 0 512 512" version="1.1" viewBox="0 0 512 512" xml:space="preserve"><path fill="#607D8B" d="M480,0H192c-17.673,0-32,14.327-32,32v384c0,17.673,14.327,32,32,32h288c17.673,0,32-14.327,32-32V32	C512,14.327,497.673,0,480,0z"/><path fill="#64B5F6" d="M240,64h192c8.837,0,16,7.163,16,16v64c0,8.837-7.163,16-16,16H240c-8.837,0-16-7.163-16-16V80	C224,71.163,231.163,64,240,64z"/><circle cx="192" cy="320" r="192" fill="#2196F3"/><path d="M432,160H240c-8.837,0-16-7.163-16-16V80c0-8.837,7.163-16,16-16h192c8.837,0,16,7.163,16,16v64	C448,152.837,440.837,160,432,160z M256,128h160V96H256V128z"/><path d="M480,448h-80c-8.837,0-16-7.163-16-16s7.163-16,16-16h80V32H192v48c0,8.837-7.163,16-16,16s-16-7.163-16-16V32	c0-17.673,14.327-32,32-32h288c17.673,0,32,14.327,32,32v384C512,433.673,497.673,448,480,448z"/><rect width="32" height="32" x="416" y="224"/><rect width="32" height="32" x="416" y="320"/><path d="M160,288c-26.51,0-48-21.49-48-48s21.49-48,48-48s48,21.49,48,48S186.51,288,160,288z M160,224c-8.837,0-16,7.163-16,16	s7.163,16,16,16s16-7.163,16-16S168.837,224,160,224z"/><path d="M224,448c-26.51,0-48-21.49-48-48s21.49-48,48-48s48,21.49,48,48S250.51,448,224,448z M224,384c-8.837,0-16,7.163-16,16	s7.163,16,16,16s16-7.163,16-16S232.837,384,224,384z"/><path d="M128,416c-8.837,0.005-16.004-7.154-16.009-15.991c-0.002-3.631,1.231-7.156,3.497-9.993l128-160	c5.514-6.91,15.586-8.042,22.496-2.528c6.91,5.514,8.042,15.586,2.528,22.496l0,0l-128,160C137.474,413.789,132.869,416.003,128,416	z"/><path d="M192,512C85.961,512,0,426.039,0,320s85.961-192,192-192s192,85.961,192,192C383.894,425.995,297.995,511.894,192,512z M192,160c-88.366,0-160,71.634-160,160s71.634,160,160,160s160-71.634,160-160C351.894,231.678,280.322,160.106,192,160z"/></svg>