<svg height="512pt" viewBox="0 0 512 512" width="512pt" xmlns="http://www.w3.org/2000/svg"><path d="m416 512h-320c-53.023438 0-96-42.976562-96-96v-320c0-53.023438 42.976562-96 96-96h320c53.023438 0 96 42.976562 96 96v320c0 53.023438-42.976562 96-96 96zm0 0" fill="#f5e6fe"/><path d="m352 138.671875h-192c-17.648438 0-32 14.351563-32 32v170.671875c0 17.648438 14.351562 32 32 32h192c17.648438 0 32-14.351562 32-32v-170.671875c0-17.648437-14.351562-32-32-32zm-48 90.65625v26.671875h-37.328125v-26.671875zm-58.671875 26.671875h-37.328125v-26.671875h37.328125zm-58.65625 0h-37.34375v-26.671875h37.328125v26.671875zm0 21.328125v26.671875h-37.34375v-26.671875zm21.328125 0h37.328125v26.671875h-37.328125zm37.328125 48v26.671875h-37.328125v-26.671875zm21.34375 0h37.328125v26.671875h-37.328125zm0-21.328125v-26.671875h37.328125v26.671875zm58.65625-26.671875h37.328125v26.671875h-37.328125zm0-21.328125v-26.671875h37.328125v26.671875zm-176 85.328125v-16h37.328125v26.671875h-26.65625c-5.886719 0-10.671875-4.785156-10.671875-10.671875zm202.671875 10.671875h-26.671875v-26.671875h37.328125v16c.015625 5.886719-4.769531 10.671875-10.65625 10.671875zm0 0" fill="#be63f9"/></svg>