<svg height="368pt" viewBox="0 0 368 368" width="368pt" xmlns="http://www.w3.org/2000/svg"><path d="m168 264-32 96h192l-32-96zm0 0" fill="#cce4ff"/><path d="m312 8h-160c-8.800781 0-16 7.199219-16 16v64h96v48h-96v64h192v-176c0-8.800781-7.199219-16-16-16zm0 0" fill="#cce4ff"/><path d="m360 192h-24v-168c0-13.230469-10.769531-24-24-24h-160c-13.230469 0-24 10.769531-24 24v56h-120c-4.414062 0-8 3.574219-8 8v48c0 4.425781 3.585938 8 8 8h24v24c0 22.054688 17.945312 40 40 40h24v56c0 4.425781 3.585938 8 8 8h52.894531l-26.664062 80h-74.230469c-4.414062 0-8 3.574219-8 8s3.585938 8 8 8h304c4.414062 0 8-3.574219 8-8s-3.585938-8-8-8h-26.230469l-26.664062-80h52.894531c4.414062 0 8-3.574219 8-8v-64c0-4.425781-3.585938-8-8-8zm-216-168c0-4.414062 3.59375-8 8-8h160c4.40625 0 8 3.585938 8 8v168h-176v-48h88c4.414062 0 8-3.574219 8-8v-48c0-4.425781-3.585938-8-8-8h-88zm-128 72h208v32h-208zm32 72v-24h80v48h-56c-13.230469 0-24-10.769531-24-24zm268.894531 184h-169.789062l26.664062-80h116.460938zm35.105469-96h-240v-48h240zm0 0" fill="#007aff"/></svg>