<svg enable-background="new 0 0 32 32" height="512" viewBox="0 0 32 32" width="512" xmlns="http://www.w3.org/2000/svg"><path d="m26 32h-20c-3.314 0-6-2.686-6-6v-20c0-3.314 2.686-6 6-6h20c3.314 0 6 2.686 6 6v20c0 3.314-2.686 6-6 6z" fill="#f5e6fe"/><g fill="#d9a4fc"><circle cx="13.333" cy="16.675" r=".833"/><circle cx="18.667" cy="16.675" r=".833"/><path d="m19.903 18.92c-.094-.128-.244-.203-.403-.203h-7c-.159 0-.308.076-.403.203-.094.128-.122.293-.075.445.528 1.702 2.109 2.934 3.978 2.935 1.869-.001 3.45-1.233 3.978-2.935.047-.152.019-.317-.075-.445z"/></g><path d="m23.995 10.779c.001-.048-.004-.094-.016-.141-.003-.012-.004-.025-.008-.037-.018-.05-.042-.099-.076-.143-.003-.003-.006-.005-.009-.008-.009-.011-.02-.018-.03-.028-.032-.033-.066-.061-.104-.084-.016-.01-.033-.017-.051-.025-.041-.018-.083-.03-.127-.037-.012-.002-.022-.009-.034-.01-.005 0-.009.002-.014.002-.055-.003-.111 0-.166.016-.012.003-1.176.333-2.869.614l-1.074-1.951c-.316-.579-.922-.939-1.58-.939h-3.678c-.658 0-1.264.36-1.579.937l-1.075 1.953c-1.63-.271-2.762-.584-2.851-.609-.003-.001-.006-.002-.009-.003-.001 0-.008-.002-.008-.002-.055-.016-.111-.019-.166-.016-.005 0-.009-.002-.014-.002-.012.001-.021.008-.032.009-.045.007-.087.019-.128.037-.018.008-.034.015-.051.025-.038.022-.072.051-.103.083-.01.01-.021.018-.03.029-.003.003-.006.005-.009.008-.034.044-.058.092-.076.143-.004.012-.005.025-.008.038-.012.046-.018.093-.016.14 0 .01-.004.018-.003.028.024.29.261 2.701 1.436 3.812-.285.769-.437 1.584-.437 2.424 0 3.86 3.14 7 7 7s7-3.14 7-7c0-.84-.152-1.655-.437-2.423 1.175-1.111 1.411-3.522 1.436-3.812 0-.01-.004-.019-.004-.028zm-7.995 11.929c-3.125 0-5.667-2.542-5.667-5.667 0-1.105.331-2.153.93-3.07 1.419.798 3.007 1.206 4.737 1.206s3.318-.409 4.737-1.207c.599.917.93 1.965.93 3.07 0 3.126-2.542 5.668-5.667 5.668z" fill="#be63f9"/></svg>