<svg height="512pt" viewBox="0 0 512 512" width="512pt" xmlns="http://www.w3.org/2000/svg"><path d="m416 512h-320c-53.023438 0-96-42.976562-96-96v-320c0-53.023438 42.976562-96 96-96h320c53.023438 0 96 42.976562 96 96v320c0 53.023438-42.976562 96-96 96zm0 0" fill="#ffe6e2"/><path d="m354.671875 170.671875h-197.34375c-16.175781 0-29.328125 13.152344-29.328125 29.328125v112c0 16.175781 13.152344 29.328125 29.328125 29.328125h197.328125c16.175781 0 29.328125-13.152344 29.328125-29.328125v-112c.015625-16.175781-13.136719-29.328125-29.3125-29.328125zm-160 48h-26.671875c-4.414062 0-8-3.582031-8-8 0-4.414063 3.585938-8 8-8h26.671875c4.417969 0 8 3.585937 8 8 0 4.417969-3.582031 8-8 8zm57.28125 29.328125h8.109375c12.464844 0 22.609375 10.144531 22.609375 22.609375 0 11.214844-8.078125 20.429687-18.671875 22.320313v8.398437c0 4.414063-3.585938 8-8 8s-8-3.585937-8-8v-8h-10.671875c-4.417969 0-8-3.585937-8-8 0-4.417969 3.582031-8 8-8h22.71875c3.648437 0 6.609375-2.976563 6.609375-6.609375 0-3.742188-2.976562-6.71875-6.609375-6.71875h-8.109375c-12.464844 0-22.609375-10.144531-22.609375-22.609375 0-11.214844 8.078125-20.429687 18.671875-22.320313v-8.398437c0-4.414063 3.585938-8 8-8s8 3.585937 8 8v8h10.671875c4.417969 0 8 3.585937 8 8 0 4.417969-3.582031 8-8 8h-22.71875c-3.648437 0-6.609375 2.976563-6.609375 6.609375-.015625 3.742188 2.960938 6.71875 6.609375 6.71875zm92.046875 61.328125h-26.671875c-4.417969 0-8-3.585937-8-8 0-4.417969 3.582031-8 8-8h26.671875c4.414062 0 8 3.582031 8 8 0 4.414063-3.585938 8-8 8zm0 0" fill="#fc573b"/></svg>