<?xml version="1.0" encoding="iso-8859-1"?>
<!-- Generator: Adobe Illustrator 19.0.0, SVG Export Plug-In . SVG Version: 6.00 Build 0)  -->
<svg version="1.1" id="Capa_1" xmlns="http://www.w3.org/2000/svg" xmlns:xlink="http://www.w3.org/1999/xlink" x="0px" y="0px"
	 viewBox="0 0 511.963 511.963" style="enable-background:new 0 0 511.963 511.963;" xml:space="preserve">
<path style="fill:#2196F3;" d="M279.406,191.998H159.982v-48c-0.009-8.837-7.18-15.993-16.016-15.984
	c-3.866,0.004-7.6,1.408-10.512,3.952l-128,112c-6.645,5.825-7.31,15.934-1.485,22.579c0.462,0.527,0.958,1.023,1.485,1.485l128,112
	c6.654,5.814,16.762,5.134,22.576-1.52c2.544-2.911,3.948-6.645,3.952-10.512v-48h34.112L279.406,191.998z"/>
<path style="fill:#4CAF50;" d="M506.51,243.966l-128-112c-6.654-5.814-16.762-5.134-22.576,1.52
	c-2.544,2.911-3.948,6.645-3.952,10.512v48H317.87l-85.312,128h119.424v48c0.009,8.837,7.18,15.993,16.016,15.984
	c3.866-0.004,7.6-1.408,10.512-3.952l128-112c6.645-5.825,7.31-15.934,1.485-22.579C507.533,244.924,507.037,244.428,506.51,243.966
	L506.51,243.966z"/>
<path d="M367.982,383.998c-8.837,0-16-7.163-16-16v-48h-192v48c-0.002,6.271-3.667,11.964-9.376,14.56
	c-5.718,2.596-12.426,1.608-17.152-2.528l-128-112c-6.645-5.825-7.31-15.934-1.485-22.579c0.462-0.527,0.958-1.023,1.485-1.485
	l128-112c4.7-4.19,11.443-5.184,17.152-2.528c5.709,2.596,9.374,8.289,9.376,14.56v48h192v-48
	c0.009-8.837,7.18-15.993,16.016-15.984c3.866,0.004,7.6,1.408,10.512,3.952l128,112c6.645,5.825,7.31,15.934,1.485,22.579
	c-0.462,0.527-0.958,1.023-1.485,1.485l-128,112C375.596,382.583,371.856,383.993,367.982,383.998z M143.982,287.998h224
	c8.837,0,16,7.163,16,16v28.8l87.712-76.8l-87.712-76.8v28.8c0,8.837-7.163,16-16,16h-224c-8.837,0-16-7.163-16-16v-28.8
	l-87.712,76.8l87.712,76.8v-28.8C127.982,295.161,135.145,287.998,143.982,287.998z"/>
<path d="M223.982,319.998c-3.157,0.009-6.244-0.927-8.864-2.688c-7.349-4.898-9.339-14.823-4.448-22.176l64-96
	c5.111-7.208,15.098-8.908,22.307-3.797c6.911,4.9,8.804,14.339,4.317,21.525l-64,96
	C234.329,317.317,229.333,319.995,223.982,319.998z"/>
<g>
</g>
<g>
</g>
<g>
</g>
<g>
</g>
<g>
</g>
<g>
</g>
<g>
</g>
<g>
</g>
<g>
</g>
<g>
</g>
<g>
</g>
<g>
</g>
<g>
</g>
<g>
</g>
<g>
</g>
</svg>
