<svg xmlns="http://www.w3.org/2000/svg" width="64" height="64" x="0" y="0" fill="#000" viewBox="0 0 224 224"><g style="mix-blend-mode:normal" fill="none" stroke="none" stroke-dashoffset="0" stroke-miterlimit="10" stroke-width="1" font-family="none" font-size="none" font-weight="none"><path fill="none" d="M0,224v-224h224v224z"/><g id="Layer_1"><g><path fill="#34495e" d="M217,141.75h-7v-117.25c0,-12.6 -10.15,-22.75 -22.75,-22.75h-152.25c-12.6,0 -22.75,10.15 -22.75,22.75v117.25h-5.25c-2.975,0 -5.25,2.275 -5.25,5.25c0,2.975 2.275,5.25 5.25,5.25h131.25c2.975,0 5.25,-2.275 5.25,-5.25c0,-3.85 3.15,-7 7,-7h7c3.85,0 7,3.15 7,7c0,2.975 2.275,5.25 5.25,5.25h47.25c2.975,0 5.25,-2.275 5.25,-5.25c0,-2.975 -2.275,-5.25 -5.25,-5.25z"/><g fill="#fff"><g><g><g><path d="M71.75,99.75c-2.975,0 -5.25,-2.275 -5.25,-5.25v-22.4l-1.575,1.575c-2.1,2.1 -5.425,2.1 -7.35,0c-2.1,-2.1 -2.1,-5.425 0,-7.35l10.5,-10.5c1.575,-1.575 3.675,-1.925 5.775,-1.225c1.925,0.875 3.325,2.8 3.325,4.9v35c-0.175,2.975 -2.45,5.25 -5.425,5.25z"/></g></g></g><g><g><g><path d="M120.75,82.25h-17.5c-2.975,0 -5.25,-2.275 -5.25,-5.25c0,-2.975 2.275,-5.25 5.25,-5.25h17.5c2.975,0 5.25,2.275 5.25,5.25c0,2.975 -2.275,5.25 -5.25,5.25z"/></g></g></g><g><g><g><path d="M112,91c-2.975,0 -5.25,-2.275 -5.25,-5.25v-17.5c0,-2.975 2.275,-5.25 5.25,-5.25c2.975,0 5.25,2.275 5.25,5.25v17.5c0,2.975 -2.275,5.25 -5.25,5.25z"/></g></g></g><g><g><g><path d="M157.5,99.75c-2.975,0 -5.25,-2.275 -5.25,-5.25v-22.4l-1.575,1.575c-2.1,2.1 -5.425,2.1 -7.35,0c-2.1,-2.1 -2.1,-5.425 0,-7.35l10.5,-10.5c1.575,-1.575 3.675,-1.925 5.775,-1.225c1.925,0.875 3.325,2.8 3.325,4.9v35c-0.175,2.975 -2.45,5.25 -5.425,5.25z"/></g></g></g></g><g fill="#34495e"><g><g><path d="M217,222.25h-210c-2.975,0 -5.25,-2.275 -5.25,-5.25c0,-2.975 2.275,-5.25 5.25,-5.25h210c2.975,0 5.25,2.275 5.25,5.25c0,2.975 -2.275,5.25 -5.25,5.25z"/></g></g></g></g></g></g></svg>