<svg height="368pt" viewBox="0 0 368 368" width="368pt" xmlns="http://www.w3.org/2000/svg"><path d="m344 136v-64h-320v224h320v-64h-48v-96zm-160 48v48h-48v-96h48zm0 0" fill="#cce4ff"/><path d="m352 232v-216h8c4.425781 0 8-3.585938 8-8s-3.574219-8-8-8h-352c-4.425781 0-8 3.585938-8 8s3.574219 8 8 8h8v336h-8c-4.425781 0-8 3.574219-8 8s3.574219 8 8 8h352c4.425781 0 8-3.574219 8-8s-3.574219-8-8-8h-8zm-320 8h56c4.425781 0 8-3.574219 8-8s-3.574219-8-8-8h-56v-32h56c4.425781 0 8-3.585938 8-8s-3.574219-8-8-8h-56v-32h56c4.425781 0 8-3.585938 8-8s-3.574219-8-8-8h-56v-48h144v48h-40c-4.425781 0-8 3.585938-8 8v96c0 4.425781 3.574219 8 8 8h40v48h-144zm144-16h-32v-80h32zm16 16h56c4.425781 0 8-3.574219 8-8s-3.574219-8-8-8h-56v-32h56c4.425781 0 8-3.585938 8-8s-3.574219-8-8-8h-56v-32h56c4.425781 0 8-3.585938 8-8s-3.574219-8-8-8h-56v-48h144v48h-40c-4.425781 0-8 3.585938-8 8v96c0 4.425781 3.574219 8 8 8h40v48h-144zm144-16h-32v-80h32zm0-160h-144v-48h144zm-160-48v48h-144v-48zm-144 288h144v48h-144zm160 48v-48h144v48zm0 0" fill="#007aff"/></svg>