<svg xmlns="http://www.w3.org/2000/svg" xmlns:xlink="http://www.w3.org/1999/xlink" id="Capa_1" x="0" y="0" enable-background="new 0 0 511.988 511.988" version="1.1" viewBox="0 0 511.988 511.988" xml:space="preserve"><path fill="#D7E9FF" d="M256.079,451.99v23.999H224.08V451.99c0-4.398,3.516-8,8-8v-39.998v-0.156	c5.359,0.233,10.719,0.233,16,0v0.156v39.998C252.477,443.99,256.079,447.592,256.079,451.99z"/><path fill="#94C1FF" d="M415.988,195.994c0,97.196-78.795,175.99-175.987,175.99c-97.2,0-176.002-78.794-176.002-175.99	c0-97.2,78.802-175.995,176.002-175.995C337.193,19.999,415.988,98.794,415.988,195.994z"/><g><path fill="#D7E9FF" d="M72.319,249.199c-12.32-38.639-11.359-81.677,5.766-121.996c2.078-4.961,4.398-9.84,6.961-14.48 c7.437,8.64,16.233,37.202,16.796,39.518c2.078,9.523,4.883,19.121,6.797,28.64c3.281,16,4.961,36.8-6.078,50.319 C100.161,234.161,89.842,246,72.319,249.199z"/><path fill="#D7E9FF" d="M361.513,68.564c35.999,34.319,55.843,82.56,54.476,132.238c-7.438-2.082-26.797,1.438-28.633,4.48 c-9.843,16.878-34.24-21.839-45.678-15.042c-6.641,3.922-4.406,26.96,28.554,38.081c10.397,3.52-25.835,29.679-37.038,38.073 c-13.758,10.405-18.718,27.679-32.077,38.24c-8.398,6.641-19.202,9.68-28.718,14.398c-11.922,5.844-24.717,11.039-37.522,4.242 c-8.398-4.477-8-15.758-6.719-23.437c3.039-19.039,12.398-36.159,15.039-55.519c2.961-22.8-15.359-28.159-32.476-35.678 c-20.726-9.121-27.999-27.839-20-48.799c19.679-51.6,64.717-38.878,69.271-35.839c6.562,4.238,25.922,16.718,29.922,21.839 c13.601,17.281,37.443,11.519,39.037,3.761c1.602-7.761-38.076-36.721-53.193-44.479c-5.523-2.801-18.96-2.801-21.28-9.359 c-1.844-5.281,3.921-9.922,7.679-12.082c26.883-15.441,57.998-8.718,87.357-10.16C350.31,73.447,357.833,72.967,361.513,68.564z"/><path fill="#D7E9FF" d="M165.042,372.711c97.59,41.444,210.314-4.156,251.672-101.676 c41.436-97.591-4.086-210.311-101.677-251.747l5.038-15.281c105.677,44.877,156.316,167.515,111.356,273.269 C386.627,382.953,264.475,432.31,158.799,387.437v-0.164L165.042,372.711z"/></g><path fill="#94C1FF" d="M376.075,507.988H104.083c0-17.679,14.32-31.999,31.999-31.999h207.994	C361.755,475.989,376.075,490.309,376.075,507.988z"/><path fill="#D7E9FF" d="M152.082,475.989h-16c-17.679,0-31.999,14.32-31.999,31.999h16	C120.083,490.309,134.403,475.989,152.082,475.989z"/><path fill="#5C9EFF" d="M328.076,475.989h16c17.679,0,31.999,14.32,31.999,31.999h-16	C360.075,490.309,345.756,475.989,328.076,475.989z"/><path fill="#D7E9FF" d="M87.998,195.994c0-93.161,72.404-169.366,164.002-175.542c-3.968-0.27-7.96-0.453-12-0.453	c-97.199,0-176.001,78.795-176.001,175.995c0,97.196,78.802,175.99,176.002,175.99c4.039,0,8.031-0.18,12-0.453	C160.402,365.359,87.998,289.151,87.998,195.994z"/><path fill="#FFF" d="M72.319,249.199c9.109-1.664,16.227-5.656,21.343-9.527c-3.578-13.988-5.664-28.573-5.664-43.678	c0-19.925,3.484-38.991,9.585-56.846c-3.359-9.457-8.179-21.359-12.539-26.425c-2.562,4.64-4.883,9.519-6.961,14.48	c-6.383,15.027-10.507,30.429-12.546,45.838c-0.031,0.215-0.055,0.43-0.078,0.641c-0.641,4.945-1.062,9.886-1.273,14.816	c-0.016,0.34-0.008,0.688-0.023,1.027C63.413,209.919,66.225,230.098,72.319,249.199z"/><path fill="#5C9EFF" d="M391.988,195.994c0-93.161-72.404-169.366-164.002-175.542c3.968-0.27,7.96-0.453,12-0.453	c97.2,0,176.002,78.794,176.002,175.995c0,97.196-78.803,175.99-176.002,175.99c-4.039,0-8.031-0.18-12-0.453	C319.584,365.359,391.988,289.151,391.988,195.994z"/><path fill="#94C1FF" d="M415.105,178.369c-0.023-0.285-0.055-0.57-0.086-0.855c-0.266-2.539-0.594-5.059-0.961-7.562	c-0.102-0.645-0.203-1.285-0.305-1.93c-0.344-2.156-0.727-4.301-1.148-6.434c-0.203-1.004-0.422-2.004-0.641-3.004	c-0.391-1.797-0.797-3.586-1.242-5.363c-0.32-1.285-0.672-2.562-1.023-3.844c-0.414-1.523-0.836-3.046-1.289-4.55	c-0.445-1.441-0.922-2.871-1.398-4.301c-0.453-1.371-0.898-2.742-1.383-4.097c-0.516-1.43-1.078-2.84-1.625-4.258	c-0.531-1.363-1.047-2.738-1.609-4.09c-0.5-1.188-1.047-2.355-1.57-3.531c-0.695-1.578-1.383-3.168-2.133-4.719	c-0.211-0.441-0.445-0.871-0.656-1.312c-9.211-18.745-21.671-35.592-36.624-49.857c-3.711,4.301-11.108,4.785-11.897,4.863	c-2.359,0.117-4.734,0.168-7.117,0.191c30.655,31.659,49.592,74.724,49.592,122.277c0,2.359-0.25,4.652-0.336,6.988	c6.547-2.152,18.617-3.707,24.211-2.199c0.047-1.594,0.125-3.184,0.125-4.789C415.988,190.045,415.683,184.166,415.105,178.369z"/><g><path fill="#116FFF" d="M232.079,447.99c-2.211,0-4-1.789-4-4v-39.998c0-2.211,1.789-4,4-4s4,1.789,4,4v39.998 C236.079,446.201,234.29,447.99,232.079,447.99z"/><path fill="#116FFF" d="M248.079,447.99c-2.211,0-4-1.789-4-4v-39.998c0-2.211,1.789-4,4-4s4,1.789,4,4v39.998 C252.079,446.201,250.29,447.99,248.079,447.99z"/><path fill="#116FFF" d="M224.08,455.99c-2.211,0-4-1.789-4-4c0-6.617,5.383-12,12-12c2.211,0,4,1.789,4,4s-1.789,4-4,4 c-2.242,0-4,1.758-4,4C228.079,454.201,226.291,455.99,224.08,455.99z"/><path fill="#116FFF" d="M256.079,455.99c-2.211,0-4-1.789-4-4c0-2.203-1.796-4-4-4c-2.211,0-4-1.789-4-4s1.789-4,4-4 c6.617,0,11.999,5.383,11.999,12C260.078,454.201,258.289,455.99,256.079,455.99z"/><path fill="#116FFF" d="M224.08,479.989c-2.211,0-4-1.789-4-4V451.99c0-2.211,1.789-4,4-4s4,1.789,4,4v23.999 C228.079,478.2,226.291,479.989,224.08,479.989z"/><path fill="#116FFF" d="M256.079,479.989c-2.211,0-4-1.789-4-4V451.99c0-2.211,1.789-4,4-4c2.21,0,3.999,1.789,3.999,4 v23.999C260.078,478.2,258.289,479.989,256.079,479.989z"/><path fill="#116FFF" d="M104.083,511.988c-2.211,0-4-1.789-4-4c0-19.851,16.148-35.999,35.999-35.999c2.211,0,4,1.789,4,4 s-1.789,4-4,4c-15.437,0-27.999,12.562-27.999,27.999C108.083,510.199,106.294,511.988,104.083,511.988z"/><path fill="#116FFF" d="M376.075,511.988c-2.211,0-4-1.789-4-4c0-15.438-12.562-27.999-27.999-27.999c-2.211,0-4-1.789-4-4 s1.789-4,4-4c19.851,0,35.998,16.148,35.998,35.999C380.074,510.199,378.286,511.988,376.075,511.988z"/><path fill="#116FFF" d="M344.076,479.989H136.082c-2.211,0-4-1.789-4-4s1.789-4,4-4h207.994c2.211,0,4,1.789,4,4 S346.287,479.989,344.076,479.989z"/><path fill="#116FFF" d="M376.075,511.988H104.083c-2.211,0-4-1.789-4-4s1.789-4,4-4h271.992c2.211,0,3.999,1.789,3.999,4 S378.286,511.988,376.075,511.988z"/><path fill="#116FFF" d="M240.001,376.039c-24.187,0-47.834-4.828-70.287-14.358 c-48.342-20.523-85.231-61.077-101.208-111.267c-13.022-40.846-10.929-85.161,5.898-124.773c2.203-5.266,4.609-10.269,7.141-14.851 c31.241-58.483,92.005-94.845,158.542-94.845c24.186,0,47.834,4.839,70.271,14.382c20.155,8.59,38.296,20.48,53.912,35.339 c36.812,35.093,57.115,84.388,55.718,135.246c-0.5,22.292-5.281,44.318-14.234,65.443 C377.45,332.986,312.382,376.039,240.001,376.039z M240.087,23.944c-63.584,0-121.637,34.741-151.511,90.666 c-2.422,4.378-4.703,9.117-6.805,14.14c-16.085,37.87-18.085,80.208-5.641,119.234c15.266,47.972,50.514,86.721,96.708,106.329 c21.46,9.109,44.054,13.726,67.162,13.726c69.169,0,131.339-41.139,158.393-104.801c8.547-20.191,13.125-41.226,13.594-62.525 c1.336-48.62-18.062-95.724-53.233-129.254c-14.921-14.195-32.257-25.558-51.529-33.772 C285.781,28.569,263.195,23.944,240.087,23.944z"/><path fill="#116FFF" d="M240.001,392.078c-25.96,0-51.905-5.227-76.521-15.68c-2.031-0.867-2.984-3.219-2.117-5.25 c0.867-2.039,3.226-2.977,5.242-2.117c46.194,19.617,97.293,20.055,143.863,1.242c46.553-18.812,82.974-54.607,102.567-100.801 c40.506-95.412-4.156-205.994-99.56-246.501c-2.031-0.863-2.984-3.214-2.117-5.246c0.867-2.039,3.227-2.973,5.241-2.121 c99.467,42.233,146.027,157.522,103.794,256.993c-20.421,48.154-58.396,85.481-106.926,105.098 C289.726,387.289,264.851,392.078,240.001,392.078z"/><path fill="#116FFF" d="M240.119,408.015c-2.734,0-5.484-0.062-8.219-0.188c-25.577-0.914-50.709-6.538-74.662-16.71 c-2.031-0.867-2.984-3.211-2.117-5.242c0.859-2.039,3.218-2.984,5.242-2.125c23.054,9.797,47.225,15.203,71.857,16.086 c5.258,0.234,10.516,0.234,15.68,0c78.653-3.062,149.237-51.788,179.845-124.113c21.288-50.077,21.569-105.618,0.797-156.395 c-20.734-50.662-59.803-90.31-110.028-111.637c-2.031-0.867-2.983-3.215-2.117-5.246c0.867-2.039,3.227-2.969,5.242-2.121 c52.179,22.159,92.771,63.346,114.31,115.973c21.585,52.772,21.296,110.497-0.836,162.55 c-31.812,75.162-105.161,125.793-186.876,128.98C245.556,407.952,242.845,408.015,240.119,408.015z"/><path fill="#116FFF" d="M247.712,330.478c-4.844,0-9.773-1.047-14.711-3.672c-5.617-2.992-11.695-10.219-8.789-27.632 c1.516-9.484,4.554-18.539,7.5-27.296c3.055-9.07,6.203-18.457,7.523-28.097c2.18-16.824-8.219-22.144-25.358-29.433l-4.766-2.043 c-22.546-9.925-31.022-30.573-22.124-53.889c7.898-20.726,20.554-33.995,37.592-39.437c16.906-5.41,33.537-1.031,37.631,1.695 c12.391,8,26.969,17.734,30.858,22.707c7.406,9.41,18.297,10.812,25.397,9.128c4.656-1.102,6.445-3.105,6.562-3.711 c-1.164-5.914-34.49-31.593-51.1-40.116c-1.398-0.707-4.031-1.308-6.586-1.886c-6.398-1.457-14.358-3.266-16.639-9.695 c-2.086-5.977,1.453-12.285,9.459-16.886c20.617-11.843,43.397-11.261,65.49-10.71c7.812,0.195,15.906,0.406,23.664,0.023 c4.172-0.367,7.585-1.688,9.124-3.531c1.422-1.695,3.961-1.914,5.633-0.504c1.695,1.418,1.922,3.941,0.508,5.637 c-3.992,4.773-10.851,6.039-14.585,6.367c-8.336,0.41-16.578,0.211-24.547,0.008c-21.952-0.543-42.623-1.078-61.303,9.648 c-3.383,1.945-6.672,5.059-5.898,7.293c0.805,2.262,6.859,3.637,10.867,4.551c3.164,0.719,6.156,1.398,8.453,2.562 c7.148,3.668,57.943,36.03,55.295,48.854c-0.93,4.551-5.625,8.246-12.562,9.883c-9.358,2.223-23.772,0.414-33.529-11.98 c-2.367-3.027-12.047-10.034-28.781-20.839c-2.562-1.598-16.944-5.59-31.631-0.66c-14.281,4.805-25.015,16.394-31.905,34.452 c-7.335,19.218-0.648,35.562,17.875,43.713l4.672,2.008c15.585,6.621,33.241,14.125,30.163,37.846 c-1.422,10.418-4.703,20.168-7.867,29.59c-2.969,8.835-5.773,17.187-7.188,26.037c-1.18,7.055-1.32,16.102,4.648,19.289 c11.109,5.898,22.366,1.336,33.881-4.312c3.148-1.555,6.453-2.953,9.766-4.344c6.68-2.805,12.991-5.453,18.226-9.594 c6.062-4.788,10.297-11.14,14.781-17.866c4.827-7.234,9.819-14.718,17.366-20.429l2.609-1.941 c24.46-18.21,32.366-26.179,34.241-29.612c-22.546-8.023-31.765-21.859-32.851-32.276c-0.602-5.723,1.219-10.43,4.867-12.582 c7.438-4.406,16.366,2.57,25.007,9.328c5.781,4.516,13,10.132,16.694,9.402c0.383-0.07,1.391-0.266,2.555-2.257 c3.383-5.621,25.477-8.484,33.164-6.316c2.125,0.594,3.366,2.801,2.773,4.93c-0.594,2.121-2.766,3.382-4.93,2.773 c-6.148-1.703-22.117,1.324-24.539,3.199c-1.547,2.852-4.219,4.898-7.516,5.531c-7.312,1.371-14.983-4.601-23.124-10.956 c-5.288-4.133-13.327-10.352-16.007-8.75c-0.453,0.266-1.305,1.852-0.992,4.871c0.812,7.781,8.836,19.253,28.78,25.983 c2.484,0.84,4.125,2.672,4.492,5.02c1.055,6.664-8.492,16.284-37.843,38.124l-2.57,1.922c-6.461,4.883-10.859,11.483-15.523,18.476 c-4.632,6.945-9.421,14.132-16.468,19.702c-6.102,4.82-13.21,7.805-20.093,10.695c-3.164,1.328-6.312,2.648-9.336,4.148 C266.047,326.603,257.039,330.478,247.712,330.478z"/><path fill="#116FFF" d="M72.311,253.199c-1.891,0-3.578-1.352-3.93-3.281c-0.39-2.172,1.047-4.258,3.219-4.652 c15.703-2.867,25.289-13.417,27.851-16.585c7.906-9.684,9.679-25.491,5.265-46.995c-1.047-5.207-2.359-10.417-3.664-15.628 c-1.093-4.328-2.179-8.652-3.117-12.965c-0.773-3.156-9.414-30.194-15.921-37.76c-1.445-1.676-1.25-4.199,0.422-5.641 c1.688-1.438,4.203-1.25,5.641,0.422c8.515,9.898,17.585,40.897,17.655,41.182c0.938,4.32,2.008,8.566,3.078,12.809 c1.344,5.336,2.68,10.675,3.75,15.987c4.914,23.96,2.594,42.011-6.898,53.64c-3.844,4.734-14.718,16.136-32.624,19.401 C72.795,253.18,72.553,253.199,72.311,253.199z"/><path fill="#116FFF" d="M158.801,391.273c-0.531,0-1.062-0.102-1.578-0.32c-2.031-0.875-2.968-3.227-2.101-5.25 l6.242-14.562c0.875-2.047,3.226-2.984,5.257-2.102c2.031,0.867,2.969,3.219,2.102,5.25l-6.242,14.562 C161.824,390.367,160.348,391.273,158.801,391.273z"/><path fill="#116FFF" d="M315.038,23.288c-0.414,0-0.836-0.062-1.25-0.203c-2.102-0.691-3.242-2.953-2.547-5.05l5.038-15.281 c0.688-2.094,2.945-3.258,5.047-2.543c2.102,0.691,3.242,2.953,2.547,5.051l-5.039,15.28 C318.279,22.222,316.717,23.288,315.038,23.288z"/></g></svg>