<svg xmlns="http://www.w3.org/2000/svg" width="512" height="512" x="0" y="0" fill="#000" viewBox="0 0 224 224"><g style="mix-blend-mode:normal" fill="none" stroke="none" stroke-dashoffset="0" stroke-miterlimit="10" stroke-width="1" font-family="none" font-size="none" font-weight="none"><path fill="none" d="M0,224v-224h224v224z"/><g fill="#fff"><path d="M112,29.86667c-15.83752,0 -28.52464,5.74159 -36.63333,15.75c-2.52459,-0.47804 -5.18688,-0.81667 -8.16667,-0.81667c-12.82027,0 -16.8,8.40712 -16.8,8.41458c-11.46133,0 -16.8,11.6032 -16.8,25.2c0,6.7872 2.96042,12.39583 2.96042,12.39583c-1.1872,0.67947 -3.14697,2.84807 -2.65417,6.70834c0.9184,7.18293 4.0222,8.99441 6.00833,9.14375c0.75413,6.70507 9.82835,15.29057 12.35208,16.5375v11.2c-5.6,16.8 -52.26667,5.6 -52.26667,44.8h29.86667c0,8.25067 6.68267,14.93333 14.93333,14.93333h134.4c8.25067,0 14.93333,-6.68267 14.93333,-14.93333h29.86667c0,-39.2 -46.66667,-28 -52.26667,-44.8v-11.2c2.52373,-1.24693 11.59795,-9.83244 12.35208,-16.5375c1.98613,-0.14933 5.08993,-1.96081 6.00833,-9.14375c0.4928,-3.86027 -1.46696,-6.02887 -2.65416,-6.70834c0,0 2.96041,-5.60863 2.96041,-12.39583c0,-13.5968 -5.33867,-25.2 -16.8,-25.2c0,-0.00747 -3.97973,-8.41458 -16.8,-8.41458c-3.40201,0 -6.40444,0.4185 -9.21667,1.03542c-3.32709,-3.27874 -7.25434,-5.7387 -11.78333,-7c-5.14453,-4.9504 -13.10027,-8.96875 -23.8,-8.96875zM112,44.8c12.06613,0 15.80833,7.90417 15.80834,7.90417c10.78933,0 15.82291,10.92922 15.82291,23.72708c0,6.384 -2.78542,11.66667 -2.78542,11.66667c1.12,0.64213 2.95669,2.67832 2.49375,6.31458c-0.86613,6.7648 -3.79167,8.47688 -5.65834,8.61875c-0.7168,6.30187 -8.37352,15.26315 -10.74792,16.43542v17.57292c5.27147,15.8144 52.26667,5.26761 52.26667,42.16041h-134.4c0,-36.8928 46.9952,-26.35348 52.26667,-42.16041v-17.57292c-2.3744,-1.17227 -10.03858,-10.12608 -10.74792,-16.43542c-1.86667,-0.14187 -4.7922,-1.86142 -5.65834,-8.61875c-0.46293,-3.6288 1.38834,-5.67245 2.50834,-6.31458c0,0 -2.78542,-5.86472 -2.78542,-11.68125c0,-17.27787 9.26147,-31.61667 31.61667,-31.61667z"/></g></g></svg>