<svg xmlns="http://www.w3.org/2000/svg" x="0px" y="0px"
     width="512" height="512"
     viewBox="0 0 224 224"
     style=" fill:#000000;">
    <g fill="none" stroke="none" stroke-width="1"
       stroke-miterlimit="10" stroke-dasharray="" stroke-dashoffset="0" font-family="none" font-weight="none"
       style="mix-blend-mode: normal">
        <path d="M0,224v-224h224v224z" fill="none"></path>
        <g id="Layer_1">
            <g>
                <g>
                    <g>
                        <g fill="#ffffff">
                            <path d="M119.7,185.5c-11.2,-19.6 -32.375,-32.9 -56.7,-32.9v0c-24.325,0 -45.5,13.3 -56.7,33.075l0.175,5.25h113.05z"></path>
                        </g>
                        <g fill="#ffffff">
                            <circle cx="36" cy="57.5" transform="scale(1.75,1.75)" r="17.5"></circle>
                        </g>
                        <g fill="#444b54">
                            <path d="M63,136.325c-19.775,0 -35.875,-16.1 -35.875,-35.875c0,-18.725 14.7,-34.475 33.425,-35.7c2.975,-0.175 5.425,1.925 5.6,4.9c0.175,2.975 -1.925,5.425 -4.9,5.6c-13.3,0.875 -23.625,11.9 -23.625,25.2c0,14 11.375,25.375 25.375,25.375c4.55,0 9.1,-1.225 12.95,-3.5c2.45,-1.4 5.775,-0.7 7.175,1.75c1.4,2.45 0.7,5.775 -1.75,7.175c-5.6,3.325 -11.9,5.075 -18.375,5.075z"></path>
                        </g>
                        <g fill="#444b54">
                            <path d="M6.3,190.75c-0.875,0 -1.75,-0.175 -2.625,-0.7c-2.45,-1.4 -3.325,-4.55 -1.925,-7.175c9.1,-16.1 24.5,-28.175 42.35,-33.075c2.8,-0.7 5.775,0.875 6.475,3.675c0.7,2.8 -0.875,5.775 -3.675,6.475c-15.05,4.2 -28.175,14.525 -36.05,28.175c-0.875,1.75 -2.625,2.625 -4.55,2.625z"></path>
                        </g>
                    </g>
                    <g>
                        <g fill="#ffffff">
                            <path d="M104.3,185.5c11.2,-19.6 32.375,-32.9 56.7,-32.9v0c24.325,0 45.5,13.3 56.7,33.075l-0.175,5.25h-113.05z"></path>
                        </g>
                        <g fill="#ffffff">
                            <circle cx="92" cy="57.5" transform="scale(1.75,1.75)" r="17.5"></circle>
                        </g>
                        <g fill="#444b54">
                            <path d="M161,136.325c-6.475,0 -12.775,-1.75 -18.2,-5.075c-2.45,-1.4 -3.325,-4.725 -1.75,-7.175c1.4,-2.45 4.725,-3.325 7.175,-1.75c3.85,2.275 8.4,3.5 12.95,3.5c14,0 25.375,-11.375 25.375,-25.375c0,-13.3 -10.325,-24.325 -23.625,-25.2c-2.975,-0.175 -5.075,-2.625 -4.9,-5.6c0.175,-2.975 2.625,-5.075 5.6,-4.9c18.725,1.225 33.425,16.975 33.425,35.7c-0.175,19.95 -16.275,35.875 -36.05,35.875z"></path>
                        </g>
                        <g fill="#444b54">
                            <path d="M217.7,190.75c-1.75,0 -3.675,-0.875 -4.55,-2.625c-7.7,-13.65 -20.825,-23.975 -36.05,-28.175c-2.8,-0.7 -4.375,-3.675 -3.675,-6.475c0.7,-2.8 3.675,-4.375 6.475,-3.675c17.675,4.9 33.075,16.975 42.35,33.075c1.4,2.45 0.525,5.775 -1.925,7.175c-0.875,0.525 -1.75,0.7 -2.625,0.7z"></path>
                        </g>
                    </g>
                </g>
                <g>
                    <g fill="#ffffff">
                        <path d="M176.925,184.8c-12.95,-22.575 -37.1,-37.8 -64.925,-37.8v0c-27.825,0 -51.975,15.225 -64.925,37.8l0.175,5.95h129.5z"></path>
                    </g>
                    <g fill="#ffffff">
                        <circle cx="64" cy="50" transform="scale(1.75,1.75)" r="20"></circle>
                    </g>
                    <g fill="#3498db">
                        <path d="M112,127.75c-22.225,0 -40.25,-18.025 -40.25,-40.25c0,-22.225 18.025,-40.25 40.25,-40.25c22.225,0 40.25,18.025 40.25,40.25c0,22.225 -18.025,40.25 -40.25,40.25zM112,57.75c-16.45,0 -29.75,13.3 -29.75,29.75c0,16.45 13.3,29.75 29.75,29.75c16.45,0 29.75,-13.3 29.75,-29.75c0,-16.45 -13.3,-29.75 -29.75,-29.75z"></path>
                    </g>
                    <g fill="#3498db">
                        <path d="M47.075,190.75c-0.875,0 -1.75,-0.175 -2.625,-0.7c-2.45,-1.4 -3.325,-4.55 -1.925,-7.175c14.175,-24.85 40.775,-40.425 69.475,-40.425c28.7,0 55.3,15.575 69.475,40.425c1.4,2.45 0.525,5.775 -1.925,7.175c-2.45,1.4 -5.775,0.525 -7.175,-1.925c-12.25,-21.7 -35.35,-35.175 -60.375,-35.175c-24.85,0 -47.95,13.475 -60.375,35.175c-0.875,1.75 -2.625,2.625 -4.55,2.625z"></path>
                    </g>
                </g>
            </g>
        </g>
    </g>
</svg>