<svg xmlns="http://www.w3.org/2000/svg" width="512" height="512" x="0" y="0" fill="#000" viewBox="0 0 224 224"><g style="mix-blend-mode:normal" fill="none" stroke="none" stroke-dashoffset="0" stroke-miterlimit="10" stroke-width="1" font-family="none" font-size="none" font-weight="none" text-anchor="none"><path fill="none" d="M0,224v-224h224v224z"/><g id="Layer_1"><g><g><g fill="#c1d2e5"><path d="M84,73.5h-28c-9.625,0 -17.5,7.875 -17.5,17.5v38.5c0,6.475 4.55,11.9 10.5,13.475v56.525c0,5.775 4.725,10.5 10.5,10.5c5.775,0 15.225,0 21,0c5.775,0 10.5,-4.725 10.5,-10.5v-56h10.5v-52.5c0,-9.625 -7.875,-17.5 -17.5,-17.5z"/><circle cx="40" cy="26" r="10" transform="scale(1.75,1.75)"/></g><g fill="#c1d2e5"><path d="M168,73.5h-28c-9.625,0 -17.5,7.875 -17.5,17.5v38.5c0,6.475 4.55,11.9 10.5,13.475v56c0,5.775 4.375,10.85 10.15,10.85c5.95,0.175 15.75,0.175 21.7,0c5.775,-0.175 10.15,-5.25 10.15,-10.85v-55.475v0c5.775,0 10.5,-4.725 10.5,-10.5v-42c0,-9.625 -7.875,-17.5 -17.5,-17.5z"/><circle cx="88" cy="26" r="10" transform="scale(1.75,1.75)"/></g><path fill="#fff" d="M122.5,210v0c-5.775,0 -10.5,-4.725 -10.5,-10.5v-73.5h21v73.5c0,5.775 -4.725,10.5 -10.5,10.5z"/><path fill="#fff" d="M126,73.5h-28c-9.625,0 -17.5,7.875 -17.5,17.5v52.5v0c5.775,0 10.5,4.725 10.5,10.5v44.975c0,5.775 4.375,10.85 10.15,10.85c5.95,0.175 10.85,-4.55 10.85,-10.5v-55.825h21h10.5v-52.5c0,-9.625 -7.875,-17.5 -17.5,-17.5z"/><g fill="#3498db"><path d="M122.5,215.25c-8.75,0 -15.75,-7 -15.75,-15.75v-56c0,-2.975 2.275,-5.25 5.25,-5.25c2.975,0 5.25,2.275 5.25,5.25v56c0,2.975 2.275,5.25 5.25,5.25c2.975,0 5.25,-2.275 5.25,-5.25v-56c0,-2.975 2.275,-5.25 5.25,-5.25h5.25v-47.25c0,-6.825 -5.425,-12.25 -12.25,-12.25h-28c-6.825,0 -12.25,5.425 -12.25,12.25v52.5c0,2.975 -2.275,5.25 -5.25,5.25c-2.975,0 -5.25,-2.275 -5.25,-5.25v-52.5c0,-12.6 10.15,-22.75 22.75,-22.75h28c12.6,0 22.75,10.15 22.75,22.75v52.5c0,2.975 -2.275,5.25 -5.25,5.25h-5.25v50.75c0,8.75 -7,15.75 -15.75,15.75z"/></g><circle cx="64" cy="22" r="10" fill="#fff" transform="scale(1.75,1.75)"/><g fill="#3498db"><path d="M112,61.25c-12.6,0 -22.75,-10.15 -22.75,-22.75c0,-12.6 10.15,-22.75 22.75,-22.75c12.6,0 22.75,10.15 22.75,22.75c0,12.6 -10.15,22.75 -22.75,22.75zM112,26.25c-6.825,0 -12.25,5.425 -12.25,12.25c0,6.825 5.425,12.25 12.25,12.25c6.825,0 12.25,-5.425 12.25,-12.25c0,-6.825 -5.425,-12.25 -12.25,-12.25z"/></g><g fill="#3498db"><path d="M101.5,215.25c-8.75,0 -15.75,-7 -15.75,-15.75v-45.5c0,-2.975 2.275,-5.25 5.25,-5.25c2.975,0 5.25,2.275 5.25,5.25v45.5c0,2.975 2.275,5.25 5.25,5.25c2.975,0 5.25,-2.275 5.25,-5.25c0,-2.975 2.275,-5.25 5.25,-5.25c2.975,0 5.25,2.275 5.25,5.25c0,8.75 -7,15.75 -15.75,15.75z"/></g></g><g fill="#3498db"><path d="M175,215.25v0h-126c-2.975,0 -5.25,-2.275 -5.25,-5.25c0,-2.975 2.275,-5.25 5.25,-5.25v0h126c2.975,0 5.25,2.275 5.25,5.25c0,2.975 -2.275,5.25 -5.25,5.25z"/></g><g fill="#3498db"><path d="M192.5,215.25c-0.35,0 -0.7,0 -1.05,-0.175c-0.35,0 -0.7,-0.175 -1.05,-0.35c-0.35,-0.175 -0.525,-0.35 -0.875,-0.525c-0.35,-0.175 -0.525,-0.35 -0.875,-0.7c-1.05,-1.05 -1.575,-2.275 -1.575,-3.675c0,-1.4 0.525,-2.8 1.575,-3.675c0.175,-0.175 0.525,-0.525 0.875,-0.7c0.35,-0.175 0.525,-0.35 0.875,-0.525c0.35,-0.175 0.7,-0.175 1.05,-0.35c0.7,-0.175 1.4,-0.175 2.1,0c0.35,0 0.7,0.175 1.05,0.35c0.35,0.175 0.7,0.35 0.875,0.525c0.35,0.175 0.525,0.35 0.875,0.7c1.05,1.05 1.575,2.275 1.575,3.675c0,1.4 -0.525,2.8 -1.575,3.675c-0.175,0.175 -0.525,0.525 -0.875,0.7c-0.35,0.175 -0.525,0.35 -0.875,0.525c-0.35,0.175 -0.7,0.175 -1.05,0.35c-0.35,0.175 -0.7,0.175 -1.05,0.175z"/></g></g></g></g></svg>