<svg xmlns="http://www.w3.org/2000/svg" x="0px" y="0px"
     width="512" height="512"
     viewBox="0 0 30 30"
     style=" fill:#fff;">
    <path d="M 9 4 C 6.239 4 4 6.239 4 9 L 4 10 C 4 12.761 6.239 15 9 15 C 11.761 15 14 12.761 14 10 L 14 9 C 14 6.239 11.761 4 9 4 z M 21 4 C 18.239 4 16 6.239 16 9 L 16 10 C 16 12.761 18.239 15 21 15 C 23.761 15 26 12.761 26 10 L 26 9 C 26 6.239 23.761 4 21 4 z M 9 6 C 10.654 6 12 7.346 12 9 L 12 10 C 12 11.654 10.654 13 9 13 C 7.346 13 6 11.654 6 10 L 6 9 C 6 7.346 7.346 6 9 6 z M 8.9980469 17 C 5.7200469 17 1.5146875 18.874062 0.3046875 20.914062 C -0.4423125 22.174062 0.26909375 24 1.4960938 24 L 13.496094 24 L 16.503906 24 L 28.503906 24 C 29.730906 24 30.441359 22.174063 29.693359 20.914062 C 28.483359 18.874062 24.276047 17 20.998047 17 C 19.047018 17 16.7784 17.670245 14.998047 18.638672 C 13.216701 17.671691 10.948304 17 8.9980469 17 z M 8.9980469 19 C 11.768047 19 15.207609 20.640594 15.974609 21.933594 C 15.985609 21.951594 15.990141 21.975 15.994141 22 L 2.0039062 22 C 2.0079063 21.975 2.0153906 21.951594 2.0253906 21.933594 C 2.7933906 20.640594 6.2290469 19 8.9980469 19 z"></path>
</svg>