<svg id="bold" enable-background="new 0 0 32 32" height="512" viewBox="0 0 32 32" width="512" xmlns="http://www.w3.org/2000/svg"><path d="m26 32h-20c-3.314 0-6-2.686-6-6v-20c0-3.314 2.686-6 6-6h20c3.314 0 6 2.686 6 6v20c0 3.314-2.686 6-6 6z" fill="#e3f8fa"/><g fill="#26c6da"><circle cx="10.667" cy="19.333" r="1.333"/><path d="m11.5 21.333h-1.667c-1.011 0-1.833.823-1.833 1.834v.333c0 .276.224.5.5.5h4.333c.276 0 .5-.224.5-.5v-.333c0-1.011-.822-1.834-1.833-1.834z"/><circle cx="21.333" cy="19.333" r="1.333"/><path d="m22.167 21.333h-1.667c-1.011 0-1.833.822-1.833 1.833v.334c0 .276.224.5.5.5h4.333c.276 0 .5-.224.5-.5v-.333c0-1.011-.822-1.834-1.833-1.834z"/></g><path d="m21.5 8h-11c-1.013 0-1.833.82-1.833 1.833v5c0 1.013.82 1.833 1.833 1.833h2.833v-.833c0-1.013.82-1.833 1.833-1.833h1.667c1.013 0 1.833.82 1.833 1.833v.833h2.834c1.013 0 1.833-.82 1.833-1.833v-5c0-1.013-.82-1.833-1.833-1.833zm-5.5 5.333c-.735 0-1.333-.598-1.333-1.333s.598-1.333 1.333-1.333 1.333.598 1.333 1.333-.598 1.333-1.333 1.333z" fill="#8ce1eb"/></svg>