<svg xmlns="http://www.w3.org/2000/svg" width="1200" height="1200" viewBox="0 0 1200 1200"><g fill="#FFF" transform="translate(600 600) scale(-0.69 0.69) rotate(0) translate(-600 -600)"><svg xmlns="http://www.w3.org/2000/svg" x="0" y="0" fill="#000" enable-background="new 0 0 100 100" version="1.1" viewBox="0 0 100 100" xml:space="preserve"><path fill="#000" fill-rule="evenodd" d="M93.284,60.175c-0.007,0.01-0.014,0.017-0.021,0.025l-0.027-0.014l-0.086,0.109 c-0.57,0.726-1.196,1.385-1.874,1.976c-0.011,0.011-0.023,0.021-0.036,0.031c-0.929,0.785-1.956,1.451-3.086,1.987 c-2.329,1.103-4.813,1.664-7.344,2.037c-2.231,0.328-4.471,0.583-6.715,0.81c-2.944,0.297-5.891,0.467-8.845,0.591 c-2.574,0.105-5.14,0.069-7.707-0.044c-2.56-0.114-5.115-0.317-7.663-0.637c-1.992-0.252-3.973-0.562-5.946-0.914 c-1-0.176-1.999-0.383-2.998-0.55c-1.479-0.243-2.941-0.583-4.429-0.768l-1.962-0.269c-0.003-0.001-0.006-0.001-0.01-0.002 c-0.405-0.067-0.818-0.13-1.232-0.169h-0.005l-0.773-0.104c-0.001-0.001-0.002-0.001-0.005-0.001 c-0.075-0.019-0.144-0.026-0.21-0.029h-0.001l-1.474-0.202H30.83c-0.004-0.001-0.01-0.001-0.014-0.002 c-0.085-0.011-0.157-0.024-0.218-0.039c-0.196-0.044-0.28-0.091-0.28-0.091c-1.514-0.225-3.033-0.263-4.452-0.27 c-0.888-0.006-1.776-0.004-2.664-0.002c-0.167,0.002-0.335,0.002-0.503,0.002c-0.502,0.002-1.08,0.068-1.08,0.068 c-3.097,0.087-6.184,0.329-9.274,0.492c-0.395-0.03-0.79-0.057-1.184-0.086c-0.671-0.047-1.318-0.195-1.953-0.407 c-1.358-0.597-2.032-1.697-2.355-3.095c-0.408-1.764-0.316-3.53-0.027-5.286c0.561-3.39,1.404-6.717,2.259-10.04 c1.007-3.921,2.219-7.79,3.005-11.768c0.222-1.121,0.59-2.236,0.094-3.398c-0.542-1.272-0.205-2.408,0.658-3.442 c1.094-1.313,2.152-2.656,3.25-3.964c0.989-1.178,2.114-2.19,3.668-2.538c0.904-0.204,1.827-0.313,2.739-0.468 c0.752-0.129,1.484-0.369,2.255-0.378c0.061-0.007,0.125-0.011,0.188-0.016c0.072-0.121,0.184-0.11,0.301-0.084 c0.094-0.007,0.188-0.01,0.282-0.018c0.141-0.183,0.328-0.067,0.495-0.072c0.062-0.01,0.125-0.019,0.186-0.029 c0.078-0.125,0.191-0.111,0.307-0.078c0.095-0.003,0.19-0.008,0.285-0.014c0.108-0.146,0.256-0.094,0.399-0.079 c0.224-0.005,0.447-0.015,0.673-0.021c0.075-0.114,0.195-0.098,0.303-0.1c0.85-0.019,1.697-0.083,2.545,0.014 c0.601-0.005,1.201,0.024,1.802,0.06c1.321,0.072,2.641,0.223,3.967,0.135l0.208,1.199c0.18,1.035,0.359,2.072,0.538,3.108 c0.042,0.25,0.08,0.507,0.117,0.756l0.051,0.338l0.017,0.115l0.005,0.003c-0.009,0.01-0.017,0.021-0.021,0.035 c-0.012,0.032-0.008,0.073,0.027,0.13c0.141,0.216,0.242,0.444,0.318,0.679c0.057,0.176,0.099,0.356,0.133,0.539 c0.012,0.059,0.022,0.12,0.032,0.181c0.019,0.124,0.036,0.245,0.052,0.368c0.016,0.123,0.03,0.247,0.045,0.368 c0.008,0.062,0.016,0.124,0.024,0.185c0.005,0.045,0.012,0.092,0.019,0.138c0.021,0.136,0.043,0.274,0.073,0.407 c0.007,0.034,0.015,0.065,0.023,0.095c0.013,0.044,0.026,0.084,0.042,0.121c0.01,0.023,0.021,0.046,0.035,0.068 c0.012,0.02,0.027,0.038,0.044,0.057c0.016,0.015,0.034,0.03,0.054,0.044c0.009,0.007,0.018,0.012,0.028,0.018l-0.041,0.077 l0.075,0.088c1.01,1.177,2.339,1.606,4.005,1.809c-1.208,0.666-2.281,1.384-2.653,2.819l-0.009,0.037h-0.001 c-0.158,0.015-0.201,0.102-0.098,0.373c0.325,0.854,0.263,1.773,0.36,2.668c0.017,0.153,0.038,0.282,0.12,0.373l-0.099,0.039 l0.148,0.181c0.504,0.609,1.18,1.02,2.109,1.271c-0.114,0.089-0.219,0.169-0.323,0.25c-0.678,0.517-1.145,1.184-1.427,2.036 c-0.139,0.417-0.097,0.781,0.127,1.115l0.017,0.026l0.025,0.018c0.005,0.003,0.01,0.008,0.016,0.01 c-0.001,0.002-0.002,0.004-0.004,0.008c-0.01,0.022-0.017,0.047-0.022,0.07c-0.023,0.108,0.003,0.207,0.095,0.319 c0.023,0.028,0.051,0.059,0.083,0.09c0.04,0.037,0.079,0.074,0.116,0.112c0.114,0.114,0.22,0.231,0.323,0.354 c0.034,0.042,0.068,0.083,0.101,0.126c0.065,0.085,0.128,0.17,0.19,0.255c0,0-0.001,0.003,0,0.003 c0.153,0.218,0.292,0.446,0.422,0.677c0.104,0.186,0.203,0.374,0.296,0.565c0.054,0.108,0.104,0.192,0.154,0.252 c0.007,0.008,0.015,0.017,0.022,0.025c0.021,0.022,0.044,0.041,0.065,0.055c0.121,0.076,0.255,0.024,0.451-0.137 c0.018-0.014,0.037-0.029,0.056-0.039c0.001,0,0.001,0,0.001,0l0.09,0.105c0.667,0.778,1.534,1.157,2.652,1.157 c0.272,0,0.556-0.021,0.867-0.067c1.246-0.179,2.273-0.826,3.031-1.367c0.015-0.011,0.03-0.021,0.042-0.033 c-0.019,0.073-0.041,0.146-0.061,0.222c-0.1,0.355-0.204,0.722-0.248,1.111c-0.16,1.397,0.288,2.513,1.366,3.408l0.095,0.079 c-0.013,0.316,0.219,0.451,0.595,0.493c0.044,0.005,0.102,0.018,0.156,0.033l-0.985,2.642c-0.089,0.244-0.495,1.271-0.887,2.268 c-0.327,0.821-0.656,1.657-0.833,2.113c-0.05,0.13-0.071,0.262-0.091,0.392c-0.005,0.036-0.011,0.07-0.019,0.104 c-0.255,0.252-0.342,0.578-0.418,0.866c-0.035,0.132-0.066,0.253-0.112,0.367c-0.105,0.266-0.18,0.545-0.251,0.813 c-0.032,0.117-0.064,0.234-0.098,0.35l-0.005,0.033c-0.018,0.196-0.053,0.396-0.087,0.59c-0.083,0.476-0.168,0.971-0.035,1.488 c0.22,0.865,0.839,1.354,1.631,1.274l5.386,0.545l1.124,0.131c1.229,0.142,2.497,0.291,3.746,0.431 c0.714,0.079,1.427,0.153,2.14,0.229c0.592,0.063,1.184,0.124,1.775,0.189l0.082,0.009c0.511,0.056,1.036,0.113,1.548,0.199 c0.216,0.034,0.384,0.053,0.53,0.053c0.625,0,0.904-0.327,1.197-0.931c0.107-0.218,0.209-0.458,0.243-0.724 c0.001-0.001,0.001-0.001,0.001-0.002c0.407-1.5,0.762-3.036,1.103-4.521c0.093-0.403,0.186-0.807,0.28-1.211 c0.274-1.177,0.525-2.233,0.813-3.279c0.048-0.174,0.048-0.343,0.048-0.504c0-0.192,0-0.359,0.078-0.51l0.015-0.027 c0.038,0.011,0.077,0.021,0.116,0.031c2.338,0.562,4.711,0.969,7.018,1.677c5.086,1.556,10.202,3.023,15.066,5.217 C92.282,59.583,92.878,59.707,93.284,60.175z" clip-rule="evenodd"/><path fill-rule="evenodd" d="M30.816,64.037l-0.223-0.03c0.001-0.004,0.003-0.006,0.004-0.009 C30.659,64.013,30.731,64.026,30.816,64.037z" clip-rule="evenodd"/><path fill="#000" d="M30.39,64.375c-1.532-0.238-3.081-0.28-4.525-0.285c-0.825-0.006-1.649-0.004-2.474-0.002 c-0.457,0.002-0.916,0.004-1.367,0.002c-2.185,0.053-4.402,0.189-6.546,0.321c-1.024,0.062-2.082,0.126-3.124,0.182h-0.012 l-0.01-0.001c-0.388-0.028-0.778-0.055-1.167-0.082l-0.017-0.001c-0.599-0.042-1.21-0.165-1.867-0.377 c-0.643,1.046-1.394,2.42-1.706,3.96c-0.325,1.611-0.042,2.872,0.868,3.853c0.369,0.395,0.742,0.653,1.337,1.017l0.241,0.084 c0.636,0.221,1.292,0.451,1.96,0.582l0.149,0.029l-0.001,0.021c0.184,0.039,0.579,0.1,0.914,0.142 c0.779,0.066,1.561,0.133,2.338,0.197c6.628,0.385,10.653,0.565,10.7,0.566c1.069,0.083,2.156,0.093,3.093,0.093l1.085-0.002h0.143 c1.939,0.002,3.911,0.013,5.816,0.023c2.071,0.015,4.212,0.026,6.318,0.026c3.501,0,6.362-0.037,9.009-0.115 c0.921-0.026,1.856-0.034,2.761-0.037c0.854-0.006,1.737-0.009,2.605-0.034c0.577-0.013,1.154-0.032,1.731-0.051 c1.322-0.044,2.69-0.087,4.037-0.087c0.29,0,0.582,0.001,0.863,0.006c4.919-0.189,13.495-0.673,13.59-0.678 c0.969-0.001,1.952-0.096,2.902-0.188c0.375-0.035,0.763-0.072,1.145-0.104c0.911-0.074,1.835-0.198,2.728-0.316l0.291-0.04 c1.136-0.151,3.174-0.797,3.19-0.805c1.993-0.683,3.515-1.453,4.787-2.426c1.486-1.133,2.403-2.292,2.882-3.646 c0.501-1.417,0.318-2.778-0.559-4.165c-0.043-0.068-0.086-0.138-0.128-0.204c-0.297-0.479-0.577-0.933-1.045-1.214 c-1.397,1.744-3.113,3.107-5.101,4.049c-2.037,0.968-4.316,1.601-7.391,2.055c-1.964,0.289-4.1,0.545-6.725,0.809 c-2.596,0.262-5.411,0.449-8.855,0.592c-1.025,0.042-2.1,0.064-3.197,0.064c-1.424,0-2.902-0.036-4.521-0.108 c-2.65-0.116-5.232-0.332-7.677-0.64c-1.899-0.238-3.847-0.537-5.956-0.914c-0.419-0.074-0.843-0.152-1.255-0.231 c-0.57-0.109-1.16-0.221-1.739-0.317c-0.569-0.094-1.146-0.203-1.701-0.308c-0.89-0.17-1.81-0.344-2.723-0.458 c-0.476-0.062-0.955-0.146-1.417-0.228 M31.833,64.582 M31.885,64.591 M55.88,68.115c0.045-0.013,0.092-0.019,0.144-0.02h0.037 c-0.012,0-0.024,0.001-0.037,0.001C55.972,68.097,55.925,68.103,55.88,68.115z"/><path fill="#000" d="M49.174,56.533c0.33,0.113,0.662,0.226,0.993,0.339c0.541,0.183,1.093,0.37,1.646,0.557c0.22,0.075,0.441,0.149,0.662,0.223 c0.111,0.037,0.222,0.072,0.334,0.109c0.483,0.16,0.97,0.319,1.456,0.479c0.523,0.17,1.048,0.34,1.567,0.508 c0.285,0.093,0.566,0.185,0.849,0.274l0.421,0.136c0.614,0.199,1.229,0.394,1.845,0.59c0.008,0.003,0.015,0.006,0.022,0.008 c0.811,0.26,1.624,0.518,2.434,0.781c0.212,0.068,0.426,0.14,0.639,0.212c0.104,0.034,0.21,0.07,0.315,0.106 c0.106,0.035,0.214,0.069,0.318,0.105c0.5,0.17,1.013,0.344,1.526,0.507c0.172,0.056,0.343,0.107,0.514,0.16 c0.051,0.016,0.101,0.031,0.151,0.047h0.001c0.102,0.032,0.202,0.066,0.301,0.098c0.051,0.017,0.102,0.033,0.149,0.052 c0.197,0.063,0.396,0.131,0.595,0.188c0.067,0.021,0.134,0.04,0.2,0.059c0.069,0.02,0.136,0.038,0.204,0.055 c0.065,0.018,0.13,0.033,0.197,0.048c0.037,0.009,0.074,0.018,0.111,0.025c0.1,0.021,0.202,0.038,0.304,0.052 c0.393-1.449,0.733-2.937,1.065-4.374c0.093-0.402,0.186-0.807,0.28-1.211c0.274-1.179,0.526-2.24,0.814-3.294 c0.037-0.129,0.037-0.267,0.037-0.413c0-0.204,0-0.416,0.096-0.625c0.001-0.969-0.419-1.604-1.352-2.058 c-3.422-1.658-6.884-3.374-10.231-5.036c-1.165-0.576-2.331-1.156-3.498-1.733c-0.078-0.039-0.154-0.083-0.229-0.125 c-0.172,0.799-0.433,1.577-0.685,2.333l-0.1,0.299l-2.155,5.791c-0.093,0.247-0.48,1.229-0.893,2.273 c-0.325,0.82-0.653,1.655-0.831,2.11c-0.037,0.098-0.055,0.207-0.073,0.325C49.176,56.519,49.175,56.527,49.174,56.533z"/><path fill="#000" fill-rule="evenodd" d="M38.816,18.996V19c0.004,0.047,0.008,0.095,0.011,0.142 c0.007,0.098,0.013,0.19,0.026,0.281c0.2,1.314,0.4,2.625,0.601,3.938l0.145,0.949c0.083,0,0.166,0,0.235,0.029c0,0,0,0,0,0.001 c0.018,0.007,0.034,0.016,0.049,0.028c0.008,0.006,0.016,0.012,0.023,0.02c0.014,0.012,0.028,0.029,0.04,0.049 c0.023,0.04,0.041,0.092,0.049,0.159c0.017,0.125,0.037,0.247,0.06,0.37c0.012,0.062,0.023,0.123,0.036,0.183 c0.022,0.104,0.045,0.21,0.069,0.314c0.066,0.289,0.14,0.576,0.209,0.864c0,0.002,0.001,0.004,0.001,0.006 c0.014,0.054,0.026,0.107,0.038,0.161c0.013,0.058,0.026,0.116,0.038,0.173c0.014,0.058,0.025,0.115,0.036,0.172 c0.033,0.167,0.062,0.336,0.084,0.506c0.001,0.006,0.001,0.013,0.002,0.019h0.016l0.036-0.003l0.032,0.014 c0.071,0.031,0.141,0.058,0.211,0.088c0.153,0.064,0.307,0.129,0.462,0.19c1.063,0.417,2.03,0.616,2.957,0.616 c0.951,0,1.838-0.209,2.712-0.642c0.367-0.185,0.757-0.322,1.134-0.457c0.172-0.062,0.344-0.124,0.514-0.189l0.042-0.016 c-0.062-0.475-0.208-0.931-0.364-1.379c-0.483-1.396-0.379-2.854-0.496-4.289c-0.091-1.138-0.397-2.177-1.582-2.631 c-0.76-0.291-1.579-0.352-2.394-0.357c-1.358-0.01-2.664,0.365-3.994,0.561C39.51,18.921,39.163,18.957,38.816,18.996z" clip-rule="evenodd"/><path fill="#000" fill-rule="evenodd" d="M42.049,32.958c0.123,0.896,0.247,1.791,0.372,2.688l0.046,0.006 c0.238,0.033,0.479,0.072,0.711,0.109c0.504,0.083,1.026,0.165,1.535,0.188c1.526,0.067,2.922-0.537,4.273-1.121 c0.117-0.05,0.234-0.1,0.35-0.149l0.038-0.018l0.014,0.003h0.001c-0.089-1.058-0.241-2.107-0.438-3.149 c-0.044-0.234-0.066-0.464-0.077-0.697h-0.003c-0.224,0.005-0.448,0.008-0.671,0.011c-0.624,0.01-1.268,0.022-1.896,0.087 c-1.565,0.167-2.927,0.819-4.162,1.997l-0.049,0.045H42.049z" clip-rule="evenodd"/><path fill="#000" d="M42.966,29.672l0.561,0.052l-0.496,0.267c-1.26,0.677-2.456,1.318-2.9,2.65l1.826-0.02c1.279-1.201,2.689-1.868,4.311-2.04 c0.645-0.069,1.296-0.08,1.927-0.09c0.217-0.002,0.433-0.005,0.649-0.011c0.036-0.009,0.073-0.019,0.109-0.026 c0.303-0.067,0.462-0.118,0.494-0.384c0.049-0.405-0.127-0.679-0.604-0.948l-0.172-0.096l0.12-0.154 c0.336-0.435,0.471-0.792,0.399-1.064c-0.05-0.194-0.215-0.356-0.492-0.484c-0.15,0.058-0.303,0.112-0.456,0.167 c-0.368,0.13-0.749,0.268-1.097,0.439c-0.909,0.452-1.873,0.68-2.863,0.68c-0.97,0-1.977-0.21-3.08-0.641 c-0.158-0.061-0.314-0.126-0.47-0.192l-0.176-0.073c-0.388,0.011-0.788,0.092-1.187,0.24c-0.102,0.038-0.206,0.044-0.303,0.044 l-0.107-0.003c-0.105,0-0.172,0.009-0.221,0.042C39.773,29.158,41.181,29.505,42.966,29.672z"/><path fill="#000" d="M43.622,43.864c0.558,0.572,1.271,0.849,2.173,0.849c0.25,0,0.512-0.021,0.803-0.062c1.149-0.166,2.117-0.775,2.832-1.289 c0.032-0.023,0.063-0.047,0.095-0.073c0.115-0.091,0.253-0.203,0.443-0.241l1.223-0.953l-0.896,1.26l-0.011,0.013 c-0.049,0.231-0.112,0.456-0.173,0.674c-0.1,0.353-0.194,0.687-0.235,1.039c-0.132,1.166,0.211,2.108,1.052,2.876 c0.315-0.344,0.506-0.762,0.658-1.175c-0.563-1.871-0.19-3.481,1.109-4.79c0.034-0.197,0.151-0.333,0.247-0.447 c0.033-0.038,0.064-0.076,0.09-0.111c0.136-0.195,0.192-0.355,0.159-0.447c-0.031-0.085-0.157-0.161-0.354-0.214 c-0.39-0.106-0.664-0.258-0.826-0.688c-0.112-0.296-0.335-0.408-0.647-0.333c-0.18,0.199-0.359,0.405-0.534,0.606 c-0.421,0.485-0.859,0.986-1.344,1.432c-1.194,1.092-2.701,1.587-4.887,1.604h-0.023l-0.023-0.004 c-0.055-0.012-0.11-0.018-0.162-0.018C44.076,43.372,43.865,43.6,43.622,43.864z"/><path fill="#000" d="M40.84,40.104c-0.103,0.308-0.081,0.553,0.068,0.792c0.02,0.009,0.03,0.009,0.035,0.009c0.035,0,0.09-0.029,0.146-0.062 c0.126-0.071,0.253-0.136,0.377-0.201c0.392-0.203,0.762-0.395,1.05-0.71l0.021-0.019c1.332-1.029,2.526-1.609,3.759-1.828 c0.378-0.066,0.79-0.098,1.296-0.098c0.282,0,0.567,0.008,0.843,0.018c0.346,0.013,0.702,0.023,1.049,0.018 c0.083-0.003,0.165,0,0.247,0.002c0.229,0.002,0.469,0.01,0.696-0.076c0.139-0.241,0.18-0.463,0.125-0.654 c-0.062-0.213-0.25-0.4-0.557-0.554c-0.129-0.065-0.274-0.137-0.298-0.293c-0.02-0.141,0.081-0.255,0.171-0.34 c0.248-0.229,0.312-0.511,0.189-0.834c-0.085-0.228-0.25-0.247-0.556-0.264c-0.023-0.001-0.046-0.002-0.07-0.003 c-0.104,0.043-0.208,0.089-0.312,0.133c-1.385,0.6-2.822,1.219-4.421,1.149c-0.53-0.024-1.061-0.111-1.575-0.194 c-0.183-0.028-0.37-0.059-0.557-0.084c-0.088,0.17-0.275,0.183-0.377,0.19c-0.025,0.003-0.053,0.003-0.079,0.008 c-0.202,0.032-0.408,0.052-0.606,0.068c-0.32,0.029-0.625,0.056-0.917,0.137c0.501,0.521,1.161,0.849,2.1,1.052l0.357,0.077 l-0.484,0.374c-0.149,0.115-0.279,0.214-0.409,0.314C41.53,38.706,41.1,39.319,40.84,40.104z"/><path fill="#000" fill-rule="evenodd" d="M42.743,40.185c0.083,0.113,0.168,0.227,0.254,0.34 c0.039,0.053,0.078,0.105,0.119,0.159c0.039,0.053,0.078,0.106,0.118,0.159c0.039,0.054,0.078,0.107,0.116,0.162 c0.078,0.108,0.153,0.214,0.227,0.324c0.021,0.034,0.044,0.066,0.067,0.098c0.021,0.029,0.042,0.058,0.064,0.088 c0.121,0.161,0.252,0.315,0.375,0.476c0.024,0.032,0.048,0.063,0.071,0.095c0.024,0.031,0.047,0.063,0.069,0.095 c0.02,0.029,0.04,0.057,0.059,0.086c0.027,0.043,0.054,0.086,0.079,0.131c0.017,0.029,0.033,0.057,0.046,0.086 c0.019,0.034,0.036,0.069,0.051,0.105c0.016,0.036,0.03,0.071,0.043,0.105c0,0.002,0.001,0.003,0.001,0.004 c0.013,0.037,0.026,0.074,0.036,0.113c0.001,0.003,0.002,0.006,0.003,0.011c0.006,0.019,0.01,0.036,0.014,0.056 c0.005,0.018,0.009,0.036,0.012,0.055h0.001c0.016,0.005,0.031,0.008,0.048,0.009c2.052-0.019,3.461-0.479,4.563-1.485 c0.465-0.428,0.894-0.919,1.308-1.396c0.19-0.218,0.387-0.444,0.585-0.661l0.041-0.046l0.027-0.006h0.001 c-0.176-0.37-0.351-0.74-0.527-1.11l-0.003,0.002c-0.246,0.111-0.493,0.125-0.722,0.125h-0.168 c-0.076-0.002-0.154-0.004-0.232-0.002c-0.356,0.006-0.718-0.005-1.068-0.017c-0.273-0.01-0.556-0.019-0.832-0.019 c-0.486,0-0.88,0.03-1.238,0.093c-1.172,0.207-2.317,0.765-3.599,1.754C42.752,40.178,42.748,40.183,42.743,40.185z" clip-rule="evenodd"/><path fill="#000" d="M36.832,19.03l0.198,1.138c0.18,1.035,0.359,2.071,0.537,3.106c0.044,0.254,0.083,0.515,0.12,0.765 c0.01,0.072,0.021,0.146,0.032,0.217c0.141,0.022,0.288,0.035,0.444,0.035c0.357,0,0.708-0.057,1.074-0.125l-0.116-0.753 c-0.2-1.314-0.401-2.627-0.6-3.939c-0.016-0.105-0.023-0.208-0.03-0.308c-0.002-0.029-0.004-0.058-0.006-0.086 c-0.035-0.042-0.069-0.085-0.103-0.129c-0.096-0.123-0.188-0.237-0.287-0.348c-0.213-0.236-0.408-0.355-0.578-0.355 c-0.196,0-0.384,0.165-0.563,0.489c-0.036,0.066-0.063,0.141-0.093,0.219C36.851,18.981,36.842,19.005,36.832,19.03z"/><path fill="#000" fill-rule="evenodd" d="M52.041,46.723l0.021,0.07c0.191,0,0.326-0.008,0.43-0.039l0.317-0.852 l0.098-0.296c0.273-0.817,0.556-1.664,0.721-2.524l0.028-0.151c-0.177-0.241-0.355-0.482-0.572-0.688l-0.014,0.013 C51.818,43.481,51.481,44.943,52.041,46.723z" clip-rule="evenodd"/><path fill="#000" d="M48.146,60.986c0.18,0.709,0.655,1.089,1.285,1.021l0.018-0.002l5.423,0.546l1.127,0.131 c1.229,0.143,2.497,0.291,3.744,0.432c0.713,0.078,1.426,0.154,2.138,0.229c0.592,0.063,1.186,0.126,1.777,0.19l0.081,0.008 c0.515,0.057,1.046,0.117,1.567,0.204c0.196,0.031,0.347,0.048,0.474,0.048c0.413,0,0.613-0.168,0.893-0.741 c0.081-0.168,0.146-0.316,0.185-0.469c-0.021-0.003-0.037-0.005-0.058-0.01c-0.022-0.004-0.048-0.007-0.072-0.013 c-0.027-0.003-0.056-0.009-0.083-0.013c-0.106-0.02-0.212-0.045-0.315-0.069c-0.069-0.017-0.139-0.034-0.208-0.052 c-0.117-0.033-0.233-0.065-0.349-0.102c-0.113-0.036-0.226-0.072-0.338-0.108c-0.074-0.023-0.148-0.049-0.223-0.073 c-0.195-0.063-0.396-0.131-0.595-0.191c-0.018-0.005-0.036-0.012-0.055-0.016c-0.153-0.047-0.309-0.095-0.462-0.146 c-0.517-0.163-1.031-0.338-1.533-0.509c-0.312-0.105-0.631-0.213-0.951-0.318c-0.106-0.034-0.212-0.07-0.317-0.104 c-0.776-0.253-1.557-0.502-2.335-0.749c-0.039-0.014-0.079-0.028-0.119-0.039c-0.615-0.196-1.231-0.394-1.846-0.591l-0.421-0.138 c-1.111-0.358-2.259-0.728-3.391-1.1c-0.161-0.053-0.322-0.107-0.484-0.159c-0.111-0.035-0.223-0.073-0.332-0.11 c-0.775-0.259-1.557-0.525-2.313-0.78c-0.057-0.02-0.114-0.039-0.17-0.058c-0.145-0.05-0.288-0.099-0.431-0.148 c-0.145-0.048-0.289-0.097-0.432-0.145c-0.162,0.184-0.225,0.423-0.292,0.673c-0.035,0.132-0.072,0.271-0.124,0.405 c-0.099,0.248-0.17,0.516-0.24,0.777c-0.031,0.113-0.062,0.227-0.095,0.34c-0.019,0.204-0.054,0.405-0.088,0.602 C48.108,60.102,48.032,60.537,48.146,60.986z"/></svg></g></svg>