<?xml version="1.0" encoding="iso-8859-1"?>
<!-- Generator: Adobe Illustrator 19.0.0, SVG Export Plug-In . SVG Version: 6.00 Build 0)  -->
<svg version="1.1" id="Capa_1" xmlns="http://www.w3.org/2000/svg" xmlns:xlink="http://www.w3.org/1999/xlink" x="0px" y="0px"
	 viewBox="0 0 512 512" style="enable-background:new 0 0 512 512;" xml:space="preserve">
<polygon style="fill:#7FCAC9;" points="68.311,51.308 187.749,8.651 187.749,315.779 68.311,315.779 "/>
<g>
	<rect x="136.587" y="102.462" style="fill:#195C85;" width="51.188" height="34.125"/>
	<rect x="136.587" y="170.712" style="fill:#195C85;" width="51.188" height="34.125"/>
	<path style="fill:#195C85;" d="M34.185,315.779v187.69h187.69v-187.69H34.185z M187.749,469.343H68.311v-34.125h119.439V469.343z"
		/>
	<path style="fill:#195C85;" d="M187.749,256.06h-51.188c-4.709,0-8.531-3.822-8.531-8.531c0-4.709,3.822-8.531,8.531-8.531h51.188
		c4.709,0,8.531,3.822,8.531,8.531C196.281,252.238,192.459,256.06,187.749,256.06z"/>
	<path style="fill:#195C85;" d="M102.436,290.185c-4.709,0-8.531-3.822-8.531-8.531V42.776c0-4.709,3.822-8.531,8.531-8.531
		s8.531,3.822,8.531,8.531v238.878C110.967,286.363,107.145,290.185,102.436,290.185z"/>
</g>
<rect x="341.339" y="196.306" style="fill:#7FCAC9;" width="51.188" height="307.128"/>
<g>
	<rect x="392.527" y="443.715" style="fill:#195C85;" width="85.313" height="34.125"/>
	<rect x="392.527" y="375.464" style="fill:#195C85;" width="85.313" height="34.125"/>
	<path style="fill:#195C85;" d="M366.907,0.12c-56.537,0-102.376,45.839-102.376,102.376s45.839,102.376,102.376,102.376
		s102.376-45.839,102.376-102.376C469.224,45.975,423.419,0.179,366.907,0.12z M366.907,162.215
		c-32.982,0-59.719-26.737-59.719-59.719s26.737-59.719,59.719-59.719s59.719,26.737,59.719,59.719S399.89,162.215,366.907,162.215z
		"/>
</g>
<path d="M196.281,8.651c0-4.709-3.831-8.531-8.54-8.523c-0.973,0-1.945,0.171-2.858,0.495L65.444,43.28
	c-3.395,1.211-5.665,4.419-5.665,8.028v255.94H34.185c-4.709,0-8.531,3.822-8.531,8.531v187.69c0,4.709,3.822,8.531,8.531,8.531
	h187.69c4.709,0,8.531-3.822,8.531-8.531v-187.69c0-4.709-3.822-8.531-8.531-8.531h-25.594V8.651z M179.218,196.34h-34.125v-17.063
	h34.125V196.34z M179.218,128.09h-34.125v-17.063h34.125V128.09z M213.343,494.937H42.716V324.311h170.627V494.937z M76.842,307.248
	V57.322l17.063-6.091v230.423c0,4.709,3.822,8.531,8.531,8.531s8.531-3.822,8.531-8.531V45.131l68.251-24.374v73.207h-42.657
	c-4.709,0-8.531,3.822-8.531,8.531v34.125c0,4.709,3.822,8.531,8.531,8.531h42.657v17.063h-42.657c-4.709,0-8.531,3.822-8.531,8.531
	v34.125c0,4.709,3.822,8.531,8.531,8.531h42.657v25.594h-42.657c-4.709,0-8.531,3.822-8.531,8.531c0,4.709,3.822,8.531,8.531,8.531
	h42.657v51.188H76.842z"/>
<path d="M68.311,426.687c-4.709,0-8.531,3.822-8.531,8.531v34.125c0,4.709,3.822,8.531,8.531,8.531h119.439
	c4.709,0,8.531-3.822,8.531-8.531v-34.125c0-4.709-3.822-8.531-8.531-8.531H68.311z M179.218,460.812H76.842v-17.063h102.376
	V460.812z"/>
<path d="M469.284,102.496C469.343,45.95,423.564,0.068,367.027,0S264.591,45.72,264.531,102.257
	c-0.051,43.425,27.309,82.165,68.251,96.635V503.46c0,4.709,3.822,8.531,8.531,8.531h51.188c4.709,0,8.531-3.822,8.531-8.531
	v-17.063h76.782c4.709,0,8.531-3.822,8.531-8.531v-34.125c0-4.709-3.822-8.531-8.531-8.531h-76.782v-17.063h76.782
	c4.709,0,8.531-3.822,8.531-8.531V375.49c0-4.709-3.822-8.531-8.531-8.531h-76.782V198.891
	C441.881,184.431,469.207,145.826,469.284,102.496z M281.594,102.496c0-47.119,38.195-85.313,85.313-85.313
	s85.313,38.195,85.313,85.313s-38.195,85.313-85.313,85.313C319.814,187.758,281.645,149.589,281.594,102.496z M469.284,452.281
	v17.063h-68.251v-17.063H469.284z M469.284,384.03v17.063h-68.251V384.03H469.284z M383.97,204.872v290.066h-34.125V204.872H383.97z
	"/>
<path d="M435.158,102.496c0-37.691-30.559-68.251-68.251-68.251s-68.251,30.559-68.251,68.251s30.559,68.251,68.251,68.251
	C404.582,170.704,435.116,140.17,435.158,102.496z M315.719,102.496c0-28.273,22.915-51.188,51.188-51.188
	c28.273,0,51.188,22.915,51.188,51.188s-22.915,51.188-51.188,51.188C338.652,153.65,315.745,130.751,315.719,102.496z"/>
<g>
</g>
<g>
</g>
<g>
</g>
<g>
</g>
<g>
</g>
<g>
</g>
<g>
</g>
<g>
</g>
<g>
</g>
<g>
</g>
<g>
</g>
<g>
</g>
<g>
</g>
<g>
</g>
<g>
</g>
</svg>
