<svg xmlns="http://www.w3.org/2000/svg" xmlns:xlink="http://www.w3.org/1999/xlink" id="svg" width="400" height="400" version="1.1" viewBox="0 0 400 400"><g id="svgg"><path id="path0" fill="#344c6c" fill-rule="evenodd" stroke="none" d="M180.000 107.500 L 180.000 110.000 200.000 110.000 L 220.000 110.000 220.000 107.500 L 220.000 105.000 200.000 105.000 L 180.000 105.000 180.000 107.500 M176.490 139.000 L 169.814 145.652 178.074 153.907 C 182.617 158.447,186.333 162.270,186.333 162.403 C 186.333 162.536,183.734 165.256,180.557 168.447 L 174.781 174.250 173.107 182.625 C 172.186 187.231,171.530 191.000,171.650 191.000 C 171.769 191.000,175.515 190.268,179.974 189.372 L 188.082 187.745 194.041 181.792 L 200.001 175.839 208.420 184.253 L 216.839 192.667 223.500 186.000 L 230.161 179.333 221.914 171.081 C 217.378 166.542,213.667 162.687,213.667 162.515 C 213.667 162.342,216.642 159.193,220.278 155.517 C 226.781 148.943,226.899 148.798,227.475 146.702 C 229.240 140.285,224.448 134.311,217.880 134.739 C 214.445 134.962,213.739 135.451,206.490 142.643 L 199.972 149.108 191.568 140.728 L 183.165 132.349 176.490 139.000 M186.074 145.091 L 184.330 146.858 185.761 148.262 C 187.532 150.001,187.468 150.004,189.410 148.091 L 191.010 146.515 193.873 149.378 L 196.737 152.241 193.227 155.811 L 189.718 159.380 182.807 152.469 L 175.896 145.558 179.523 142.107 L 183.150 138.656 185.484 140.990 L 187.819 143.325 186.074 145.091 M221.034 139.750 C 223.935 141.673,224.274 144.918,221.859 147.638 L 220.417 149.261 216.873 145.706 L 213.329 142.152 214.574 140.870 C 216.599 138.786,218.960 138.376,221.034 139.750 M203.000 166.500 C 187.543 181.960,188.600 181.018,188.055 179.820 C 187.488 178.576,184.799 175.812,183.127 174.754 L 181.670 173.833 195.917 159.584 L 210.163 145.334 213.663 148.834 L 217.163 152.334 203.000 166.500 M213.235 168.541 L 216.064 171.414 214.290 173.211 L 212.516 175.007 214.088 176.579 L 215.660 178.151 217.480 176.353 L 219.300 174.555 221.484 176.804 C 224.162 179.563,224.305 178.876,220.206 182.961 L 216.746 186.409 210.040 179.714 C 206.351 176.032,203.333 172.905,203.333 172.766 C 203.333 172.515,210.036 165.667,210.280 165.667 C 210.349 165.667,211.679 166.960,213.235 168.541 M181.886 179.423 C 183.262 180.629,185.000 182.897,185.000 183.485 C 185.000 183.707,183.687 184.122,181.917 184.461 C 180.221 184.786,178.436 185.131,177.950 185.227 L 177.067 185.403 177.502 183.285 C 177.741 182.120,178.111 180.306,178.325 179.253 L 178.713 177.340 179.685 177.843 C 180.220 178.119,181.210 178.830,181.886 179.423 M180.000 217.500 L 180.000 220.000 200.000 220.000 L 220.000 220.000 220.000 217.500 L 220.000 215.000 200.000 215.000 L 180.000 215.000 180.000 217.500 M153.667 261.320 L 153.667 276.000 156.417 276.000 L 159.167 276.000 159.198 269.250 C 159.238 260.855,159.925 258.962,163.120 258.443 C 166.778 257.849,167.333 259.194,167.333 268.656 L 167.333 276.000 170.000 276.000 L 172.667 276.000 172.665 268.083 C 172.662 257.965,172.235 256.347,169.200 254.968 C 165.657 253.359,161.751 254.786,159.442 258.532 C 159.135 259.030,159.063 257.839,159.109 253.000 L 159.167 246.833 156.417 246.737 L 153.667 246.640 153.667 261.320 M229.333 248.500 L 229.333 250.333 232.167 250.333 L 235.000 250.333 235.000 261.500 L 235.000 272.667 231.000 272.667 L 227.000 272.667 227.000 274.333 L 227.000 276.000 237.167 276.000 L 247.333 276.000 247.333 274.333 L 247.333 272.667 243.833 272.667 L 240.333 272.667 240.333 259.667 L 240.333 246.667 234.833 246.667 L 229.333 246.667 229.333 248.500 M259.667 248.667 L 259.667 250.667 262.333 250.667 L 265.000 250.667 265.000 248.667 L 265.000 246.667 262.333 246.667 L 259.667 246.667 259.667 248.667 M109.833 249.443 C 105.124 250.998,102.986 254.288,104.074 258.302 C 104.870 261.239,106.994 262.764,112.500 264.350 C 117.145 265.688,118.458 266.357,118.997 267.660 C 121.005 272.507,111.473 274.297,108.618 269.609 C 107.841 268.334,107.817 268.323,106.167 268.511 C 102.288 268.955,102.278 268.964,103.300 271.167 C 106.446 277.947,120.805 278.433,123.983 271.868 C 126.604 266.453,123.856 262.683,115.473 260.193 C 111.246 258.938,110.009 258.258,109.535 256.929 C 108.067 252.811,115.929 251.273,117.972 255.279 L 118.618 256.545 121.202 256.268 C 124.280 255.938,124.068 256.091,123.592 254.541 C 122.277 250.255,115.254 247.653,109.833 249.443 M134.990 254.845 C 127.970 257.009,126.175 270.002,132.264 274.574 C 136.869 278.032,145.085 276.574,147.276 271.909 C 148.690 268.899,148.750 269.000,145.564 269.000 L 142.750 269.000 142.563 269.933 C 141.875 273.377,137.025 273.859,135.176 270.667 C 134.124 268.851,134.175 261.688,135.253 259.956 C 137.036 257.089,141.266 257.422,142.385 260.518 L 142.779 261.607 145.306 261.425 C 148.339 261.206,148.161 261.330,147.653 259.793 C 146.270 255.600,140.215 253.234,134.990 254.845 M184.108 254.794 C 175.547 257.589,174.816 272.114,183.058 275.660 C 192.187 279.587,200.155 271.701,197.535 261.333 C 196.135 255.795,190.078 252.845,184.108 254.794 M209.167 254.625 C 200.636 256.891,199.171 271.339,207.064 275.366 C 214.913 279.370,222.538 274.325,222.478 265.167 C 222.425 257.063,216.790 252.600,209.167 254.625 M282.402 254.945 C 274.035 257.928,273.612 272.170,281.785 275.686 C 286.095 277.540,292.444 276.107,294.801 272.748 C 296.015 271.018,295.829 270.797,292.977 270.584 C 290.984 270.435,290.760 270.483,290.477 271.127 C 288.628 275.336,281.667 272.243,281.667 267.211 L 281.667 266.333 289.000 266.333 C 297.342 266.333,296.576 266.694,295.984 263.043 C 294.875 256.212,288.878 252.636,282.402 254.945 M253.667 256.500 L 253.667 258.333 256.667 258.333 L 259.667 258.333 259.667 265.500 L 259.667 272.667 255.667 272.667 L 251.667 272.667 251.667 274.333 L 251.667 276.000 261.833 276.000 L 272.000 276.000 272.000 274.333 L 272.000 272.667 268.500 272.667 L 265.000 272.667 265.000 263.667 L 265.000 254.667 259.333 254.667 L 253.667 254.667 253.667 256.500 M289.351 258.850 C 290.230 259.692,290.993 261.421,290.998 262.583 C 291.000 262.897,289.845 263.000,286.333 263.000 C 281.171 263.000,281.177 263.003,282.022 260.772 C 283.196 257.674,287.065 256.660,289.351 258.850 M189.972 258.485 C 192.934 260.017,193.193 269.954,190.326 272.065 C 186.927 274.566,183.522 272.067,183.116 266.772 C 182.596 260.000,185.684 256.268,189.972 258.485 M214.674 258.557 C 217.879 260.451,217.683 270.630,214.407 272.383 C 209.863 274.815,206.325 269.018,207.986 261.859 C 208.751 258.561,211.981 256.966,214.674 258.557"/><path id="path1" fill="#3cc4cc" fill-rule="evenodd" stroke="none" d="M194.500 40.220 C 98.971 44.209,28.655 128.018,41.709 222.333 C 51.430 292.566,107.434 348.570,177.667 358.291 C 283.094 372.883,372.870 283.106,358.291 177.667 C 347.161 97.170,275.276 36.848,194.500 40.220 M220.000 107.500 L 220.000 110.000 200.000 110.000 L 180.000 110.000 180.000 107.500 L 180.000 105.000 200.000 105.000 L 220.000 105.000 220.000 107.500 M206.742 142.131 C 213.083 135.862,213.621 135.412,215.454 134.849 C 221.801 132.897,228.001 137.506,227.989 144.167 C 227.983 147.869,227.465 148.657,220.313 155.844 C 216.841 159.334,214.000 162.332,214.000 162.508 C 214.000 162.684,217.711 166.542,222.247 171.081 L 230.494 179.333 223.667 186.167 L 216.839 193.001 208.420 184.587 L 200.001 176.173 194.084 182.082 L 188.167 187.992 179.753 189.663 C 175.126 190.582,171.295 191.333,171.240 191.333 C 171.185 191.333,171.895 187.508,172.820 182.834 L 174.500 174.334 180.416 168.419 L 186.332 162.504 177.919 154.085 L 169.506 145.667 176.333 138.833 L 183.161 131.999 191.573 140.406 L 199.985 148.813 206.742 142.131 M179.501 142.338 L 176.168 145.666 182.917 152.415 L 189.666 159.164 193.081 155.749 L 196.495 152.334 193.748 149.587 L 191.001 146.840 189.305 148.536 L 187.609 150.232 185.912 148.438 L 184.215 146.643 185.846 144.987 L 187.478 143.330 185.332 141.165 C 182.724 138.534,183.459 138.386,179.501 142.338 M216.833 139.477 C 216.283 139.737,215.317 140.419,214.686 140.992 L 213.538 142.034 216.887 145.383 C 220.575 149.071,220.569 149.069,222.293 146.937 C 225.174 143.376,220.908 137.548,216.833 139.477 M195.896 159.717 L 181.958 173.715 183.444 174.699 C 184.916 175.674,186.861 177.642,188.186 179.495 L 188.872 180.455 202.186 167.123 C 209.509 159.790,215.791 153.457,216.147 153.049 L 216.794 152.307 213.487 148.987 C 211.668 147.161,210.101 145.679,210.006 145.693 C 209.911 145.708,203.561 152.019,195.896 159.717 M206.910 169.256 C 205.126 171.047,203.667 172.661,203.667 172.843 C 203.667 173.024,206.591 176.095,210.165 179.665 L 216.664 186.158 220.167 182.667 L 223.670 179.176 221.506 177.012 L 219.342 174.848 217.577 176.591 L 215.811 178.334 214.076 176.577 L 212.340 174.819 214.081 173.078 L 215.822 171.337 213.169 168.669 C 209.966 165.448,210.781 165.371,206.910 169.256 M178.103 181.250 C 177.718 183.221,177.454 184.888,177.518 184.955 C 177.675 185.122,183.898 183.936,184.359 183.651 C 185.135 183.171,183.135 180.493,180.664 178.703 C 178.759 177.323,178.897 177.186,178.103 181.250 M220.000 217.500 L 220.000 220.000 200.000 220.000 L 180.000 220.000 180.000 217.500 L 180.000 215.000 200.000 215.000 L 220.000 215.000 220.000 217.500 M159.333 252.166 L 159.333 257.998 160.917 256.375 C 163.689 253.534,168.336 253.269,170.875 255.808 C 172.704 257.637,173.000 259.390,173.000 268.394 L 173.000 276.333 170.167 276.333 C 168.136 276.333,167.326 276.215,167.308 275.917 C 167.294 275.688,167.245 272.275,167.198 268.333 C 167.091 259.319,166.853 258.667,163.665 258.667 C 160.279 258.667,159.333 261.153,159.333 270.061 L 159.333 276.333 156.500 276.333 L 153.667 276.333 153.667 261.333 L 153.667 246.333 156.500 246.333 L 159.333 246.333 159.333 252.166 M240.667 259.333 L 240.667 272.333 244.167 272.333 L 247.667 272.333 247.667 274.338 L 247.667 276.343 237.262 276.255 L 226.858 276.167 226.898 274.667 C 226.920 273.842,226.952 272.979,226.969 272.750 C 226.992 272.443,228.006 272.333,230.833 272.333 L 234.667 272.333 234.667 261.333 L 234.667 250.333 231.833 250.333 L 229.000 250.333 229.000 248.333 L 229.000 246.333 234.833 246.333 L 240.667 246.333 240.667 259.333 M265.266 248.583 L 265.365 250.667 262.349 250.667 L 259.333 250.667 259.333 248.487 L 259.333 246.307 262.250 246.404 L 265.167 246.500 265.266 248.583 M119.234 249.662 C 121.804 250.798,123.726 253.063,124.049 255.335 C 124.180 256.260,118.710 257.295,118.412 256.402 C 117.033 252.266,109.667 251.899,109.667 255.966 C 109.667 257.833,110.640 258.524,115.168 259.869 C 122.671 262.097,125.000 264.163,125.000 268.591 C 125.000 277.881,107.598 280.007,103.136 271.261 C 101.951 268.940,102.022 268.787,104.417 268.523 C 105.563 268.396,106.820 268.215,107.211 268.120 C 107.778 267.982,108.080 268.231,108.711 269.357 C 109.790 271.285,111.247 272.000,114.095 272.000 C 120.455 272.000,121.015 267.092,114.860 265.296 C 107.573 263.171,105.658 262.140,104.417 259.679 C 100.782 252.471,110.591 245.840,119.234 249.662 M143.301 255.025 C 145.335 255.924,146.583 257.144,147.539 259.167 C 148.725 261.675,148.732 261.667,145.400 261.667 L 142.467 261.667 142.042 260.492 C 141.317 258.486,138.672 257.594,136.653 258.674 C 133.904 260.145,133.726 269.588,136.405 271.842 C 138.650 273.732,142.667 271.901,142.667 268.987 C 142.667 268.676,143.343 268.626,145.417 268.783 C 146.929 268.897,148.204 268.993,148.250 268.995 C 149.409 269.059,146.700 273.782,144.822 274.973 C 138.697 278.858,130.690 276.186,128.854 269.645 C 125.946 259.283,134.152 250.979,143.301 255.025 M192.002 254.710 C 200.582 257.646,200.350 273.593,191.689 276.135 C 183.005 278.684,176.616 273.410,177.208 264.179 C 177.707 256.387,184.394 252.106,192.002 254.710 M217.360 255.043 C 225.318 258.467,224.560 273.447,216.294 276.116 C 208.108 278.760,201.831 274.002,201.849 265.167 C 201.867 256.352,209.231 251.546,217.360 255.043 M290.838 255.002 C 294.275 256.666,297.460 263.119,296.406 266.282 C 296.314 266.557,294.205 266.667,289.025 266.667 L 281.772 266.667 281.994 268.083 C 282.706 272.647,288.406 274.601,290.359 270.951 C 290.710 270.297,290.930 270.257,293.235 270.431 C 296.201 270.656,296.197 270.653,295.511 271.979 C 291.840 279.077,279.129 277.971,276.468 270.323 C 272.884 260.025,281.731 250.593,290.838 255.002 M265.255 263.417 L 265.344 272.333 268.839 272.333 L 272.333 272.333 272.333 274.333 L 272.333 276.333 261.833 276.333 L 251.333 276.333 251.333 274.333 L 251.333 272.333 255.333 272.333 L 259.333 272.333 259.333 265.407 L 259.333 258.480 256.583 258.490 L 253.833 258.500 253.734 256.409 L 253.634 254.317 259.401 254.409 L 265.167 254.500 265.255 263.417 M186.672 258.369 C 182.784 259.191,181.839 269.822,185.458 272.029 C 189.233 274.331,192.036 271.471,192.029 265.324 C 192.022 259.603,190.456 257.569,186.672 258.369 M211.833 258.260 C 208.953 258.739,208.224 259.995,208.054 264.770 C 207.860 270.188,208.839 272.247,211.765 272.577 C 215.045 272.946,216.390 271.185,216.604 266.236 C 216.859 260.338,215.274 257.687,211.833 258.260 M283.960 258.501 C 282.972 259.038,282.000 260.840,282.000 262.134 L 282.000 263.000 286.333 263.000 L 290.667 263.000 290.667 262.150 C 290.667 259.016,286.842 256.935,283.960 258.501"/><path id="path2" fill="#3c9cac" fill-rule="evenodd" stroke="none" d="M185.159 140.915 L 187.479 143.330 185.827 145.082 L 184.175 146.833 186.001 145.083 L 187.826 143.332 185.333 140.916 L 182.839 138.500 185.159 140.915 M216.745 145.495 C 220.232 149.059,220.338 149.136,220.912 148.511 C 221.475 147.897,221.475 147.889,220.897 148.326 C 220.351 148.738,219.952 148.449,216.730 145.309 L 213.167 141.837 216.745 145.495 M213.483 148.903 L 216.794 152.307 216.159 153.070 L 215.525 153.833 216.340 153.080 L 217.155 152.326 213.663 148.913 L 210.171 145.500 213.483 148.903 M193.667 149.500 C 195.217 151.058,196.560 152.333,196.652 152.333 C 196.744 152.333,195.550 151.058,194.000 149.500 C 192.450 147.942,191.106 146.667,191.015 146.667 C 190.923 146.667,192.116 147.942,193.667 149.500 M217.322 176.583 L 215.500 178.500 217.417 176.678 C 219.197 174.985,219.486 174.667,219.239 174.667 C 219.187 174.667,218.324 175.529,217.322 176.583 M223.330 186.250 L 216.500 193.167 223.417 186.336 C 227.221 182.580,230.333 179.467,230.333 179.420 C 230.333 179.183,229.677 179.823,223.330 186.250 M155.093 246.579 C 155.970 246.648,157.320 246.647,158.093 246.577 C 158.867 246.507,158.150 246.451,156.500 246.452 C 154.850 246.453,154.217 246.510,155.093 246.579 M234.561 246.583 C 240.182 246.680,240.292 246.696,240.432 247.424 C 240.554 248.051,240.583 248.024,240.621 247.250 L 240.667 246.333 234.750 246.408 L 228.833 246.483 234.561 246.583 M262.068 246.574 L 264.969 246.692 265.092 248.596 L 265.214 250.500 265.190 248.500 L 265.167 246.500 262.167 246.478 L 259.167 246.456 262.068 246.574 M114.254 248.902 C 114.669 248.982,115.269 248.979,115.587 248.896 C 115.906 248.812,115.567 248.747,114.833 248.751 C 114.100 248.754,113.839 248.823,114.254 248.902 M234.816 261.333 C 234.816 267.475,234.861 269.987,234.916 266.917 C 234.971 263.846,234.971 258.821,234.916 255.750 C 234.861 252.679,234.816 255.192,234.816 261.333 M137.755 254.239 C 138.261 254.316,139.011 254.314,139.421 254.235 C 139.831 254.156,139.417 254.093,138.500 254.095 C 137.583 254.098,137.248 254.163,137.755 254.239 M165.587 254.236 C 166.002 254.315,166.602 254.312,166.921 254.229 C 167.239 254.146,166.900 254.080,166.167 254.084 C 165.433 254.088,165.173 254.156,165.587 254.236 M186.750 254.239 C 187.254 254.315,188.079 254.315,188.583 254.239 C 189.088 254.162,188.675 254.100,187.667 254.100 C 186.658 254.100,186.246 254.162,186.750 254.239 M211.417 254.239 C 211.921 254.315,212.746 254.315,213.250 254.239 C 213.754 254.162,213.342 254.100,212.333 254.100 C 211.325 254.100,210.912 254.162,211.417 254.239 M285.417 254.239 C 285.921 254.315,286.746 254.315,287.250 254.239 C 287.754 254.162,287.342 254.100,286.333 254.100 C 285.325 254.100,284.912 254.162,285.417 254.239 M259.245 254.579 L 264.989 254.682 265.086 263.508 L 265.183 272.334 265.175 263.417 L 265.167 254.500 259.333 254.487 L 253.500 254.475 259.245 254.579 M204.479 257.083 L 203.500 258.167 204.583 257.188 C 205.593 256.275,205.820 256.000,205.562 256.000 C 205.505 256.000,205.017 256.487,204.479 257.083 M285.750 257.896 C 286.071 257.980,286.596 257.980,286.917 257.896 C 287.237 257.813,286.975 257.744,286.333 257.744 C 285.692 257.744,285.429 257.813,285.750 257.896 M148.000 260.977 C 148.000 261.147,147.662 261.352,147.250 261.431 C 146.607 261.555,146.631 261.582,147.417 261.621 C 148.029 261.652,148.333 261.501,148.333 261.167 C 148.333 260.892,148.258 260.667,148.167 260.667 C 148.075 260.667,148.000 260.806,148.000 260.977 M192.084 264.167 C 192.088 264.900,192.156 265.161,192.236 264.746 C 192.315 264.331,192.312 263.731,192.229 263.413 C 192.146 263.094,192.080 263.433,192.084 264.167 M198.107 265.333 C 198.107 266.525,198.167 267.012,198.241 266.417 C 198.315 265.821,198.315 264.846,198.241 264.250 C 198.167 263.654,198.107 264.142,198.107 265.333 M201.773 265.333 C 201.773 266.525,201.834 267.012,201.908 266.417 C 201.982 265.821,201.982 264.846,201.908 264.250 C 201.834 263.654,201.773 264.142,201.773 265.333 M207.773 265.333 C 207.773 266.525,207.834 267.012,207.908 266.417 C 207.982 265.821,207.982 264.846,207.908 264.250 C 207.834 263.654,207.773 264.142,207.773 265.333 M216.744 265.333 C 216.744 265.975,216.813 266.237,216.896 265.917 C 216.980 265.596,216.980 265.071,216.896 264.750 C 216.813 264.429,216.744 264.692,216.744 265.333 M192.077 266.667 C 192.077 267.308,192.146 267.571,192.230 267.250 C 192.314 266.929,192.314 266.404,192.230 266.083 C 192.146 265.762,192.077 266.025,192.077 266.667 M143.917 268.902 C 144.329 268.981,145.004 268.981,145.417 268.902 C 145.829 268.822,145.492 268.757,144.667 268.757 C 143.842 268.757,143.504 268.822,143.917 268.902 M113.587 272.236 C 114.002 272.315,114.602 272.312,114.921 272.229 C 115.239 272.146,114.900 272.080,114.167 272.084 C 113.433 272.088,113.173 272.156,113.587 272.236 M251.440 274.333 C 251.440 275.525,251.501 276.012,251.574 275.417 C 251.648 274.821,251.648 273.846,251.574 273.250 C 251.501 272.654,251.440 273.142,251.440 274.333"/><path id="path3" fill="#3c6c84" fill-rule="evenodd" stroke="none" d="M176.498 138.750 L 169.835 145.500 176.499 138.917 L 183.163 132.335 191.498 140.584 L 199.833 148.833 191.503 140.417 C 186.921 135.787,183.169 132.000,183.166 132.000 C 183.163 132.000,180.162 135.037,176.498 138.750 M208.827 140.083 L 205.500 143.500 208.917 140.173 C 210.796 138.343,212.333 136.806,212.333 136.756 C 212.333 136.515,211.917 136.910,208.827 140.083 M177.333 144.167 C 176.524 144.992,175.936 145.667,176.028 145.667 C 176.120 145.667,176.857 144.992,177.667 144.167 C 178.476 143.342,179.064 142.667,178.972 142.667 C 178.880 142.667,178.143 143.342,177.333 144.167 M177.833 154.000 C 182.414 158.583,186.237 162.333,186.328 162.333 C 186.420 162.333,182.747 158.583,178.167 154.000 C 173.586 149.417,169.763 145.667,169.672 145.667 C 169.580 145.667,173.253 149.417,177.833 154.000 M189.108 148.341 C 188.159 149.253,187.490 150.000,187.621 150.000 C 187.751 150.000,188.597 149.250,189.500 148.333 C 191.620 146.181,191.348 146.186,189.108 148.341 M219.663 156.250 L 213.500 162.500 219.750 156.337 C 223.188 152.947,226.000 150.134,226.000 150.087 C 226.000 149.849,225.390 150.443,219.663 156.250 M221.833 171.000 C 226.414 175.583,230.237 179.333,230.328 179.333 C 230.420 179.333,226.747 175.583,222.167 171.000 C 217.586 166.417,213.763 162.667,213.672 162.667 C 213.580 162.667,217.253 166.417,221.833 171.000 M206.661 169.250 L 203.167 172.833 206.730 169.359 C 209.982 166.189,210.346 165.927,210.897 166.359 C 211.448 166.792,211.460 166.783,211.043 166.250 C 210.380 165.406,210.468 165.346,206.661 169.250 M214.014 173.154 L 212.194 175.167 214.165 173.262 C 215.249 172.215,216.067 171.309,215.984 171.250 C 215.901 171.191,215.015 172.048,214.014 173.154 M193.815 182.002 C 190.505 185.301,187.878 188.000,187.978 188.000 C 188.078 188.000,190.824 185.339,194.080 182.086 L 200.001 176.173 208.417 184.503 L 216.833 192.833 208.503 184.417 C 203.921 179.787,200.096 176.001,200.003 176.002 C 199.909 176.004,197.125 178.704,193.815 182.002 M219.969 182.837 C 218.028 184.760,216.530 186.333,216.642 186.333 C 216.754 186.333,218.415 184.758,220.333 182.833 C 222.252 180.908,223.749 179.335,223.661 179.337 C 223.572 179.340,221.911 180.915,219.969 182.837 M229.103 248.500 C 229.105 249.600,229.167 250.010,229.242 249.411 C 229.316 248.812,229.314 247.912,229.238 247.411 C 229.162 246.910,229.101 247.400,229.103 248.500 M259.417 249.500 C 259.421 250.233,259.489 250.494,259.569 250.079 C 259.649 249.665,259.646 249.065,259.562 248.746 C 259.479 248.427,259.414 248.767,259.417 249.500 M159.095 256.167 C 159.098 257.083,159.163 257.419,159.239 256.912 C 159.316 256.405,159.314 255.655,159.235 255.245 C 159.156 254.835,159.093 255.250,159.095 256.167 M259.417 259.500 C 259.421 260.233,259.489 260.494,259.569 260.079 C 259.649 259.665,259.646 259.065,259.562 258.746 C 259.479 258.427,259.414 258.767,259.417 259.500 M144.417 261.563 C 144.737 261.647,145.262 261.647,145.583 261.563 C 145.904 261.479,145.642 261.411,145.000 261.411 C 144.358 261.411,144.096 261.479,144.417 261.563 M172.743 268.570 L 172.667 275.973 169.917 276.085 L 167.167 276.198 169.927 276.265 C 173.314 276.349,173.035 277.090,172.917 268.325 L 172.819 261.167 172.743 268.570 M128.437 265.500 C 128.438 266.600,128.501 267.010,128.575 266.411 C 128.649 265.812,128.648 264.912,128.572 264.411 C 128.495 263.910,128.435 264.400,128.437 265.500 M124.744 268.333 C 124.744 268.975,124.813 269.237,124.896 268.917 C 124.980 268.596,124.980 268.071,124.896 267.750 C 124.813 267.429,124.744 267.692,124.744 268.333 M259.333 271.656 C 259.333 272.265,259.054 272.320,255.417 272.418 L 251.500 272.523 255.583 272.595 L 259.667 272.667 259.667 271.833 C 259.667 271.375,259.592 271.000,259.500 271.000 C 259.408 271.000,259.333 271.295,259.333 271.656 M240.333 272.417 C 240.333 272.554,241.908 272.667,243.833 272.667 L 247.333 272.667 247.333 274.329 L 247.333 275.990 237.083 276.086 L 226.833 276.182 237.167 276.174 L 247.500 276.167 247.500 274.333 L 247.500 272.500 243.916 272.333 C 241.945 272.242,240.332 272.279,240.333 272.417 M228.917 272.580 C 230.063 272.645,231.938 272.645,233.083 272.580 C 234.229 272.515,233.292 272.462,231.000 272.462 C 228.708 272.462,227.771 272.515,228.917 272.580 M266.762 272.580 C 267.823 272.646,269.473 272.646,270.429 272.579 C 271.385 272.512,270.517 272.457,268.500 272.458 C 266.483 272.459,265.701 272.514,266.762 272.580 M187.083 272.896 C 187.404 272.980,187.929 272.980,188.250 272.896 C 188.571 272.813,188.308 272.744,187.667 272.744 C 187.025 272.744,186.762 272.813,187.083 272.896 M155.093 276.245 C 155.970 276.314,157.320 276.313,158.093 276.244 C 158.867 276.174,158.150 276.117,156.500 276.118 C 154.850 276.119,154.217 276.177,155.093 276.245 M256.771 276.249 C 259.670 276.305,264.320 276.305,267.104 276.249 C 269.889 276.194,267.517 276.148,261.833 276.148 C 256.150 276.148,253.872 276.194,256.771 276.249"/><path id="path4" fill="#3cbcc4" fill-rule="evenodd" stroke="none" d="M191.928 40.246 C 192.896 40.314,194.396 40.313,195.261 40.245 C 196.126 40.176,195.333 40.121,193.500 40.122 C 191.667 40.123,190.959 40.179,191.928 40.246 M204.928 40.246 C 205.896 40.314,207.396 40.313,208.261 40.245 C 209.126 40.176,208.333 40.121,206.500 40.122 C 204.667 40.123,203.959 40.179,204.928 40.246 M186.750 40.572 C 187.254 40.648,188.079 40.648,188.583 40.572 C 189.088 40.496,188.675 40.433,187.667 40.433 C 186.658 40.433,186.246 40.496,186.750 40.572 M211.417 40.572 C 211.921 40.648,212.746 40.648,213.250 40.572 C 213.754 40.496,213.342 40.433,212.333 40.433 C 211.325 40.433,210.912 40.496,211.417 40.572 M182.917 40.902 C 183.329 40.981,184.004 40.981,184.417 40.902 C 184.829 40.822,184.492 40.757,183.667 40.757 C 182.842 40.757,182.504 40.822,182.917 40.902 M215.583 40.902 C 215.996 40.981,216.671 40.981,217.083 40.902 C 217.496 40.822,217.158 40.757,216.333 40.757 C 215.508 40.757,215.171 40.822,215.583 40.902 M180.083 41.230 C 180.404 41.314,180.929 41.314,181.250 41.230 C 181.571 41.146,181.308 41.077,180.667 41.077 C 180.025 41.077,179.762 41.146,180.083 41.230 M218.750 41.230 C 219.071 41.314,219.596 41.314,219.917 41.230 C 220.237 41.146,219.975 41.077,219.333 41.077 C 218.692 41.077,218.429 41.146,218.750 41.230 M157.167 45.667 C 156.746 45.847,156.685 45.953,157.000 45.953 C 157.275 45.953,157.800 45.824,158.167 45.667 C 158.587 45.486,158.648 45.380,158.333 45.380 C 158.058 45.380,157.533 45.509,157.167 45.667 M241.833 45.667 C 242.200 45.824,242.725 45.953,243.000 45.953 C 243.315 45.953,243.254 45.847,242.833 45.667 C 242.467 45.509,241.942 45.380,241.667 45.380 C 241.352 45.380,241.413 45.486,241.833 45.667 M154.833 46.333 C 154.413 46.514,154.352 46.620,154.667 46.620 C 154.942 46.620,155.467 46.491,155.833 46.333 C 156.254 46.153,156.315 46.047,156.000 46.047 C 155.725 46.047,155.200 46.176,154.833 46.333 M151.000 47.500 C 150.358 47.747,150.058 47.949,150.333 47.949 C 150.608 47.949,151.358 47.747,152.000 47.500 C 152.642 47.253,152.942 47.051,152.667 47.051 C 152.392 47.051,151.642 47.253,151.000 47.500 M247.500 47.333 C 247.867 47.491,248.392 47.620,248.667 47.620 C 248.982 47.620,248.920 47.514,248.500 47.333 C 248.133 47.176,247.608 47.047,247.333 47.047 C 247.018 47.047,247.080 47.153,247.500 47.333 M146.729 48.894 C 145.939 49.174,145.351 49.462,145.423 49.534 C 145.575 49.686,148.667 48.671,148.667 48.469 C 148.667 48.260,148.287 48.343,146.729 48.894 M252.167 48.796 C 252.717 49.046,253.542 49.343,254.000 49.455 C 254.669 49.620,254.636 49.570,253.833 49.204 C 253.283 48.954,252.458 48.657,252.000 48.545 C 251.331 48.380,251.364 48.430,252.167 48.796 M136.000 53.167 C 135.542 53.429,135.317 53.643,135.500 53.643 C 135.683 53.643,136.208 53.429,136.667 53.167 C 137.125 52.905,137.350 52.690,137.167 52.690 C 136.983 52.690,136.458 52.905,136.000 53.167 M263.333 53.167 C 263.792 53.429,264.317 53.643,264.500 53.643 C 264.683 53.643,264.458 53.429,264.000 53.167 C 263.542 52.905,263.017 52.690,262.833 52.690 C 262.650 52.690,262.875 52.905,263.333 53.167 M132.333 54.833 C 131.508 55.275,130.983 55.637,131.167 55.637 C 131.350 55.637,132.175 55.275,133.000 54.833 C 133.825 54.392,134.350 54.030,134.167 54.030 C 133.983 54.030,133.158 54.392,132.333 54.833 M267.000 54.833 C 267.825 55.275,268.650 55.637,268.833 55.637 C 269.017 55.637,268.492 55.275,267.667 54.833 C 266.842 54.392,266.017 54.030,265.833 54.030 C 265.650 54.030,266.175 54.392,267.000 54.833 M124.583 58.688 C 123.529 59.232,122.667 59.752,122.667 59.843 C 122.667 59.935,123.567 59.555,124.667 59.000 C 125.767 58.445,126.667 57.918,126.667 57.829 C 126.667 57.606,126.728 57.581,124.583 58.688 M273.333 57.824 C 273.333 57.915,274.233 58.445,275.333 59.000 C 276.433 59.555,277.333 59.935,277.333 59.843 C 277.333 59.751,276.433 59.222,275.333 58.667 C 274.233 58.111,273.333 57.732,273.333 57.824 M121.250 60.524 C 120.004 61.200,120.080 61.482,121.333 60.833 C 121.883 60.549,122.333 60.245,122.333 60.158 C 122.333 59.944,122.298 59.956,121.250 60.524 M277.667 60.150 C 277.667 60.241,278.117 60.549,278.667 60.833 C 279.217 61.118,279.667 61.275,279.667 61.184 C 279.667 61.092,279.217 60.784,278.667 60.500 C 278.117 60.216,277.667 60.058,277.667 60.150 M118.917 61.857 C 117.671 62.533,117.746 62.815,119.000 62.167 C 119.550 61.882,120.000 61.578,120.000 61.491 C 120.000 61.277,119.964 61.289,118.917 61.857 M280.000 61.483 C 280.000 61.575,280.450 61.882,281.000 62.167 C 281.550 62.451,282.000 62.609,282.000 62.517 C 282.000 62.425,281.550 62.118,281.000 61.833 C 280.450 61.549,280.000 61.391,280.000 61.483 M116.417 63.372 C 115.280 64.099,114.913 64.588,115.917 64.036 C 116.681 63.616,117.880 62.689,117.667 62.683 C 117.575 62.680,117.013 62.990,116.417 63.372 M282.833 63.173 C 283.200 63.471,283.800 63.863,284.167 64.043 L 284.833 64.370 284.167 63.827 C 283.800 63.529,283.200 63.137,282.833 62.957 L 282.167 62.630 282.833 63.173 M111.081 66.838 C 109.020 68.215,107.333 69.418,107.333 69.512 C 107.333 69.677,114.184 65.201,114.817 64.623 C 115.625 63.883,114.534 64.531,111.081 66.838 M285.645 64.937 C 286.091 65.299,286.916 65.849,287.478 66.159 L 288.500 66.722 287.689 66.063 C 287.242 65.701,286.417 65.151,285.855 64.841 L 284.833 64.278 285.645 64.937 M289.667 67.468 C 289.667 67.560,290.342 68.099,291.167 68.667 C 291.992 69.234,292.667 69.624,292.667 69.532 C 292.667 69.440,291.992 68.901,291.167 68.333 C 290.342 67.766,289.667 67.376,289.667 67.468 M103.333 72.342 C 98.095 76.335,93.007 80.754,87.993 85.667 L 83.500 90.069 87.833 85.985 C 93.411 80.728,98.546 76.320,103.250 72.750 C 106.545 70.249,107.253 69.655,106.917 69.671 C 106.871 69.673,105.258 70.875,103.333 72.342 M293.000 69.772 C 293.000 69.853,294.162 70.771,295.583 71.812 C 297.004 72.853,297.669 73.265,297.061 72.727 C 295.743 71.560,293.000 69.564,293.000 69.772 M298.333 73.764 C 298.333 73.841,299.496 74.852,300.917 76.009 C 302.337 77.166,303.226 77.801,302.892 77.420 C 302.223 76.657,298.333 73.537,298.333 73.764 M303.667 78.104 C 303.667 78.162,304.154 78.649,304.750 79.188 L 305.833 80.167 304.854 79.083 C 303.942 78.074,303.667 77.847,303.667 78.104 M307.667 81.833 C 308.662 82.842,309.552 83.667,309.644 83.667 C 309.736 83.667,308.996 82.842,308.000 81.833 C 307.004 80.825,306.114 80.000,306.023 80.000 C 305.931 80.000,306.671 80.825,307.667 81.833 M314.582 88.500 C 321.383 95.811,322.331 96.784,319.960 94.018 C 318.790 92.653,316.055 89.728,313.882 87.518 C 309.996 83.565,310.007 83.581,314.582 88.500 M82.667 90.994 C 82.392 91.344,81.214 92.689,80.049 93.982 C 78.884 95.275,77.995 96.333,78.072 96.333 C 78.149 96.333,79.450 94.983,80.963 93.333 C 82.477 91.683,83.591 90.339,83.441 90.346 C 83.290 90.353,82.942 90.644,82.667 90.994 M76.124 98.583 C 75.247 99.638,74.312 100.763,74.046 101.083 C 73.781 101.404,73.640 101.667,73.734 101.667 C 73.828 101.667,74.828 100.542,75.957 99.167 C 77.085 97.792,77.943 96.667,77.863 96.667 C 77.784 96.667,77.001 97.529,76.124 98.583 M323.991 99.083 C 325.148 100.504,326.159 101.667,326.236 101.667 C 326.463 101.667,323.343 97.777,322.580 97.108 C 322.199 96.774,322.834 97.662,323.991 99.083 M71.796 104.083 C 70.929 105.229,70.077 106.354,69.902 106.583 C 69.728 106.813,69.660 107.000,69.752 107.000 C 69.844 107.000,70.766 105.875,71.801 104.500 C 72.836 103.125,73.613 102.000,73.527 102.000 C 73.442 102.000,72.663 102.938,71.796 104.083 M327.642 103.750 C 328.433 104.804,329.146 105.667,329.227 105.667 C 329.455 105.667,327.262 102.688,326.701 102.235 C 326.427 102.014,326.851 102.696,327.642 103.750 M68.333 108.833 C 67.766 109.658,67.376 110.333,67.468 110.333 C 67.560 110.333,68.099 109.658,68.667 108.833 C 69.234 108.008,69.624 107.333,69.532 107.333 C 69.440 107.333,68.901 108.008,68.333 108.833 M331.667 109.333 C 332.058 109.883,332.454 110.333,332.545 110.333 C 332.637 110.333,332.392 109.883,332.000 109.333 C 331.608 108.783,331.213 108.333,331.121 108.333 C 331.030 108.333,331.275 108.783,331.667 109.333 M333.185 111.583 C 334.966 114.329,335.437 115.000,335.583 115.000 C 335.671 115.000,335.476 114.587,335.149 114.083 C 333.367 111.337,332.896 110.667,332.751 110.667 C 332.662 110.667,332.858 111.079,333.185 111.583 M65.872 112.500 C 65.576 112.958,65.091 113.746,64.794 114.250 L 64.254 115.167 64.925 114.355 C 65.717 113.397,66.767 111.667,66.557 111.667 C 66.476 111.667,66.168 112.042,65.872 112.500 M63.794 115.750 C 62.646 117.697,62.572 117.863,63.156 117.167 C 63.833 116.360,64.417 115.333,64.198 115.333 C 64.111 115.333,63.929 115.521,63.794 115.750 M335.957 115.833 C 336.137 116.200,336.529 116.800,336.827 117.167 L 337.370 117.833 337.043 117.167 C 336.863 116.800,336.471 116.200,336.173 115.833 L 335.630 115.167 335.957 115.833 M61.833 119.000 C 61.549 119.550,61.391 120.000,61.483 120.000 C 61.575 120.000,61.882 119.550,62.167 119.000 C 62.451 118.450,62.609 118.000,62.517 118.000 C 62.425 118.000,62.118 118.450,61.833 119.000 M337.833 119.000 C 338.118 119.550,338.425 120.000,338.517 120.000 C 338.609 120.000,338.451 119.550,338.167 119.000 C 337.882 118.450,337.575 118.000,337.483 118.000 C 337.391 118.000,337.549 118.450,337.833 119.000 M60.500 121.333 C 60.216 121.883,60.058 122.333,60.150 122.333 C 60.241 122.333,60.549 121.883,60.833 121.333 C 61.118 120.783,61.275 120.333,61.184 120.333 C 61.092 120.333,60.784 120.783,60.500 121.333 M339.167 121.333 C 339.451 121.883,339.759 122.333,339.850 122.333 C 339.942 122.333,339.784 121.883,339.500 121.333 C 339.216 120.783,338.908 120.333,338.816 120.333 C 338.725 120.333,338.882 120.783,339.167 121.333 M58.667 124.667 C 58.111 125.767,57.732 126.667,57.824 126.667 C 57.915 126.667,58.445 125.767,59.000 124.667 C 59.555 123.567,59.935 122.667,59.843 122.667 C 59.751 122.667,59.222 123.567,58.667 124.667 M341.000 124.667 C 341.555 125.767,342.085 126.667,342.176 126.667 C 342.268 126.667,341.889 125.767,341.333 124.667 C 340.778 123.567,340.249 122.667,340.157 122.667 C 340.065 122.667,340.445 123.567,341.000 124.667 M54.730 132.516 C 53.725 134.583,53.837 134.872,54.872 132.884 C 55.334 131.995,55.656 131.211,55.586 131.141 C 55.516 131.072,55.131 131.690,54.730 132.516 M344.363 131.167 C 344.363 131.350,344.725 132.175,345.167 133.000 C 345.608 133.825,345.970 134.350,345.970 134.167 C 345.970 133.983,345.608 133.158,345.167 132.333 C 344.725 131.508,344.363 130.983,344.363 131.167 M53.054 136.181 C 52.496 137.407,52.602 137.668,53.206 136.554 C 53.488 136.033,53.656 135.545,53.580 135.469 C 53.504 135.393,53.267 135.713,53.054 136.181 M48.872 146.872 C 48.577 147.738,48.393 148.504,48.463 148.575 C 48.534 148.645,48.833 147.994,49.128 147.128 C 49.423 146.262,49.607 145.496,49.537 145.425 C 49.466 145.355,49.167 146.006,48.872 146.872 M350.545 146.000 C 350.657 146.458,350.954 147.283,351.204 147.833 C 351.570 148.636,351.620 148.669,351.455 148.000 C 351.343 147.542,351.046 146.717,350.796 146.167 C 350.430 145.364,350.380 145.331,350.545 146.000 M47.364 151.364 C 47.138 152.116,47.015 152.793,47.090 152.868 C 47.165 152.943,47.411 152.389,47.636 151.636 C 47.862 150.884,47.985 150.207,47.910 150.132 C 47.835 150.057,47.589 150.611,47.364 151.364 M352.051 150.333 C 352.051 150.608,352.253 151.358,352.500 152.000 C 352.747 152.642,352.949 152.942,352.949 152.667 C 352.949 152.392,352.747 151.642,352.500 151.000 C 352.253 150.358,352.051 150.058,352.051 150.333 M45.524 157.524 C 45.401 158.012,45.365 158.476,45.444 158.555 C 45.522 158.633,45.687 158.298,45.810 157.810 C 45.932 157.321,45.968 156.857,45.890 156.778 C 45.811 156.700,45.646 157.035,45.524 157.524 M43.852 164.185 C 43.726 164.854,43.690 165.468,43.772 165.550 C 43.853 165.631,44.023 165.150,44.148 164.481 C 44.274 163.813,44.310 163.199,44.228 163.117 C 44.147 163.036,43.977 163.516,43.852 164.185 M355.733 163.500 C 355.733 163.867,355.853 164.542,356.000 165.000 C 356.211 165.660,356.267 165.695,356.267 165.167 C 356.267 164.800,356.147 164.125,356.000 163.667 C 355.789 163.007,355.733 162.972,355.733 163.500 M41.077 180.667 C 41.077 181.308,41.146 181.571,41.230 181.250 C 41.314 180.929,41.314 180.404,41.230 180.083 C 41.146 179.762,41.077 180.025,41.077 180.667 M358.744 180.667 C 358.744 181.308,358.813 181.571,358.896 181.250 C 358.980 180.929,358.980 180.404,358.896 180.083 C 358.813 179.762,358.744 180.025,358.744 180.667 M40.757 183.667 C 40.757 184.492,40.822 184.829,40.902 184.417 C 40.981 184.004,40.981 183.329,40.902 182.917 C 40.822 182.504,40.757 182.842,40.757 183.667 M359.091 183.667 C 359.091 184.492,359.156 184.829,359.235 184.417 C 359.315 184.004,359.315 183.329,359.235 182.917 C 359.156 182.504,359.091 182.842,359.091 183.667 M40.433 187.667 C 40.433 188.675,40.496 189.088,40.572 188.583 C 40.648 188.079,40.648 187.254,40.572 186.750 C 40.496 186.246,40.433 186.658,40.433 187.667 M359.433 187.667 C 359.433 188.675,359.496 189.088,359.572 188.583 C 359.648 188.079,359.648 187.254,359.572 186.750 C 359.496 186.246,359.433 186.658,359.433 187.667 M40.122 193.500 C 40.123 195.333,40.179 196.041,40.246 195.072 C 40.314 194.104,40.313 192.604,40.245 191.739 C 40.176 190.874,40.121 191.667,40.122 193.500 M359.788 193.500 C 359.789 195.333,359.845 196.041,359.913 195.072 C 359.980 194.104,359.980 192.604,359.911 191.739 C 359.843 190.874,359.788 191.667,359.788 193.500 M40.122 206.500 C 40.123 208.333,40.179 209.041,40.246 208.072 C 40.314 207.104,40.313 205.604,40.245 204.739 C 40.176 203.874,40.121 204.667,40.122 206.500 M359.788 206.500 C 359.789 208.333,359.845 209.041,359.913 208.072 C 359.980 207.104,359.980 205.604,359.911 204.739 C 359.843 203.874,359.788 204.667,359.788 206.500 M40.433 212.333 C 40.433 213.342,40.496 213.754,40.572 213.250 C 40.648 212.746,40.648 211.921,40.572 211.417 C 40.496 210.912,40.433 211.325,40.433 212.333 M359.433 212.333 C 359.433 213.342,359.496 213.754,359.572 213.250 C 359.648 212.746,359.648 211.921,359.572 211.417 C 359.496 210.912,359.433 211.325,359.433 212.333 M40.757 216.333 C 40.757 217.158,40.822 217.496,40.902 217.083 C 40.981 216.671,40.981 215.996,40.902 215.583 C 40.822 215.171,40.757 215.508,40.757 216.333 M359.091 216.333 C 359.091 217.158,359.156 217.496,359.235 217.083 C 359.315 216.671,359.315 215.996,359.235 215.583 C 359.156 215.171,359.091 215.508,359.091 216.333 M41.077 219.333 C 41.077 219.975,41.146 220.237,41.230 219.917 C 41.314 219.596,41.314 219.071,41.230 218.750 C 41.146 218.429,41.077 218.692,41.077 219.333 M358.744 219.333 C 358.744 219.975,358.813 220.237,358.896 219.917 C 358.980 219.596,358.980 219.071,358.896 218.750 C 358.813 218.429,358.744 218.692,358.744 219.333 M46.047 244.000 C 46.047 244.275,46.176 244.800,46.333 245.167 C 46.514 245.587,46.620 245.648,46.620 245.333 C 46.620 245.058,46.491 244.533,46.333 244.167 C 46.153 243.746,46.047 243.685,46.047 244.000 M353.524 244.524 C 353.401 245.012,353.365 245.476,353.444 245.555 C 353.522 245.633,353.687 245.298,353.810 244.810 C 353.932 244.321,353.968 243.857,353.890 243.778 C 353.811 243.700,353.646 244.035,353.524 244.524 M47.051 247.333 C 47.051 247.608,47.253 248.358,47.500 249.000 C 47.747 249.642,47.949 249.942,47.949 249.667 C 47.949 249.392,47.747 248.642,47.500 248.000 C 47.253 247.358,47.051 247.058,47.051 247.333 M352.364 248.364 C 352.138 249.116,352.015 249.793,352.090 249.868 C 352.165 249.943,352.411 249.389,352.636 248.636 C 352.862 247.884,352.985 247.207,352.910 247.132 C 352.835 247.057,352.589 247.611,352.364 248.364 M350.872 252.872 C 350.577 253.738,350.393 254.504,350.463 254.575 C 350.534 254.645,350.833 253.994,351.128 253.128 C 351.423 252.262,351.607 251.496,351.537 251.425 C 351.466 251.355,351.167 252.006,350.872 252.872 M48.858 253.000 C 48.980 253.458,49.220 254.058,49.390 254.333 C 49.604 254.681,49.631 254.579,49.476 254.000 C 49.353 253.542,49.114 252.942,48.944 252.667 C 48.729 252.319,48.703 252.421,48.858 253.000 M52.690 262.833 C 52.690 263.017,52.905 263.542,53.167 264.000 C 53.429 264.458,53.643 264.683,53.643 264.500 C 53.643 264.317,53.429 263.792,53.167 263.333 C 52.905 262.875,52.690 262.650,52.690 262.833 M346.721 263.514 C 346.162 264.740,346.269 265.002,346.873 263.887 C 347.155 263.367,347.323 262.879,347.247 262.802 C 347.171 262.726,346.934 263.047,346.721 263.514 M54.030 265.833 C 54.030 266.017,54.392 266.842,54.833 267.667 C 55.275 268.492,55.637 269.017,55.637 268.833 C 55.637 268.650,55.275 267.825,54.833 267.000 C 54.392 266.175,54.030 265.650,54.030 265.833 M345.063 267.183 C 344.059 269.250,344.171 269.539,345.205 267.551 C 345.668 266.662,345.989 265.878,345.919 265.808 C 345.849 265.738,345.464 266.357,345.063 267.183 M58.500 275.000 C 58.965 275.917,59.420 276.667,59.511 276.667 C 59.603 276.667,59.298 275.917,58.833 275.000 C 58.369 274.083,57.914 273.333,57.822 273.333 C 57.730 273.333,58.035 274.083,58.500 275.000 M341.167 275.000 C 340.702 275.917,340.397 276.667,340.489 276.667 C 340.580 276.667,341.035 275.917,341.500 275.000 C 341.965 274.083,342.270 273.333,342.178 273.333 C 342.086 273.333,341.631 274.083,341.167 275.000 M60.500 278.667 C 60.784 279.217,61.092 279.667,61.184 279.667 C 61.275 279.667,61.118 279.217,60.833 278.667 C 60.549 278.117,60.241 277.667,60.150 277.667 C 60.058 277.667,60.216 278.117,60.500 278.667 M339.167 278.667 C 338.882 279.217,338.725 279.667,338.816 279.667 C 338.908 279.667,339.216 279.217,339.500 278.667 C 339.784 278.117,339.942 277.667,339.850 277.667 C 339.759 277.667,339.451 278.117,339.167 278.667 M61.833 281.000 C 62.118 281.550,62.425 282.000,62.517 282.000 C 62.609 282.000,62.451 281.550,62.167 281.000 C 61.882 280.450,61.575 280.000,61.483 280.000 C 61.391 280.000,61.549 280.450,61.833 281.000 M336.960 282.417 C 336.742 282.829,336.345 283.542,336.080 284.000 C 335.616 284.799,335.619 284.806,336.157 284.167 C 336.821 283.377,337.754 281.667,337.520 281.667 C 337.430 281.667,337.178 282.004,336.960 282.417 M62.957 282.833 C 63.137 283.200,63.529 283.800,63.827 284.167 L 64.370 284.833 64.043 284.167 C 63.863 283.800,63.471 283.200,63.173 282.833 L 62.630 282.167 62.957 282.833 M64.851 285.917 C 66.633 288.663,67.104 289.333,67.249 289.333 C 67.338 289.333,67.142 288.921,66.815 288.417 C 65.034 285.671,64.563 285.000,64.417 285.000 C 64.329 285.000,64.524 285.412,64.851 285.917 M334.872 285.833 C 334.576 286.292,334.091 287.079,333.794 287.583 L 333.254 288.500 333.925 287.689 C 334.717 286.730,335.767 285.000,335.557 285.000 C 335.476 285.000,335.168 285.375,334.872 285.833 M68.333 291.167 C 68.901 291.992,69.440 292.667,69.532 292.667 C 69.624 292.667,69.234 291.992,68.667 291.167 C 68.099 290.342,67.560 289.667,67.468 289.667 C 67.376 289.667,67.766 290.342,68.333 291.167 M331.333 291.167 C 330.766 291.992,330.376 292.667,330.468 292.667 C 330.560 292.667,331.099 291.992,331.667 291.167 C 332.234 290.342,332.624 289.667,332.532 289.667 C 332.440 289.667,331.901 290.342,331.333 291.167 M70.729 294.543 C 74.594 299.943,84.350 311.143,88.694 315.167 C 89.486 315.900,88.281 314.550,86.017 312.167 C 80.826 306.702,76.393 301.551,72.750 296.750 C 69.912 293.011,68.633 291.614,70.729 294.543 M327.642 296.250 C 326.851 297.304,326.427 297.986,326.701 297.765 C 327.262 297.312,329.455 294.333,329.227 294.333 C 329.146 294.333,328.433 295.196,327.642 296.250 M323.991 300.917 C 322.834 302.337,322.199 303.226,322.580 302.892 C 323.343 302.223,326.463 298.333,326.236 298.333 C 326.159 298.333,325.148 299.496,323.991 300.917 M320.812 304.750 L 319.833 305.833 320.917 304.854 C 321.512 304.316,322.000 303.828,322.000 303.771 C 322.000 303.513,321.725 303.740,320.812 304.750 M314.667 311.343 C 312.008 314.098,309.911 316.348,310.006 316.343 C 310.310 316.326,319.942 306.333,319.654 306.334 C 319.569 306.334,317.325 308.588,314.667 311.343 M90.333 316.463 C 90.333 316.636,92.094 318.310,94.917 320.818 C 95.696 321.511,96.333 322.012,96.333 321.933 C 96.333 321.853,94.983 320.550,93.333 319.037 C 91.683 317.523,90.333 316.365,90.333 316.463 M306.333 319.392 C 303.792 321.811,303.740 321.882,305.833 320.082 C 308.029 318.193,309.605 316.649,309.302 316.681 C 309.227 316.689,307.892 317.909,306.333 319.392 M97.108 322.580 C 97.777 323.343,101.667 326.463,101.667 326.236 C 101.667 326.159,100.504 325.148,99.083 323.991 C 97.662 322.834,96.774 322.199,97.108 322.580 M301.004 323.868 C 298.077 326.336,297.723 326.787,300.225 324.860 C 302.058 323.448,303.670 321.961,303.302 322.022 C 303.227 322.035,302.194 322.865,301.004 323.868 M102.939 327.273 C 104.257 328.440,107.000 330.436,107.000 330.228 C 107.000 330.147,105.837 329.229,104.417 328.188 C 102.996 327.147,102.331 326.735,102.939 327.273 M296.333 327.541 C 294.195 329.213,293.887 329.635,295.765 328.319 C 297.166 327.337,298.321 326.300,297.957 326.350 C 297.889 326.360,297.158 326.896,296.333 327.541 M291.083 331.366 C 290.304 331.918,289.667 332.444,289.667 332.534 C 289.667 332.625,290.342 332.234,291.167 331.667 C 291.992 331.099,292.667 330.567,292.667 330.484 C 292.667 330.255,292.603 330.290,291.083 331.366 M108.333 331.149 C 108.333 331.241,109.646 332.193,111.250 333.265 C 114.496 335.434,115.348 335.948,114.833 335.427 C 114.310 334.896,108.333 330.963,108.333 331.149 M287.329 333.878 C 285.344 335.193,284.208 336.175,285.833 335.171 C 288.563 333.486,289.679 332.667,289.246 332.667 C 289.197 332.667,288.335 333.212,287.329 333.878 M115.916 336.210 C 116.792 336.938,120.000 338.777,120.000 338.551 C 120.000 338.466,119.287 337.983,118.417 337.477 C 117.546 336.970,116.458 336.338,116.000 336.072 L 115.167 335.588 115.916 336.210 M283.417 336.372 C 282.280 337.099,281.913 337.588,282.917 337.036 C 283.681 336.616,284.880 335.689,284.667 335.683 C 284.575 335.680,284.012 335.990,283.417 336.372 M280.917 337.857 C 279.671 338.533,279.746 338.815,281.000 338.167 C 281.550 337.882,282.000 337.578,282.000 337.491 C 282.000 337.277,281.964 337.289,280.917 337.857 M120.333 338.816 C 120.333 338.908,120.783 339.216,121.333 339.500 C 121.883 339.784,122.333 339.942,122.333 339.850 C 122.333 339.759,121.883 339.451,121.333 339.167 C 120.783 338.882,120.333 338.725,120.333 338.816 M278.583 339.191 C 277.337 339.867,277.413 340.148,278.667 339.500 C 279.217 339.216,279.667 338.912,279.667 338.825 C 279.667 338.610,279.631 338.622,278.583 339.191 M275.250 341.021 C 274.196 341.565,273.333 342.085,273.333 342.177 C 273.333 342.268,274.233 341.889,275.333 341.333 C 276.433 340.778,277.333 340.251,277.333 340.162 C 277.333 339.940,277.395 339.914,275.250 341.021 M123.333 340.489 C 123.333 340.580,124.083 341.035,125.000 341.500 C 125.917 341.965,126.667 342.270,126.667 342.178 C 126.667 342.086,125.917 341.631,125.000 341.167 C 124.083 340.702,123.333 340.397,123.333 340.489 M132.333 345.167 C 133.158 345.608,133.983 345.970,134.167 345.970 C 134.350 345.970,133.825 345.608,133.000 345.167 C 132.175 344.725,131.350 344.363,131.167 344.363 C 130.983 344.363,131.508 344.725,132.333 345.167 M267.000 345.167 C 266.175 345.608,265.650 345.970,265.833 345.970 C 266.017 345.970,266.842 345.608,267.667 345.167 C 268.492 344.725,269.017 344.363,268.833 344.363 C 268.650 344.363,267.825 344.725,267.000 345.167 M136.000 346.833 C 136.458 347.095,136.983 347.310,137.167 347.310 C 137.350 347.310,137.125 347.095,136.667 346.833 C 136.208 346.571,135.683 346.357,135.500 346.357 C 135.317 346.357,135.542 346.571,136.000 346.833 M263.333 346.833 C 262.875 347.095,262.650 347.310,262.833 347.310 C 263.017 347.310,263.542 347.095,264.000 346.833 C 264.458 346.571,264.683 346.357,264.500 346.357 C 264.317 346.357,263.792 346.571,263.333 346.833 M146.167 350.796 C 146.717 351.046,147.542 351.343,148.000 351.455 C 148.669 351.620,148.636 351.570,147.833 351.204 C 147.283 350.954,146.458 350.657,146.000 350.545 C 145.331 350.380,145.364 350.430,146.167 350.796 M252.729 350.894 C 251.939 351.174,251.351 351.462,251.423 351.534 C 251.575 351.686,254.667 350.671,254.667 350.469 C 254.667 350.260,254.287 350.343,252.729 350.894 M151.000 352.500 C 151.642 352.747,152.392 352.949,152.667 352.949 C 152.942 352.949,152.642 352.747,152.000 352.500 C 151.358 352.253,150.608 352.051,150.333 352.051 C 150.058 352.051,150.358 352.253,151.000 352.500 M248.000 352.500 C 247.358 352.747,247.058 352.949,247.333 352.949 C 247.608 352.949,248.358 352.747,249.000 352.500 C 249.642 352.253,249.942 352.051,249.667 352.051 C 249.392 352.051,248.642 352.253,248.000 352.500 M154.833 353.667 C 155.200 353.824,155.725 353.953,156.000 353.953 C 156.315 353.953,156.254 353.847,155.833 353.667 C 155.467 353.509,154.942 353.380,154.667 353.380 C 154.352 353.380,154.413 353.486,154.833 353.667 M244.167 353.667 C 243.746 353.847,243.685 353.953,244.000 353.953 C 244.275 353.953,244.800 353.824,245.167 353.667 C 245.587 353.486,245.648 353.380,245.333 353.380 C 245.058 353.380,244.533 353.509,244.167 353.667 M157.167 354.333 C 157.533 354.491,158.058 354.620,158.333 354.620 C 158.648 354.620,158.587 354.514,158.167 354.333 C 157.800 354.176,157.275 354.047,157.000 354.047 C 156.685 354.047,156.746 354.153,157.167 354.333 M180.083 358.896 C 180.404 358.980,180.929 358.980,181.250 358.896 C 181.571 358.813,181.308 358.744,180.667 358.744 C 180.025 358.744,179.762 358.813,180.083 358.896 M218.750 358.896 C 219.071 358.980,219.596 358.980,219.917 358.896 C 220.237 358.813,219.975 358.744,219.333 358.744 C 218.692 358.744,218.429 358.813,218.750 358.896 M182.917 359.235 C 183.329 359.315,184.004 359.315,184.417 359.235 C 184.829 359.156,184.492 359.091,183.667 359.091 C 182.842 359.091,182.504 359.156,182.917 359.235 M215.583 359.235 C 215.996 359.315,216.671 359.315,217.083 359.235 C 217.496 359.156,217.158 359.091,216.333 359.091 C 215.508 359.091,215.171 359.156,215.583 359.235 M186.750 359.572 C 187.254 359.648,188.079 359.648,188.583 359.572 C 189.088 359.496,188.675 359.433,187.667 359.433 C 186.658 359.433,186.246 359.496,186.750 359.572 M211.417 359.572 C 211.921 359.648,212.746 359.648,213.250 359.572 C 213.754 359.496,213.342 359.433,212.333 359.433 C 211.325 359.433,210.912 359.496,211.417 359.572 M191.928 359.913 C 192.896 359.980,194.396 359.980,195.261 359.911 C 196.126 359.843,195.333 359.788,193.500 359.788 C 191.667 359.789,190.959 359.845,191.928 359.913 M204.928 359.913 C 205.896 359.980,207.396 359.980,208.261 359.911 C 209.126 359.843,208.333 359.788,206.500 359.788 C 204.667 359.789,203.959 359.845,204.928 359.913"/></g></svg>