<svg xmlns="http://www.w3.org/2000/svg" width="512" height="512" x="0" y="0" fill="#000" viewBox="0 0 224 224"><g style="mix-blend-mode:normal" fill="none" stroke="none" stroke-dashoffset="0" stroke-miterlimit="10" stroke-width="1" font-family="none" font-weight="none"><path fill="none" d="M0,224v-224h224v224z"/><g id="Layer_1"><g><g fill="#fff"><g><g><path d="M150.5,15.75h-94.5c-9.625,0 -17.5,7.875 -17.5,17.5v157.5c0,9.625 7.875,17.5 17.5,17.5h112c9.625,0 17.5,-7.875 17.5,-17.5v-140c0,-19.25 -15.75,-35 -35,-35z"/></g></g></g><path fill="#3498db" d="M185.5,68.25c-0.175,0 -0.175,0 0,0c-2.975,0 -5.25,2.275 -5.25,5.25v117.25c0,3.325 -1.225,6.3 -3.5,8.75c-2.275,2.45 -5.425,3.675 -8.75,3.675h-115.5c-2.975,0 -8.75,-5.25 -8.75,-12.25v-157.675c0,-6.825 5.425,-12.25 12.25,-12.25h89.25v12.25c0,12.6 10.15,22.75 22.75,22.75h16.8c0.175,0 0.35,0 0.7,0v0c2.1,0 4.025,-1.4 4.9,-3.15c0.35,-0.7 0.525,-1.4 0.525,-2.1c0,-0.175 0,-0.525 0,-0.7c-0.175,-10.5 -4.375,-20.3 -11.725,-27.825c-7.875,-7.525 -18.025,-11.725 -28.7,-11.725h-94.5c-12.6,0 -22.75,10.15 -22.75,22.75v157.5c0,12.775 10.325,22.75 19.25,22.75h115.5c6.125,0 11.725,-2.45 16.1,-6.65c4.375,-4.375 6.65,-9.975 6.65,-16.1v-117.25c-0.175,-2.975 -2.45,-5.25 -5.25,-5.25zM179.725,45.5h-11.725c-6.825,0 -12.25,-5.425 -12.25,-12.25v-11.725c5.95,1.05 11.375,3.85 15.75,8.225c4.375,4.375 7.175,9.8 8.225,15.75z"/><g fill="#95a5a6"><g><g><path d="M150.5,108.5h-77c-2.975,0 -5.25,-2.275 -5.25,-5.25c0,-2.975 2.275,-5.25 5.25,-5.25h77c2.975,0 5.25,2.275 5.25,5.25c0,2.975 -2.275,5.25 -5.25,5.25z"/></g></g></g><g fill="#95a5a6"><g><g><path d="M133,56h-42c-2.975,0 -5.25,-2.275 -5.25,-5.25c0,-2.975 2.275,-5.25 5.25,-5.25h42c2.975,0 5.25,2.275 5.25,5.25c0,2.975 -2.275,5.25 -5.25,5.25z"/></g></g></g><g fill="#95a5a6"><g><g><path d="M150.5,134.75h-77c-2.975,0 -5.25,-2.275 -5.25,-5.25c0,-2.975 2.275,-5.25 5.25,-5.25h77c2.975,0 5.25,2.275 5.25,5.25c0,2.975 -2.275,5.25 -5.25,5.25z"/></g></g></g><g fill="#95a5a6"><g><g><path d="M124.6,161h-50.75c-2.975,0 -5.25,-2.275 -5.25,-5.25c0,-2.975 2.275,-5.25 5.25,-5.25h50.75c2.975,0 5.25,2.275 5.25,5.25c0,2.975 -2.275,5.25 -5.25,5.25z"/></g></g></g><g fill="#95a5a6"><g><g><circle cx="86" cy="89" r="3" transform="scale(1.75,1.75)"/></g></g></g></g></g></g></svg>