<?xml version="1.0" standalone="no"?>
<!DOCTYPE svg PUBLIC "-//W3C//DTD SVG 20010904//EN"
 "http://www.w3.org/TR/2001/REC-SVG-20010904/DTD/svg10.dtd">
<svg version="1.0" xmlns="http://www.w3.org/2000/svg"
 width="282.000000pt" height="289.000000pt" viewBox="0 0 282.000000 289.000000"
 preserveAspectRatio="xMidYMid meet">
<metadata>
Created by potrace 1.10, written by Peter Selinger 2001-2011
</metadata>
<g transform="translate(0.000000,289.000000) scale(0.100000,-0.100000)"
fill="#00a0f3" stroke="none">
<path d="M1195 2834 c-402 -62 -741 -288 -973 -649 -103 -160 -188 -408 -194
-570 l-3 -60 110 0 110 0 6 130 c4 72 7 149 8 173 l1 42 262 -2 263 -3 5 -345
5 -345 75 0 75 0 3 518 2 517 268 -2 267 -3 5 -685 5 -685 63 -3 c38 -2 69 2
78 9 12 10 14 94 14 520 l0 509 268 -2 267 -3 5 -345 5 -345 70 0 70 0 3 172
2 173 213 2 212 3 -3 55 c-2 30 -14 101 -28 158 -120 493 -491 891 -956 1026
-186 54 -400 68 -583 40z"/>
<path d="M1163 2043 l-23 -4 0 -515 0 -514 -267 2 -268 3 -5 345 -5 345 -72 3
-73 3 -2 -173 -3 -173 -214 -3 -214 -2 8 -72 c10 -107 58 -284 105 -391 97
-221 296 -460 491 -590 428 -284 906 -323 1348 -111 263 126 439 282 587 521
109 174 197 424 206 579 l3 59 -115 0 -115 0 -3 -173 -2 -172 -263 2 -262 3
-5 345 c-3 190 -7 346 -8 348 -1 1 -36 2 -77 2 l-75 0 -2 -517 -3 -518 -265 0
-265 0 -5 685 c-3 377 -6 686 -8 688 -3 3 -104 0 -129 -5z"/>
</g>
</svg>
