<?xml version="1.0" encoding="iso-8859-1"?>
<!-- Generator: Adobe Illustrator 19.0.0, SVG Export Plug-In . SVG Version: 6.00 Build 0)  -->
<svg version="1.1" id="Capa_1" xmlns="http://www.w3.org/2000/svg" xmlns:xlink="http://www.w3.org/1999/xlink" x="0px" y="0px"
	 viewBox="0 0 461.518 461.518" style="enable-background:new 0 0 461.518 461.518;" xml:space="preserve">
<path style="fill:#4DCFE0;" d="M230.759,342.923c-62.171,0-112.327-50.155-112.327-112.327s50.155-112.327,112.327-112.327
	s112.327,50.155,112.327,112.327S292.931,342.923,230.759,342.923z M230.759,149.616c-44.408,0-80.98,36.571-80.98,80.98
	s36.571,80.98,80.98,80.98s80.98-36.571,80.98-80.98S275.167,149.616,230.759,149.616z"/>
<path style="fill:#1185E0;" d="M181.649,461.518c-2.09,0-3.657-0.522-5.747-1.045l-59.559-22.988
	c-6.269-2.612-10.449-8.359-9.927-15.151l1.045-27.167c-13.061-9.404-25.078-20.898-35.004-33.437l-27.167,2.09
	c-6.792,0.522-13.061-3.135-15.673-9.404l-25.6-58.514c-3.135-6.269-1.567-13.061,3.135-17.763l19.853-18.808
	c-2.09-16.196-2.612-32.392-1.045-48.588L5.584,192.98c-5.224-4.18-6.792-11.494-4.18-17.763l22.988-59.559
	c2.612-6.269,8.359-10.449,15.151-9.927l27.167,1.045c9.404-13.061,20.898-25.078,33.437-35.004l-2.09-27.167
	c-0.522-6.792,3.135-13.061,9.404-15.673l58.514-25.6c5.224-2.612,12.539-1.045,17.241,3.657l18.808,19.853
	c16.196-2.09,32.392-2.612,48.588-1.045l17.763-20.376c4.18-5.224,11.494-6.792,17.763-4.18l59.559,22.988
	c6.269,2.612,10.449,8.359,9.927,15.151l-1.045,27.167c13.061,9.404,25.078,20.898,35.004,33.437l27.167-2.09
	c6.792-0.522,13.061,3.135,15.673,9.404l25.6,58.514c2.612,6.269,1.045,13.061-3.657,17.763l-19.853,18.286
	c2.09,16.196,2.612,32.392,1.045,48.588l20.376,17.763c5.224,4.18,6.792,11.494,4.18,17.763l-22.988,59.559
	c-2.612,6.269-8.882,10.449-15.151,9.927l-27.167-1.045c-9.404,13.061-20.898,25.078-33.437,35.004l2.09,27.167
	c0.522,6.792-3.135,13.061-9.404,15.673l-58.514,25.6c-6.269,2.612-13.061,1.045-17.763-3.657l-18.286-19.853
	c-16.196,2.09-32.392,2.612-48.588,1.045l-17.763,20.376C190.531,459.429,186.351,461.518,181.649,461.518z M138.286,412.408
	l38.661,15.151l15.673-18.286c3.657-4.18,8.882-5.747,14.106-5.224c18.808,2.612,37.616,2.09,55.902-1.567
	c5.224-1.045,10.449,0.522,14.106,4.702l17.241,17.763l38.139-16.718l-2.09-25.078c-0.522-5.224,2.09-10.449,6.269-13.584
	c15.151-10.971,27.69-24.555,38.139-40.229c3.135-4.702,7.837-7.314,13.584-6.792l24.555,0.522l15.151-38.661l-18.286-15.673
	c-4.18-3.657-5.747-8.882-5.224-14.106c2.612-18.808,2.09-37.616-1.567-55.902c-1.045-5.224,0.522-10.449,4.702-14.106
	l17.763-17.241l-16.718-38.139l-25.078,2.09c-5.224,0.522-10.449-2.09-13.584-6.269c-10.971-15.151-24.555-27.69-40.229-38.139
	c-4.702-3.135-7.314-8.359-6.792-13.584l0.522-24.555l-38.661-15.151l-15.673,18.286c-3.657,4.18-8.882,5.747-14.106,5.224
	c-18.808-2.612-37.616-2.09-55.902,1.567c-5.224,1.045-10.449-0.522-14.106-4.702l-16.718-17.241l-38.139,16.718l1.567,24.555
	c0.522,5.224-2.09,10.449-6.269,13.584c-15.151,10.971-27.69,24.555-38.139,40.229c-3.135,4.702-8.359,7.314-13.584,6.792
	l-24.555-0.522l-15.151,38.661l18.286,15.673c4.18,3.657,5.747,8.882,5.224,14.106c-2.612,18.808-2.09,37.616,1.567,55.902
	c1.045,5.224-0.522,10.449-4.702,14.106L36.931,293.29l16.718,38.139l24.555-1.567c5.224-0.522,10.449,2.09,13.584,6.269
	c10.971,15.151,24.555,27.69,40.229,38.139c4.702,3.135,7.314,8.359,6.792,13.584L138.286,412.408z"/>
<g>
</g>
<g>
</g>
<g>
</g>
<g>
</g>
<g>
</g>
<g>
</g>
<g>
</g>
<g>
</g>
<g>
</g>
<g>
</g>
<g>
</g>
<g>
</g>
<g>
</g>
<g>
</g>
<g>
</g>
</svg>
