<svg xmlns="http://www.w3.org/2000/svg" x="0px" y="0px"
     width="512" height="512"
     viewBox="0 0 224 224"
     style=" fill:#000000;">
    <g fill="none" stroke="none" stroke-width="1"
       stroke-miterlimit="10" stroke-dasharray="" stroke-dashoffset="0" font-family="none"
       font-size="none" style="mix-blend-mode: normal">
        <path d="M0,224v-224h224v224z" fill="none"></path>
        <g fill="#ffffff">
            <path d="M70.49583,22.4c-40.7008,0.70187 -44.8602,28.9247 -36.69167,61.3375c-1.58293,0.91093 -4.18623,3.80251 -3.52917,8.93958c1.22453,9.57973 5.37763,12.00465 8.02083,12.20625c1.008,8.94507 10.61083,20.38493 13.97083,22.05v14.93333c-7.46667,22.4 -52.26667,0 -52.26667,59.73333h89.6c0,-26.49173 14.85447,-37.90138 27.24167,-44.46458c-11.63307,-4.0768 -23.68007,-4.58395 -27.24167,-15.26875v-14.93333c3.36,-1.66507 12.95537,-13.09782 13.97084,-22.03542c0.59733,-2.11307 1.06458,-9.6726 1.06458,-11.375c0,-9.32587 -0.13685,-28.60154 5.70208,-43.69167c-2.0384,-10.13973 -7.3668,-18.69128 -18.78333,-19.81875c-3.05387,-5.05493 -10.88127,-7.6125 -21.05834,-7.6125zM165.18542,29.86667c-8.39253,0 -14.875,7.46667 -14.875,7.46667c-48.10027,0 -21.39806,81.78497 -35.525,93.5375c0,0 7.51112,11.12708 34.54792,11.12708v9.52292c-7.46667,20.21227 -44.8,12.74583 -44.8,50.07916h119.46667c0,-37.33333 -37.33333,-29.8669 -44.8,-50.07916v-9.61042c27.1712,0 33.46875,-10.7625 33.46875,-10.7625c-15.2096,-12.48427 11.32413,-101.28125 -47.48333,-101.28125z"></path>
        </g>
    </g>
</svg>