<svg xmlns="http://www.w3.org/2000/svg" x="0px" y="0px"
     width="512" height="512"
     viewBox="0 0 224 224"
     style=" fill:#000000;">
    <g fill="none" stroke="none" stroke-width="1"
       stroke-miterlimit="10" stroke-dasharray="" stroke-dashoffset="0" font-family="none" font-weight="none"
       style="mix-blend-mode: normal">
        <path d="M0,224v-224h224v224z" fill="none"></path>
        <g id="Слой_1">
            <g>
                <g fill="#ffffff">
                    <g>
                        <path d="M176.75,189h-129.5c-9.625,0 -17.5,-7.875 -17.5,-17.5v-119c0,-9.625 7.875,-17.5 17.5,-17.5h129.5c9.625,0 17.5,7.875 17.5,17.5v119c0,9.625 -7.875,17.5 -17.5,17.5z"></path>
                    </g>
                </g>
                <g fill="#454b54">
                    <g>
                        <path d="M194.25,78.75h-164.5c-2.975,0 -5.25,-2.275 -5.25,-5.25c0,-2.975 2.275,-5.25 5.25,-5.25h164.5c2.975,0 5.25,2.275 5.25,5.25c0,2.975 -2.275,5.25 -5.25,5.25z"></path>
                    </g>
                </g>
                <g fill="#454b54">
                    <g>
                        <path d="M64.75,59.5c-1.4,0 -2.8,-0.525 -3.675,-1.575c-1.05,-0.875 -1.575,-2.275 -1.575,-3.675c0,-1.4 0.525,-2.8 1.575,-3.675c1.925,-1.925 5.425,-1.925 7.35,0c1.05,1.05 1.575,2.275 1.575,3.675c0,1.4 -0.525,2.8 -1.575,3.675c-0.875,1.05 -2.275,1.575 -3.675,1.575z"></path>
                    </g>
                </g>
                <g fill="#454b54">
                    <g>
                        <path d="M112,59.5c-1.4,0 -2.8,-0.525 -3.675,-1.575c-1.05,-0.875 -1.575,-2.275 -1.575,-3.675c0,-1.4 0.525,-2.8 1.575,-3.675c1.925,-1.925 5.425,-1.925 7.35,0c1.05,1.05 1.575,2.275 1.575,3.675c0,1.4 -0.525,2.8 -1.575,3.675c-0.875,1.05 -2.275,1.575 -3.675,1.575z"></path>
                    </g>
                </g>
                <g fill="#454b54">
                    <g>
                        <path d="M164.5,59.5c-1.4,0 -2.8,-0.525 -3.675,-1.575c-1.05,-0.875 -1.575,-2.275 -1.575,-3.675c0,-1.4 0.525,-2.8 1.575,-3.675c1.925,-1.925 5.425,-1.925 7.35,0c1.05,1.05 1.575,2.275 1.575,3.675c0,1.4 -0.525,2.8 -1.575,3.675c-0.875,1.05 -2.275,1.575 -3.675,1.575z"></path>
                    </g>
                </g>
                <g fill="#454b54">
                    <g>
                        <path d="M176.75,194.25h-129.5c-12.6,0 -22.75,-10.15 -22.75,-22.75v-119c0,-12.6 10.15,-22.75 22.75,-22.75h129.5c12.6,0 22.75,10.15 22.75,22.75v119c0,12.6 -10.15,22.75 -22.75,22.75zM47.25,40.25c-6.825,0 -12.25,5.425 -12.25,12.25v119c0,6.825 5.425,12.25 12.25,12.25h129.5c6.825,0 12.25,-5.425 12.25,-12.25v-119c0,-6.825 -5.425,-12.25 -12.25,-12.25z"></path>
                    </g>
                </g>
                <g>
                    <g fill="#cccccc">
                        <g>
                            <rect x="54" y="52" transform="scale(1.75,1.75)" width="20" height="20"></rect>
                        </g>
                    </g>
                    <g fill="#cccccc">
                        <g>
                            <rect x="27" y="52" transform="scale(1.75,1.75)" width="20" height="20"></rect>
                        </g>
                    </g>
                    <g fill="#cccccc">
                        <g>
                            <rect x="81" y="52" transform="scale(1.75,1.75)" width="20" height="20"></rect>
                        </g>
                    </g>
                    <g fill="#cccccc">
                        <g>
                            <rect x="54" y="79" transform="scale(1.75,1.75)" width="20" height="20"></rect>
                        </g>
                    </g>
                    <g fill="#cccccc">
                        <g>
                            <rect x="27" y="79" transform="scale(1.75,1.75)" width="20" height="20"></rect>
                        </g>
                    </g>
                    <g fill="#3498db">
                        <g>
                            <rect x="81" y="79" transform="scale(1.75,1.75)" width="20" height="20"></rect>
                        </g>
                    </g>
                </g>
            </g>
        </g>
    </g>
</svg>