<svg height="511pt" viewBox="-2 0 511 511.998" width="511pt" xmlns="http://www.w3.org/2000/svg"><g fill-rule="evenodd"><path d="m64.148438 80.457031-27.269532 27.269531c-5.640625 5.640626-5.640625 14.863282 0 20.5l11.109375 11.113282c-3.949219 7.417968-7.132812 15.285156-9.445312 23.519531h-15.992188c-7.980469 0-14.496093 6.515625-14.496093 14.496094v38.550781c0 7.980469 6.515624 14.492188 14.496093 14.492188h16.582031c2.425782 7.984374 5.640626 15.625 9.5625 22.789062l-11.816406 11.816406c-5.640625 5.636719-5.640625 14.890625 0 20.527344l27.269532 27.242188c5.640624 5.640624 14.863281 5.640624 20.503906 0l11.816406-11.8125c7.1875 3.945312 14.832031 7.160156 22.8125 9.558593v16.609375c0 7.953125 6.515625 14.496094 14.496094 14.496094h38.550781c7.953125 0 14.496094-6.542969 14.496094-14.496094v-15.988281c8.234375-2.339844 16.101562-5.527344 23.519531-9.476563l11.082031 11.109376c5.640625 5.640624 14.890625 5.640624 20.53125 0l27.242188-27.242188c5.640625-5.636719 5.640625-14.890625 0-20.527344l-10.492188-10.492187c4.261719-7.558594 7.726563-15.652344 10.292969-24.113281h14.554688c7.953124 0 14.496093-6.511719 14.496093-14.492188v-38.550781c0-7.980469-6.542969-14.496094-14.496093-14.496094h-13.933594c-2.480469-8.742187-5.921875-17.0625-10.179688-24.84375l9.757813-9.785156c5.640625-5.640625 5.640625-14.863281 0-20.503907l-27.242188-27.269531c-5.640625-5.640625-14.890625-5.640625-20.53125 0l-9.757812 9.785157c-7.808594-4.285157-16.128907-7.695313-24.84375-10.179688v-13.933594c0-7.980468-6.542969-14.492187-14.496094-14.492187h-38.550781c-7.980469 0-14.496094 6.511719-14.496094 14.492187v14.554688c-8.488281 2.539062-16.550781 6.035156-24.109375 10.292968l-10.519531-10.519531c-5.640625-5.640625-14.863282-5.640625-20.503906 0zm88.890624 79.582031c-20.191406 0-36.578124 16.386719-36.578124 36.578126 0 20.21875 16.386718 36.601562 36.578124 36.601562 20.21875 0 36.605469-16.382812 36.605469-36.601562 0-20.191407-16.386719-36.578126-36.605469-36.578126zm0 0" fill="#b3b3b3"/><path d="m153.039062 269.402344c40.214844 0 72.785157-32.574219 72.785157-72.789063 0-40.183593-32.570313-72.785156-72.785157-72.785156-40.1875 0-72.789062 32.601563-72.789062 72.785156 0 40.214844 32.601562 72.789063 72.789062 72.789063zm0-109.363282c-20.191406 0-36.578124 16.386719-36.578124 36.578126 0 20.21875 16.386718 36.601562 36.578124 36.601562 20.21875 0 36.605469-16.382812 36.605469-36.601562 0-20.191407-16.386719-36.578126-36.605469-36.578126zm0 0" fill="#999"/><path d="m64.460938 188.042969c0-43.570313 20.78125-82.289063 52.960937-106.796875-7.8125 2.507812-15.257813 5.78125-22.25 9.730468l-10.519531-10.519531c-5.640625-5.640625-14.863282-5.640625-20.503906 0l-27.269532 27.269531c-5.640625 5.640626-5.640625 14.863282 0 20.5l11.109375 11.113282c-3.949219 7.417968-7.132812 15.285156-9.445312 23.519531h-15.992188c-7.980469 0-14.496093 6.515625-14.496093 14.496094v38.550781c0 7.980469 6.515624 14.492188 14.496093 14.492188h16.582031c2.425782 7.984374 5.640626 15.625 9.5625 22.789062l-11.816406 11.816406c-5.640625 5.636719-5.640625 14.890625 0 20.527344l27.269532 27.242188c5.640624 5.640624 14.863281 5.640624 20.503906 0l11.816406-11.8125c7.1875 3.945312 14.832031 7.160156 22.8125 9.558593v16.609375c0 7.953125 6.515625 14.496094 14.496094 14.496094h38.550781c7.980469 0 14.496094-6.542969 14.496094-14.496094v-5.472656c-68.585938-5.949219-122.363281-63.507812-122.363281-133.613281zm0 0" fill="#999"/><path d="m149.570312 328.59375-1.777343 39.453125c-.394531 8.179687 5.976562 15.171875 14.15625 15.539063l16.074219.734374c2.144531 8.320313 5.160156 16.46875 9.082031 24.335938l-12.097657 11.027344c-6.035156 5.527344-6.460937 14.972656-.933593 21.007812l26.621093 29.160156c5.53125 6.035157 14.976563 6.457032 21.011719.957032l12.546875-11.449219c7.335938 4.371094 15.0625 7.925781 22.984375 10.632813l-.761719 17.117187c-.363281 8.152344 6.007813 15.144531 14.160157 15.511719l39.480469 1.804687c8.152343.367188 15.144531-6.007812 15.511718-14.183593l.789063-17.121094c8.148437-1.972656 16.160156-4.820313 23.859375-8.515625l11.476562 12.578125c5.5 6.035156 14.945313 6.457031 20.980469.957031l29.191406-26.648437c6.035157-5.5 6.457031-14.945313.929688-21.007813l-11.027344-12.070313c4.625-7.472656 8.375-15.3125 11.25-23.433593l16.078125.730469c8.175781.394531 15.144531-6.007813 15.507812-14.15625l1.808594-39.480469c.363282-8.152344-6.007812-15.144531-14.1875-15.511719l-15.199218-.675781c-2.003907-8.6875-4.9375-17.203125-8.855469-25.382813l11-10.039062c6.035156-5.527344 6.457031-14.972656.957031-21.007813l-26.652344-29.160156c-5.496094-6.035156-14.945312-6.488281-20.980468-.957031l-10.546876 9.613281c-7.894531-4.90625-16.242187-8.824219-24.875-11.757813l.648438-14.15625c.367188-8.152343-6.007812-15.144531-14.183594-15.511718l-39.453125-1.804688c-8.179687-.367187-15.148437 6.007813-15.539062 14.183594l-.621094 14.128906c-8.855469 2.171875-17.542969 5.300782-25.863281 9.476563l-9.613282-10.546875c-5.5-6.035156-14.949218-6.457032-20.984374-.960938l-29.1875 26.652344c-6.035157 5.496094-6.457032 14.945312-.957032 20.980469l10.039063 11.027343c-4.625 7.78125-8.347657 15.988282-11.109375 24.449219l-15.230469-.707031c-8.148437-.363281-15.144531 6.011719-15.507813 14.1875zm122.28125-1.210938c-15.285156 13.960938-16.386718 37.675782-2.425781 52.960938 13.988281 15.3125 37.707031 16.386719 52.988281 2.425781 15.285157-13.960937 16.359376-37.675781 2.398438-52.988281-13.960938-15.289062-37.675781-16.359375-52.960938-2.398438zm0 0" fill="#e8e8e8"/><path d="m347.429688 410.152344c30.429687-27.777344 32.574218-74.957032 4.792968-105.386719-27.777344-30.429687-74.957031-32.574219-105.386718-4.792969-30.429688 27.804688-32.574219 74.984375-4.796876 105.382813 27.78125 30.429687 74.960938 32.574219 105.390626 4.796875zm-75.578126-82.769532c-15.285156 13.960938-16.386718 37.675782-2.425781 52.960938 13.988281 15.3125 37.707031 16.386719 52.988281 2.425781 15.285157-13.960937 16.359376-37.675781 2.398438-52.988281-13.960938-15.289062-37.675781-16.359375-52.960938-2.398438zm0 0" fill="#999"/><path d="m224.132812 409.785156c-30.089843-32.96875-41.144531-76.621094-33.699218-117.398437-4.175782 7.273437-7.558594 14.890625-10.125 22.730469l-15.230469-.707032c-8.148437-.367187-15.144531 6.007813-15.507813 14.183594l-1.777343 39.453125c-.394531 8.179687 5.976562 15.171875 14.15625 15.539063l16.074219.734374c2.144531 8.320313 5.160156 16.46875 9.082031 24.308594l-12.097657 11.054688c-6.035156 5.527344-6.460937 14.976562-.933593 21.007812l26.621093 29.160156c5.53125 6.035157 14.976563 6.457032 21.011719.960938l12.546875-11.476562c7.335938 4.398437 15.0625 7.921874 22.984375 10.65625l-.761719 17.121093c-.363281 8.148438 6.007813 15.144531 14.160157 15.511719l39.480469 1.804688c8.152343.367187 15.144531-6.007813 15.511718-14.1875l.789063-17.117188c8.148437-1.976562 16.160156-4.824219 23.859375-8.519531l11.476562 12.578125c5.5 6.039062 14.945313 6.460937 20.980469.960937l29.191406-26.652343c6.035157-5.496094 6.457031-14.945313.929688-21.007813l-3.777344-4.117187c-56.007813 42.863281-136.492187 36.492187-184.945313-16.582032zm0 0" fill="#ccc"/><path d="m376.054688 255.300781c68.414062 0 123.886718-55.441406 123.886718-123.855469 0-68.445312-55.472656-123.886718-123.886718-123.886718-68.417969 0-123.890626 55.441406-123.890626 123.886718 0 68.414063 55.472657 123.855469 123.890626 123.855469zm0 0" fill="#55b8e6"/><path d="m376.054688 219.035156c48.363281 0 87.59375-39.226562 87.59375-87.589844 0-48.394531-39.230469-87.621093-87.59375-87.621093-48.394532 0-87.59375 39.226562-87.59375 87.621093 0 48.363282 39.199218 87.589844 87.59375 87.589844zm0 0" fill="#e8e8e8"/><path d="m317.507812 131.445312c0-38.214843 24.449219-70.703124 58.546876-82.6875 4.679687-1.632812 9.53125-2.902343 14.523437-3.722656-4.738281-.789062-9.589844-1.210937-14.523437-1.210937-48.394532 0-87.59375 39.226562-87.59375 87.621093 0 48.363282 39.199218 87.589844 87.59375 87.589844 4.933593 0 9.785156-.421875 14.523437-1.214844-4.992187-.816406-9.84375-2.085937-14.523437-3.722656-34.097657-11.984375-58.546876-44.46875-58.546876-82.652344zm0 0" fill="#ccc"/><path d="m273.628906 128.226562c0-58.402343 40.4375-107.386718 94.839844-120.445312-52.710938 3.1875-96.535156 39.316406-111.113281 88.074219-3.382813 11.28125-5.191407 23.207031-5.191407 35.589843 0 28.367188 9.535157 54.511719 25.609376 75.40625 5.046874 6.597657 10.773437 12.664063 17.0625 18.132813 21.742187 18.894531 50.140624 30.316406 81.21875 30.316406 9.730468 0 19.175781-1.101562 28.257812-3.214843.25-.085938.535156-.140626.789062-.199219-.3125.027343-.621093.027343-.902343.058593-2.230469.113282-4.457031.167969-6.683594.167969-11.734375 0-23.070313-1.636719-33.84375-4.683593-3.664063-1.042969-7.273437-2.226563-10.800781-3.609376-3.835938-1.464843-7.613282-3.15625-11.25-5.019531-1.496094-.734375-2.988282-1.523437-4.457032-2.339843-13.707031-7.671876-25.804687-17.851563-35.675781-29.949219-1.183593-1.4375-2.339843-2.933594-3.4375-4.429688-8.6875-11.675781-15.371093-24.929687-19.515625-39.226562-3.1875-10.996094-4.90625-22.613281-4.90625-34.628907zm0 0" fill="#507fcf"/></g><path d="m161.929688 153.378906c-2.875-.589844-5.847657-.898437-8.890626-.898437-3.042968 0-6.011718.308593-8.882812.898437-20.09375 4.125-35.25 21.941406-35.25 43.238282 0 24.351562 19.796875 44.160156 44.132812 44.160156 24.351563 0 44.160157-19.808594 44.160157-44.160156 0-21.296876-15.167969-39.113282-35.269531-43.238282zm-8.890626 72.285156c-16.003906 0-29.019531-13.03125-29.019531-29.046874 0-16.003907 13.015625-29.019532 29.019531-29.019532 16.015626 0 29.046876 13.015625 29.046876 29.019532 0 16.015624-13.03125 29.046874-29.046876 29.046874zm0 0"/><path d="m507.5 131.445312c0-20.410156-4.570312-40.007812-13.585938-58.257812-1.847656-3.738281-6.378906-5.273438-10.125-3.425781-3.738281 1.847656-5.273437 6.378906-3.425781 10.121093 7.976563 16.148438 12.023438 33.496094 12.023438 51.5625 0 58.992188-44.164063 107.863282-101.175781 115.3125-5.023438.648438-10.09375.984376-15.15625.984376-64.144532 0-116.332032-52.171876-116.332032-116.296876 0-64.144531 52.1875-116.332031 116.332032-116.332031 32.117187 0 63.109374 13.464844 85.03125 36.941407 2.847656 3.050781 7.628906 3.214843 10.679687.367187s3.214844-7.628906.367187-10.683594c-24.765624-26.523437-59.785156-41.738281-96.078124-41.738281-55.023438 0-102.25 33.988281-121.8125 82.066406l-6.941407-6.953125c-4.15625-4.15625-9.699219-6.441406-15.609375-6.441406s-11.453125 2.285156-15.617187 6.449219l-5.839844 5.859375c-5.089844-2.5-10.390625-4.671875-15.851563-6.492188v-8.359375c0-12.15625-9.894531-22.050781-22.054687-22.050781h-38.550781c-12.160156 0-22.054688 9.894531-22.054688 22.050781v9.0625c-5.148437 1.808594-10.222656 3.972656-15.171875 6.480469l-6.558593-6.558594c-8.597657-8.597656-22.589844-8.597656-31.1875 0l-27.269532 27.269531c-4.15625 4.15625-6.445312 9.691407-6.445312 15.59375 0 5.902344 2.289062 11.441407 6.445312 15.59375l7.246094 7.25c-2.242188 4.710938-4.191406 9.550782-5.828125 14.480469h-10.402344c-12.160156 0-22.050781 9.894531-22.050781 22.054688v38.546875c0 12.160156 9.890625 22.054687 22.050781 22.054687h11.109375c1.660156 4.71875 3.59375 9.328125 5.78125 13.792969l-7.90625 7.90625c-4.15625 4.15625-6.445312 9.699219-6.445312 15.609375 0 5.914063 2.289062 11.457031 6.445312 15.613281l27.269532 27.238282c8.597656 8.601562 22.589843 8.601562 31.191406 0l7.902344-7.902344c4.484374 2.199218 9.109374 4.136718 13.828124 5.789062v11.125c0 12.160156 9.890626 22.050782 22.050782 22.050782h7.289062l-.847656 18.527343c-.269531 5.972657 1.808594 11.699219 5.851562 16.132813 4.050782 4.4375 9.570313 7.027344 15.539063 7.296875l10.617187.480469c1.574219 5.179687 3.46875 10.265624 5.667969 15.210937l-7.988281 7.28125c-4.410156 4.035156-6.980469 9.558594-7.25 15.550781-.265625 5.996094 1.8125 11.726563 5.839844 16.125l26.632812 29.171875c8.339844 9.105469 22.550782 9.75 31.679688 1.429688l8.496094-7.769531c4.523437 2.4375 9.253906 4.628906 14.144531 6.550781l-.515625 11.601562c-.554688 12.347657 9.03125 22.84375 21.359375 23.402344l39.488281 1.804687c.339844.015626.683594.019532 1.023438.019532 5.589843 0 10.914062-2.066406 15.089843-5.878906 4.429688-4.050782 7.019531-9.566407 7.289063-15.527344l.53125-11.589844c4.984375-1.445312 9.894531-3.199219 14.683594-5.246094l7.773437 8.519532c4.019531 4.414062 9.539063 6.992187 15.53125 7.265624 5.996094.269532 11.71875-1.792968 16.132813-5.816406l29.179687-26.644531c4.417969-4.023437 6.996094-9.542969 7.261719-15.542969.269531-5.988281-1.804688-11.722656-5.839844-16.148437l-7.261719-7.949219c2.648438-4.742188 5-9.640625 7.03125-14.660156l10.589844.484375c5.957031.285156 11.679687-1.78125 16.113281-5.816407 4.445313-4.050781 7.039063-9.570312 7.308594-15.542968l1.804688-39.488282c.554687-12.347656-9.03125-22.84375-21.371094-23.398437l-9.621094-.429687c-1.535156-5.539063-3.425781-10.957032-5.652344-16.191407l6.957032-6.355469c9.105468-8.339843 9.753906-22.546874 1.433593-31.679687l-7.671875-8.394531c51.921875-17.570313 89.402344-66.75 89.402344-124.519532zm-373.722656 202.621094c-3.761719 0-6.9375-3.175781-6.9375-6.9375v-16.609375c0-3.335937-2.191406-6.28125-5.386719-7.238281-7.402344-2.222656-14.585937-5.234375-21.351563-8.949219-2.945312-1.617187-6.605468-1.09375-8.980468 1.28125l-11.816406 11.816407c-2.703126 2.707031-7.109376 2.707031-9.816407-.003907l-27.269531-27.238281c-1.296875-1.300781-2.015625-3.046875-2.015625-4.921875 0-1.871094.714844-3.621094 2.015625-4.921875l11.816406-11.8125c2.371094-2.375 2.898438-6.027344 1.285156-8.972656-3.683593-6.734375-6.699218-13.917969-8.957031-21.355469-.96875-3.183594-3.902343-5.359375-7.230469-5.359375h-16.582031c-3.824219 0-6.9375-3.113281-6.9375-6.941406v-38.546875c0-3.828125 3.113281-6.941407 6.9375-6.941407h15.992188c3.386719 0 6.359375-2.25 7.273437-5.511718 2.132813-7.585938 5.105469-14.992188 8.84375-22.011719 1.5625-2.933594 1.023438-6.542969-1.328125-8.894531l-11.113281-11.113282c-1.296875-1.300781-2.015625-3.042968-2.015625-4.90625 0-1.863281.714844-3.605468 2.015625-4.90625l27.273438-27.269531c2.707031-2.707031 7.109374-2.707031 9.816406 0l10.515625 10.519531c2.398437 2.394532 6.101562 2.902344 9.054687 1.238282 7.25-4.082032 14.84375-7.328125 22.566406-9.636719 3.199219-.957031 5.394532-3.902344 5.394532-7.238281v-14.554688c0-3.824218 3.109375-6.9375 6.9375-6.9375h38.550781c3.761719 0 6.941406 3.175782 6.941406 6.9375v13.933594c0 3.375 2.238281 6.34375 5.488281 7.269531 8.1875 2.332031 16.015626 5.539063 23.265626 9.53125 2.949218 1.625 6.621093 1.101563 8.996093-1.285156l9.753907-9.777344c1.300781-1.300781 3.046874-2.019531 4.921874-2.019531 1.871094 0 3.621094.71875 4.914063 2.015625l12.289063 12.308594c-2.792969 10.652343-4.289063 21.824219-4.289063 33.339843 0 27.285157 8.363281 52.652344 22.660156 73.679688-3.667969 3.855469-5.949219 8.964844-6.210937 14.453125l-.375 8.59375c-5.75 1.671875-11.347656 3.722656-16.734375 6.121094l-5.851563-6.417969c-2.449218-2.6875-5.457031-4.683594-8.789062-5.902344 2.703125-8.125 4.078125-16.613281 4.078125-25.355468 0-44.304688-36.042969-80.34375-80.347657-80.34375-44.300781 0-80.34375 36.039062-80.34375 80.34375 0 44.300781 36.042969 80.34375 80.34375 80.34375 5.964844 0 11.84375-.648438 17.578126-1.925782.882812 3.578125 2.636718 6.902344 5.179687 9.691406l6.355469 6.984376c-2.710938 5.046874-5.085938 10.261718-7.101563 15.597656l-9.628906-.449219c-5.960937-.269531-11.683594 1.816406-16.109375 5.859375-4.433594 4.050781-7.023438 9.570312-7.289062 15.53125l-.265626 5.816406zm43.472656-80.996094c-1.84375 1.679688-3.34375 3.628907-4.511719 5.753907-6.339843 2.003906-12.953125 3.019531-19.699219 3.019531-35.96875 0-65.230468-29.261719-65.230468-65.226562 0-35.96875 29.261718-65.230469 65.230468-65.230469s65.230469 29.261719 65.230469 65.230469c0 8.949218-1.773437 17.5625-5.242187 25.65625-2.394532.980468-4.628906 2.363281-6.597656 4.152343zm224.402344 7.308594 12.949218 14.167969c2.714844 2.980469 2.5 7.621094-.46875 10.339844l-10.996093 10.039062c-2.460938 2.246094-3.160157 5.839844-1.722657 8.847657 3.605469 7.515624 6.398438 15.527343 8.308594 23.8125.761719 3.308593 3.636719 5.703124 7.027344 5.851562l15.226562.675781c3.941407.179688 7.125 3.667969 6.945313 7.617188l-1.804687 39.488281c-.085938 1.9375-.933594 3.730469-2.386719 5.054688-1.441407 1.3125-3.285157 1.992187-5.230469 1.890624l-16.074219-.730468c-3.316406-.15625-6.355469 1.890625-7.46875 5.027344-2.707031 7.640624-6.257812 15.035156-10.554687 21.976562-1.777344 2.875-1.433594 6.582031.847656 9.074219l11.023438 12.066406c1.316406 1.441406 1.992187 3.320313 1.902343 5.289063-.085937 1.953124-.917969 3.746093-2.347656 5.046874l-29.179687 26.644532c-1.429688 1.304687-3.308594 1.972656-5.257813 1.882812-1.957031-.089844-3.75-.921875-5.050781-2.347656l-11.480469-12.578125c-2.246094-2.464844-5.84375-3.164063-8.851563-1.71875-7.167968 3.4375-14.695312 6.125-22.367187 7.984375-3.265625.789062-5.617187 3.640625-5.769531 6.996094l-.792969 17.125c-.085937 1.9375-.933594 3.734375-2.382813 5.058594-1.449218 1.324218-3.308593 2.003906-5.230468 1.917968l-39.488282-1.804687c-3.945312-.179688-7.125-3.667969-6.949218-7.625l.761718-17.121094c.152344-3.34375-1.917968-6.386719-5.082031-7.476563-7.65625-2.644531-14.910156-6.007812-21.5625-10-2.867187-1.714843-6.523437-1.347656-8.988281.90625l-12.539062 11.46875c-2.976563 2.710938-7.621094 2.5-10.339844-.46875l-26.628906-29.167968c-1.308594-1.429688-1.980469-3.292969-1.894532-5.253906.089844-1.964844.925782-3.765626 2.34375-5.066407l12.097656-11.027343c2.496094-2.273438 3.179688-5.929688 1.671876-8.953126-3.625-7.28125-6.496094-14.96875-8.527344-22.855468-.828125-3.210938-3.65625-5.511719-6.972656-5.664063l-16.082032-.730469c-1.933594-.089843-3.726562-.933593-5.050781-2.386718-1.328125-1.453125-2.007813-3.320313-1.921875-5.257813l1.804688-39.460937c.085937-1.9375.933593-3.730469 2.386718-5.054688 1.445313-1.324218 3.3125-2.007812 5.226563-1.917968l15.226562.703124c3.394531.15625 6.476563-1.972656 7.535157-5.199218 2.597656-7.953125 6.105468-15.671875 10.421874-22.9375 1.699219-2.859375 1.332032-6.492188-.90625-8.949219l-10.042968-11.027344c-1.304688-1.429687-1.972656-3.296875-1.882813-5.261719.089844-1.953124.921875-3.75 2.351563-5.050781l29.183594-26.644531c1.429687-1.304688 3.296874-1.976562 5.257812-1.878906 1.957031.085937 3.75.917968 5.046875 2.34375l9.617187 10.546875c2.28125 2.503906 5.949219 3.183593 8.972657 1.664062 7.605469-3.8125 15.769531-6.804687 24.273437-8.890625 3.261719-.800781 5.601563-3.652344 5.75-7.007812l.617188-14.101563c.046875-.953125.292968-1.871093.6875-2.714843 24.117187 27.738281 59.648437 45.304687 99.210937 45.304687 5.609375 0 11.226563-.355469 16.789063-1.066406 2.957031-.378907 5.894531-.84375 8.8125-1.414063zm0 0"/><path d="m269.0625 319.84375c-.203125.164062-.410156.316406-.613281.484375-.082031.070313-.164063.144531-.246094.214844-.488281.410156-.972656.824219-1.449219 1.257812-1.109375 1.015625-2.164062 2.074219-3.160156 3.179688-.042969.046875-.078125.09375-.121094.140625-.453125.507812-.898437 1.019531-1.324218 1.542968-.394532.484376-.777344.980469-1.148438 1.480469-.070312.089844-.140625.175781-.210938.265625-.296874.40625-.582031.824219-.867187 1.242188-.128906.1875-.269531.371094-.394531.5625-.75 1.128906-1.4375 2.289062-2.078125 3.472656-.054688.101562-.113281.199219-.167969.296875-.171875.328125-.328125.660156-.496094.992187-.160156.320313-.328125.640626-.484375.96875-.589843 1.265626-1.121093 2.558594-1.59375 3.875-.019531.058594-.046875.117188-.066406.175782-.144531.402344-.265625.808594-.398437 1.210937-.09375.292969-.195313.582031-.285157.878907-.300781 1.003906-.554687 2.027343-.785156 3.054687-.25 1.128906-.476563 2.265625-.640625 3.417969-.046875.328125-.078125.65625-.117188.980468-.140624 1.152344-.25 2.3125-.304687 3.480469-.550781 12.019531 3.617187 23.535157 11.734375 32.421875 8.886719 9.726563 21.082031 14.664063 33.316406 14.664063 10.851563 0 21.730469-3.882813 30.347656-11.757813.574219-.523437 1.128907-1.058594 1.671876-1.601562 8.628906-8.730469 12.996093-20.238282 12.96875-31.78125-.015626-7.214844-1.75-14.441406-5.226563-21.007813-1.738281-3.285156-3.914063-6.402343-6.53125-9.273437-8.113281-8.882813-19.203125-14.074219-31.222656-14.617188-11.007813-.503906-21.578125 2.964844-30.105469 9.777344zm50.164062 15.027344c11.128907 12.207031 10.273438 31.191406-1.90625 42.316406-12.1875 11.132812-31.171874 10.261719-42.316406-1.941406-4.714844-5.164063-7.425781-11.667969-7.785156-18.558594-.050781-.988281-.054688-1.980469-.007812-2.976562.363281-7.988282 3.820312-15.355469 9.730468-20.742188.003906 0 .003906-.003906.003906-.003906 5.5625-5.082032 12.671876-7.832032 20.15625-7.832032.460938 0 .921876.007813 1.386719.03125 7.988281.359376 15.355469 3.8125 20.738281 9.707032zm0 0"/><path d="m352.609375 294.46875c-3.054687-2.847656-7.835937-2.675781-10.683594.378906-2.84375 3.054688-2.671875 7.835938.378907 10.679688 1.523437 1.417968 2.960937 2.855468 4.335937 4.332031 12.074219 13.226563 18.277344 30.363281 17.464844 48.25-.816407 17.886719-8.546875 34.386719-21.773438 46.460937-27.300781 24.921876-69.789062 22.992188-94.710937-4.3125-24.925782-27.273437-22.988282-69.761718 4.308594-94.707031 17.515624-15.988281 41.554687-21.5 64.300781-14.75 4.003906 1.191407 8.210937-1.09375 9.398437-5.09375s-1.09375-8.207031-5.097656-9.394531c-27.453125-8.152344-57.644531-1.222656-78.792969 18.078125-33.453125 30.570313-35.820312 82.636719-5.277343 116.058594 16.183593 17.730469 38.402343 26.730469 60.703124 26.726562 19.785157 0 39.632813-7.085937 55.359376-21.445312 16.207031-14.792969 25.683593-35.015625 26.679687-56.9375.996094-21.917969-6.601563-42.917969-21.449219-59.179688-1.675781-1.796875-3.359375-3.480469-5.144531-5.144531zm0 0"/><path d="m376.054688 36.265625c-52.464844 0-95.152344 42.699219-95.152344 95.179687 0 52.464844 42.6875 95.148438 95.152344 95.148438 52.464843 0 95.148437-42.6875 95.148437-95.148438 0-52.480468-42.683594-95.179687-95.148437-95.179687zm7.554687 174.84375v-3.214844c0-4.171875-3.382813-7.554687-7.554687-7.554687-4.175782 0-7.558594 3.382812-7.558594 7.554687v3.214844c-38.109375-3.585937-68.523438-34-72.113282-72.109375h3.214844c4.175782 0 7.558594-3.382812 7.558594-7.554688 0-4.175781-3.382812-7.558593-7.558594-7.558593h-3.214844c3.585938-38.125 34.003907-68.550781 72.113282-72.140625v3.246094c0 4.171874 3.382812 7.554687 7.558594 7.554687 4.171874 0 7.554687-3.382813 7.554687-7.554687v-3.246094c38.113281 3.589844 68.527344 34.015625 72.113281 72.140625h-3.214844c-4.175781 0-7.558593 3.382812-7.558593 7.558593 0 4.171876 3.382812 7.554688 7.558593 7.554688h3.214844c-3.589844 38.109375-34 68.523438-72.113281 72.109375zm0 0"/><path d="m376.054688 86.433594c-4.175782 0-7.558594 3.386718-7.558594 7.558594v42.613281h-17.511719c-4.175781 0-7.558594 3.382812-7.558594 7.554687 0 4.175782 3.382813 7.558594 7.558594 7.558594h25.070313c4.171874 0 7.558593-3.382812 7.558593-7.558594v-50.167968c-.003906-4.171876-3.386719-7.558594-7.558593-7.558594zm0 0"/></svg>