<svg height="512pt" viewBox="0 -11 512.00136 512" width="512pt" xmlns="http://www.w3.org/2000/svg"><g fill-rule="evenodd"><path d="m300.628906 131.964844-15.785156 14.402344 13.832031 28.601562c11.882813.140625 25.316407-12.078125 25.316407-24.097656v-9.382813c0-5.25-4.277344-9.523437-9.53125-9.523437zm0 0" fill="#de9376"/><path d="m112.054688 131.964844 17.394531 19.9375-15.441407 23.066406c-11.878906.140625-25.308593-12.078125-25.308593-24.09375v-9.382812c0-5.25 4.273437-9.523438 9.496093-9.523438h13.859376zm0 0" fill="#de9376"/><path d="m384.167969 434.285156c22.871093 0 24.996093 2.296875 16.558593-25.15625l-23.703124-77.796875-11.335938-37.835937c-7.660156-23.636719-26.574219-27.535156-48.269531-33.847656-13.71875-3.988282-27.40625-8.289063-41.097657-12.449219l-141.621093.515625c-13.316407 4.074218-26.660157 8.261718-40.003907 12.136718-21.410156 6.191407-40.007812 10.238282-47.582031 33.644532l-35.070312 115.632812c-8.320313 27.480469-6.3125 25.15625 16.589843 25.15625zm0 0" fill="#55b8e6"/><path d="m170.742188 20.667969c-32.714844 12.792969-56.707032 43.144531-60.4375 79.515625l93.410156 15.460937 96.914062-15.460937c-3.730468-36.289063-27.578125-66.550782-60.152344-79.402344zm0 0" fill="#ffcc73"/><path d="m94.695312 361.742188v72.542968h222.722657v-174.636718c-1.378907-.402344-2.785157-.804688-4.191407-1.234376l-36.902343-11.214843v80.492187c0 4.730469-3.847657 8.605469-8.582031 8.605469h-124.464844c-4.734375 0-8.578125-3.875-8.578125-8.605469v-79.976562l-35.125 10.699218c-1.636719.488282-3.273438.976563-4.878907 1.433594zm0 0" fill="#ffcc73"/><path d="m170.480469 50.902344c0 8.71875 7.148437 15.863281 15.902343 15.863281h38.425782c8.753906 0 15.898437-7.148437 15.898437-15.863281v-27.484375c0-.886719-.085937-1.773438-.230469-2.636719-1.261718-7.488281-7.832031-13.222656-15.667968-13.222656h-38.425782c-7.808593 0-14.320312 5.679687-15.640624 13.105468-.175782.890626-.261719 1.8125-.261719 2.753907zm0 0" fill="#f59556"/><path d="m134.699219 397.828125 141.308593.054687v-17.582031c0-4.734375-3.875-8.605469-8.582031-8.605469h-124.148437c-4.734375 0-8.578125 3.871094-8.578125 8.605469zm0 0" fill="#ffe4c7"/><path d="m134.699219 434.285156h141.308593v-36.402344l-141.308593-.054687zm0 0" fill="#faaa55"/><path d="m134.699219 247.714844c4.53125 23.09375 34.351562 40.90625 70.769531 40.90625 36.414062 0 66.691406-18.101563 70.855469-41.421875l-23.246094-7.058594h-93.46875zm0 0" fill="#f7b297"/><path d="m94.695312 282.941406v-23.09375c-21.410156 6.195313-40.007812 10.242188-47.582031 33.648438l-35.070312 115.632812c-8.320313 27.480469-6.3125 25.15625 16.589843 25.15625h.289063c.65625-2.351562 1.433594-4.988281 2.347656-7.972656l35.042969-115.664062c5.191406-15.976563 15.527344-22.945313 28.382812-27.707032zm0 0" fill="#507fcf"/><path d="m134.699219 269.917969v-22.203125l-35.125 10.699218c-1.636719.488282-3.273438.976563-4.878907 1.433594v23.09375c5.9375-2.210937 12.425782-3.957031 19.195313-5.910156 4.449219-1.289062 12.082031-3.957031 20.808594-7.113281zm0 0" fill="#f59556"/><path d="m144.65625 266.273438c-5.164062-5.507813-8.640625-11.816407-9.957031-18.558594v22.203125c3.210937-1.148438 6.570312-2.378907 9.957031-3.644531zm0 0" fill="#507fcf"/><path d="m134.699219 380.300781v17.527344h17.679687v-17.527344c0-4.734375 3.871094-8.605469 8.605469-8.605469h-17.707031c-4.734375 0-8.578125 3.871094-8.578125 8.605469zm0 0" fill="#f2b4a7"/><path d="m134.699219 397.828125h17.679687v36.457031h-17.679687zm0 0" fill="#d65036"/><path d="m110.304688 100.183594h.027343zm60.4375-79.515625c-32.714844 12.792969-56.707032 43.144531-60.4375 79.515625h22.871093.058594c2.78125-27.078125 16.789063-50.828125 37.246094-66.464844v-10.300781c0-.941407.089843-1.863281.261719-2.75zm0 0" fill="#f59556"/><path d="m186.382812 7.558594c-7.804687 0-14.320312 5.679687-15.640624 13.105468-.171876.890626-.261719 1.8125-.261719 2.753907v27.484375c0 6.855468 4.453125 12.765625 10.59375 14.941406 1.664062.605469 3.441406.921875 5.308593.921875h14.980469c-8.722656 0-15.867187-7.148437-15.867187-15.863281v-27.484375c0-.914063.054687-1.832031.230468-2.75 1.316407-7.375 7.71875-12.996094 15.410157-13.109375zm0 0" fill="#d65036"/><path d="m159.609375 240.140625-10.304687 3.125-14.605469 4.445313c1.316406 6.742187 4.792969 13.054687 9.957031 18.5625 6.054688-2.207032 12.082031-4.878907 17.90625-6.542969 8.179688-2.351563 10.042969.402343 20.378906 4.246093 17.046875 6.3125 29.871094 6.3125 46.917969-.054687 8.152344-3.011719 15.957031-7.289063 23.21875-12.453125 3.585937-2.519531 7.03125-5.273438 10.300781-8.203125l-10.300781-3.125zm0 0" fill="#eb8975"/><path d="m112.371094 161.746094c0 26.789062 19.800781 58.972656 47.238281 78.394531 7.285156 5.195313 15.152344 9.46875 23.332031 12.507813 17.046875 6.339843 29.871094 6.308593 46.917969-.058594 8.152344-3.011719 15.957031-7.285156 23.21875-12.449219 27.433594-19.449219 47.207031-51.605469 47.207031-78.394531l.34375-29.777344-92.835937-13.882812-95.738281 13.882812zm0 0" fill="#ffd9b0"/><path d="m112.371094 161.746094c0 26.789062 19.800781 58.972656 47.238281 78.394531 3.871094 2.753906 7.890625 5.25 12.050781 7.460937 3.675782 1.921876 7.433594 3.613282 11.28125 5.046876 14.375 5.335937 25.738282 6.167968 39.199219 2.46875-2.46875-.660157-4.992187-1.492188-7.605469-2.46875-3.933594-1.433594-7.777344-3.183594-11.507812-5.160157-4.074219-2.183593-8.035156-4.621093-11.820313-7.320312-27.4375-19.449219-47.238281-51.632813-47.238281-78.421875l-.316406-29.75-31.597656-.027344zm0 0" fill="#ebab92"/><path d="m112.054688 131.964844 95.738281.03125 92.835937-.03125h.632813c5.941406 0 10.816406-4.84375 10.816406-10.785156v-10.210938c0-5.9375-4.875-10.785156-10.816406-10.785156h-190.957031c-5.9375 0-10.789063 4.847656-10.789063 10.785156v10.210938c0 5.941406 4.851563 10.785156 10.789063 10.785156zm0 0" fill="#f59556"/><path d="m110.304688 100.183594c-5.9375 0-10.789063 4.847656-10.789063 10.785156v10.210938c0 4.789062 3.1875 8.894531 7.546875 10.300781 1.035156.3125 2.125.484375 3.242188.484375h22.757812c-5.851562-.085938-10.617188-4.90625-10.617188-10.785156v-10.210938c0-3.242188 1.464844-6.167969 3.761719-8.171875 1.863281-1.609375 4.300781-2.613281 6.972657-2.613281zm0 0" fill="#d65036"/><path d="m406.152344 482.449219c54.292968 0 98.289062-43.976563 98.289062-98.25 0-54.242188-43.996094-98.246094-98.289062-98.246094-54.269532 0-98.292969 44.003906-98.292969 98.246094 0 54.273437 44.023437 98.25 98.292969 98.25zm0 0" fill="#808080"/><path d="m406.152344 453.675781c38.394531 0 69.503906-31.09375 69.503906-69.476562 0-38.351563-31.105469-69.476563-69.503906-69.476563-38.371094 0-69.507813 31.125-69.507813 69.476563 0 38.382812 31.136719 69.476562 69.507813 69.476562zm0 0" fill="#e8e8e8"/><path d="m359.71875 384.199219c0-30.289063 19.398438-56.050781 46.433594-65.546875 3.699218-1.316406 7.574218-2.292969 11.535156-2.953125-3.761719-.628907-7.605469-.976563-11.535156-.976563-38.367188 0-69.507813 31.125-69.507813 69.476563 0 38.382812 31.140625 69.476562 69.507813 69.476562 3.929687 0 7.773437-.3125 11.535156-.941406-3.960938-.664063-7.835938-1.664063-11.535156-2.957031-27.035156-9.523438-46.433594-35.285156-46.433594-65.578125zm0 0" fill="#ccc"/><path d="m324.90625 381.675781c0-46.324219 32.085938-85.167969 75.21875-95.523437-41.816406 2.523437-76.566406 31.183594-88.132812 69.851562-2.695313 8.921875-4.132813 18.414063-4.132813 28.195313 0 22.519531 7.578125 43.257812 20.320313 59.839843 4.015624 5.21875 8.550781 10.039063 13.542968 14.371094 17.25 14.976563 39.777344 24.039063 64.429688 24.039063 7.71875 0 15.238281-.890625 22.4375-2.554688.203125-.054687.40625-.113281.632812-.171875-.257812.027344-.488281.027344-.746094.058594-1.75.085938-3.5.144531-5.277343.144531-9.328125 0-18.3125-1.292969-26.863281-3.730469-2.898438-.804687-5.769532-1.777343-8.550782-2.839843-3.070312-1.175781-6.054687-2.523438-8.953125-3.984375-1.179687-.605469-2.355469-1.238282-3.53125-1.867188-10.878906-6.082031-20.460937-14.167968-28.296875-23.75-.945312-1.148437-1.835937-2.324218-2.726562-3.5-6.886719-9.265625-12.195313-19.765625-15.496094-31.125-2.523438-8.71875-3.875-17.925781-3.875-27.453125zm0 0" fill="#525252"/></g><path d="m406.152344 278.394531c-12.578125 0-24.640625 2.210938-35.839844 6.25-9.570312-20.476562-28.378906-25.847656-46.621094-31.054687-1.292968-.363282-2.605468-.742188-3.929687-1.125-.101563-.03125-.210938-.0625-.316407-.09375-1.335937-.386719-2.679687-.78125-4.019531-1.1875l-36.769531-11.167969c-.058594-.023437-.121094-.042969-.183594-.058594-.039062-.011719-.078125-.023437-.121094-.039062l-9.417968-2.855469c17.113281-15.394531 30.289062-35.332031 35.914062-55.105469 6.1875-1.273437 12.433594-4.671875 17.46875-9.648437 6.265625-6.191406 9.859375-14.007813 9.859375-21.433594v-9.382812c0-7.992188-5.515625-14.699219-12.933593-16.554688.253906-1.214844.390624-2.472656.390624-3.757812v-10.210938c0-7.96875-5.125-14.746094-12.25-17.269531-5.523437-34.863281-28.214843-64.316407-60.605468-78.480469-3.339844-8.878906-11.925782-15.21875-21.96875-15.21875h-38.425782c-9.996093 0-18.542968 6.273438-21.917968 15.082031-32.648438 14.148438-55.488282 43.769531-60.957032 78.863281-6.757812 2.707032-11.550781 9.3125-11.550781 17.023438v10.207031c0 1.46875.1875 2.878907.511719 4.242188-6.589844 2.363281-11.332031 8.664062-11.332031 16.070312v9.382813c0 7.421875 3.597656 15.226562 9.859375 21.417968 4.851562 4.796876 10.820312 8.128907 16.78125 9.519532 5.605468 19.839844 18.800781 39.828125 35.949218 55.253906l-51.226562 15.554688c-.007812.003906-.019531.003906-.027344.007812-.011718.003906-.027344.007812-.039062.011719-2.777344.84375-5.46875 1.609375-8.070313 2.347656-19.355469 5.507813-36.070312 10.265625-44.441406 36.191406-.011719.042969-.027344.082031-.039063.128907l-35.070312 115.632812c-4.382812 14.472656-7.027344 23.203125-2.332031 29.476562 3.691406 4.933594 9.398437 5.476563 17.726562 5.476563 1.128907 0 2.304688-.011719 3.53125-.019531 1.511719-.011719 3.140625-.027344 4.894531-.027344h288.800782c18.90625 28.972656 51.609375 48.164062 88.71875 48.164062 58.363281 0 105.847656-47.464843 105.847656-105.808593 0-58.339844-47.484375-105.804688-105.847656-105.804688zm-49.65625 12.390625c-12.09375 6.449219-22.792969 15.171875-31.523438 25.597656v-46.691406c14.558594 4.277344 25.515625 8.574219 31.523438 21.09375zm-88.046875 99.539063-126.195313-.050781v-9.972657c0-.570312.472656-1.050781 1.023438-1.050781h124.148437c.535157 0 1.023438.5 1.023438 1.050781zm-126.195313 15.0625 126.195313.050781v21.292969h-126.195313zm141.308594-25.085938c0-8.914062-7.234375-16.164062-16.136719-16.164062h-124.148437c-8.894532 0-16.136719 7.25-16.136719 16.164062v46.429688h-24.890625v-161.277344l24.890625-7.558594v69.796875c0 8.910156 7.242187 16.164063 16.136719 16.164063l49.273437.023437h.003907c4.167968 0 7.554687-3.378906 7.554687-7.550781.003906-4.175781-3.378906-7.558594-7.550781-7.5625l-49.28125-.027344c-.554688 0-1.023438-.480469-1.023438-1.046875v-53.105468c14.382813 13.273437 37.304688 21.589843 63.214844 21.589843 25.699219 0 48.824219-8.550781 63.296875-21.925781v53.441406c0 .566406-.46875 1.046875-1.023437 1.046875h-45.429688c-4.171875 0-7.558594 3.382813-7.558594 7.558594 0 4.171875 3.386719 7.558594 7.558594 7.558594h45.429688c8.898437 0 16.140624-7.253907 16.140624-16.164063v-70.296875l25.976563 7.894531v75c-6.132813 13.382813-9.554687 28.253907-9.554687 43.910157 0 15.125 3.195312 29.507812 8.9375 42.53125h-25.679688zm-171.496094-255.890625c-.003906 0-.007812 0-.011718 0h-1.75c-1.75 0-3.230469-1.476562-3.230469-3.230468v-10.210938c0-1.75 1.480469-3.230469 3.230469-3.230469h190.957031c1.769531 0 3.261719 1.480469 3.261719 3.230469v10.210938c0 1.753906-1.492188 3.230468-3.265626 3.230468h-.535156c-.003906 0-.003906 0-.003906 0-.03125 0-.058594 0-.089844 0-.003906 0-.003906 0-.003906 0l-92.832031.03125zm204.996094 26.464844c0 3.363281-2.007812 7.355469-5.367188 10.679688-1.226562 1.207031-2.558593 2.242187-3.933593 3.113281.042969-.949219.082031-1.894531.082031-2.835938l.253906-22.308593h7.023438c1.050781 0 1.941406.898437 1.941406 1.96875zm-130.679688-135.761719h38.425782c4.601562 0 8.34375 3.726563 8.34375 8.304688v27.484375c0 4.582031-3.742188 8.308594-8.34375 8.308594h-38.425782c-4.597656 0-8.339843-3.726563-8.339843-8.308594v-27.484375c0-.453125.046875-.894531.117187-1.332031.027344-.140626.054688-.28125.074219-.425782.8125-3.734375 4.15625-6.546875 8.148437-6.546875zm-23.453124 17.546875v18.242188c0 12.914062 10.519531 23.421875 23.453124 23.421875h38.425782c12.933594 0 23.457031-10.507813 23.457031-23.421875v-18.097656c22.597656 12.546874 38.519531 34.320312 43.59375 59.820312h-172.785156c5.085937-25.605469 21.109375-47.4375 43.855469-59.964844zm-61.308594 128.878906c-3.359375-3.320312-5.367188-7.308593-5.367188-10.664062v-9.382812c0-1.066407.886719-1.96875 1.941406-1.96875h6.382813l.238281 22.222656c0 .820312.035156 1.648437.066406 2.472656-1.132812-.777344-2.238281-1.671875-3.261718-2.679688zm19.945312 13.332032c-.015625-1.023438-.230468-1.996094-.613281-2.882813-.660156-3.496093-1.023437-6.953125-1.023437-10.324219l-.234376-22.136718 88.097657.027344h.003906l85.191406-.027344-.261719 22.21875c0 31.625-30.605468 70.769531-65.511718 83.765625-15.390625 5.75-26.289063 5.765625-41.644532.050781-30.242187-11.222656-57.25-42.027344-64.003906-70.691406zm58.738282 84.859375c9.359374 3.480469 17.6875 5.222656 26.019531 5.222656 8.375 0 16.753906-1.761719 26.171875-5.28125 7.558594-2.8125 14.890625-6.644531 21.832031-11.253906l12.515625 3.804687c-7.6875 16.597656-32.867188 28.84375-61.375 28.84375-28.628906 0-53.308594-11.820312-61.1875-28.371094l14.058594-4.269531c6.984375 4.636719 14.363281 8.484375 21.964844 11.304688zm-156.699219 167.027343c-3.003907.023438-6.292969.050782-8.386719-.109374.546875-3.734376 2.761719-11.050782 4.054688-15.324219l35.050781-115.570313c5.746093-17.722656 15.441406-20.890625 32.8125-25.84375v156.820313h-58.503907c-1.800781 0-3.472656.011719-5.027343.027343zm382.546875 48.136719c-50.03125 0-90.734375-40.6875-90.734375-90.695312 0-36.75 21.984375-68.46875 53.503906-82.699219.019531-.007812.039063-.019531.0625-.027344 11.347656-5.113281 23.929687-7.964844 37.167969-7.964844 50.027344 0 90.730468 40.6875 90.730468 90.691407 0 50.007812-40.699218 90.695312-90.730468 90.695312zm0 0"/><path d="m406.152344 307.167969c-42.492188 0-77.066406 34.554687-77.066406 77.03125 0 42.476562 34.574218 77.035156 77.066406 77.035156 42.492187 0 77.0625-34.558594 77.0625-77.035156 0-42.476563-34.570313-77.03125-77.0625-77.03125zm7.554687 138.476562v-.804687c0-4.171875-3.382812-7.554688-7.554687-7.554688-4.175782 0-7.558594 3.382813-7.558594 7.554688v.804687c-28.125-3.4375-50.472656-25.777343-53.914062-53.886719h.832031c4.175781 0 7.558593-3.386718 7.558593-7.558593s-3.382812-7.558594-7.558593-7.558594h-.832031c3.441406-28.109375 25.789062-50.449219 53.914062-53.886719v.832032c0 4.175781 3.382812 7.558593 7.558594 7.558593 4.171875 0 7.554687-3.382812 7.554687-7.558593v-.832032c28.125 3.4375 50.476563 25.777344 53.914063 53.886719h-.804688c-4.171875 0-7.558594 3.386719-7.558594 7.558594s3.386719 7.558593 7.558594 7.558593h.804688c-3.4375 28.109376-25.789063 50.449219-53.914063 53.886719zm0 0"/><path d="m406.152344 346.957031c-4.175782 0-7.558594 3.378907-7.558594 7.554688v32.230469h-12.332031c-4.171875 0-7.554688 3.382812-7.554688 7.558593 0 4.171875 3.382813 7.554688 7.554688 7.554688h19.890625c4.171875 0 7.554687-3.382813 7.554687-7.554688v-39.789062c0-4.175781-3.382812-7.554688-7.554687-7.554688zm0 0"/></svg>