<svg height="511pt" viewBox="-9 1 511 511.999" width="511pt" xmlns="http://www.w3.org/2000/svg"><g fill-rule="evenodd"><path d="m306.183594 134.125-16.050782 14.621094 14.09375 29.109375c12.078126.140625 25.714844-12.300781 25.714844-24.515625v-9.550782c0-5.328124-4.335937-9.664062-9.664062-9.664062zm0 0" fill="#de9376"/><path d="m114.363281 134.125 4.027344 4.589844 13.667969 15.675781-15.707032 23.464844c-12.109374.140625-25.746093-12.300781-25.746093-24.515625v-9.550782c0-5.328124 4.335937-9.664062 9.667969-9.664062zm0 0" fill="#de9376"/><path d="m391.160156 441.617188c23.28125 0 25.4375 2.324218 16.871094-25.59375l-24.128906-79.125-11.539063-38.484376c-7.769531-24.035156-27.019531-28.027343-49.082031-34.433593-13.949219-4.054688-27.898438-8.417969-41.796875-12.640625l-144.097656.511718c-13.550781 4.136719-27.105469 8.414063-40.6875 12.328126-21.773438 6.289062-40.714844 10.425781-48.398438 34.234374l-35.667969 117.609376c-8.480468 27.945312-6.441406 25.59375 16.871094 25.59375zm0 0" fill="#55b8e6"/><path d="m174.050781 20.878906c-33.285156 13.007813-57.671875 43.898438-61.472656 80.882813l95.042969 15.726562 98.5625-15.726562c-3.769532-36.871094-28.042969-67.679688-61.1875-80.773438zm0 0" fill="#ffcc73"/><path d="m96.699219 367.847656v73.769532h226.582031v-177.636719c-1.417969-.398438-2.835938-.824219-4.28125-1.246094l-37.515625-11.394531v81.875c0 4.789062-3.9375 8.730468-8.757813 8.730468h-126.601562c-4.792969 0-8.734375-3.941406-8.734375-8.730468v-81.363282l-35.730469 10.882813c-1.671875.507813-3.3125.992187-4.960937 1.445313zm0 0" fill="#ffcc73"/><path d="m173.796875 51.652344c0 8.871094 7.289063 16.128906 16.164063 16.128906h39.128906c8.871094 0 16.132812-7.257812 16.132812-16.128906v-27.941406c0-.9375-.054687-1.84375-.230468-2.722657-1.273438-7.59375-7.9375-13.429687-15.902344-13.429687h-39.128906c-7.910157 0-14.546876 5.78125-15.910157 13.320312-.167969.902344-.253906 1.867188-.253906 2.832032zm0 0" fill="#f59556"/><path d="m137.386719 404.519531 143.757812.085938v-17.882813c0-4.816406-3.9375-8.757812-8.730469-8.757812h-126.289062c-4.792969 0-8.734375 3.941406-8.734375 8.757812v17.796875zm0 0" fill="#ffe4c7"/><path d="m137.386719 441.617188h143.757812v-37.011719l-143.757812-.085938zm0 0" fill="#f59556"/><path d="m137.386719 251.851562c4.597656 23.464844 34.933593 41.601563 71.996093 41.601563 37.054688 0 67.851563-18.390625 72.101563-42.113281l-23.644531-7.199219h-95.128906zm0 0" fill="#f7b297"/><path d="m96.699219 287.671875v-23.492187c-21.773438 6.289062-40.714844 10.425781-48.398438 34.234374l-35.667969 117.609376c-8.480468 27.945312-6.441406 25.59375 16.871094 25.59375h.28125c.679688-2.378907 1.476563-5.074219 2.382813-8.105469l35.667969-117.640625c5.273437-16.269532 15.765624-23.324219 28.863281-28.199219zm0 0" fill="#507fcf"/><path d="m137.386719 274.4375v-22.585938l-35.726563 10.882813c-1.671875.507813-3.3125.992187-4.960937 1.445313v23.492187c6.039062-2.238281 12.648437-4.023437 19.535156-6.007813 4.511719-1.304687 12.28125-4.023437 21.152344-7.226562zm0 0" fill="#f59556"/><path d="m147.542969 270.726562c-5.277344-5.613281-8.820313-12.015624-10.152344-18.875v22.585938c3.257813-1.191406 6.691406-2.4375 10.152344-3.710938zm0 0" fill="#507fcf"/><path d="m137.386719 386.722656v17.796875l18.007812.027344v-17.824219c0-4.816406 3.914063-8.757812 8.730469-8.757812h-18.003906c-4.789063 0-8.734375 3.9375-8.734375 8.757812zm0 0" fill="#f2b4a7"/><path d="m137.386719 404.519531v37.097657h18.007812v-37.070313zm0 0" fill="#d65036"/><path d="m112.578125 101.761719h.027344zm61.472656-80.882813c-33.285156 13.035156-57.671875 43.898438-61.472656 80.882813h23.277344.058593c2.839844-27.546875 17.070313-51.695313 37.882813-67.59375v-10.457031c0-.964844.085937-1.898438.253906-2.832032zm0 0" fill="#f59556"/><path d="m189.960938 7.558594c-7.910157 0-14.546876 5.78125-15.910157 13.320312-.167969.933594-.253906 1.867188-.253906 2.832032v27.941406c0 6.972656 4.507813 12.953125 10.773437 15.191406 1.671876.625 3.488282.9375 5.390626.9375h15.253906c-8.878906 0-16.164063-7.257812-16.164063-16.128906v-27.941406c0-.964844.085938-1.898438.253907-2.804688v-.027344c1.332031-7.484375 7.855468-13.207031 15.683593-13.320312zm0 0" fill="#d65036"/><path d="m162.710938 244.140625-10.460938 3.203125-14.859375 4.507812c1.332031 6.859376 4.875 13.261719 10.152344 18.875 6.148437-2.242187 12.273437-4.960937 18.199219-6.660156 8.308593-2.382812 10.210937.421875 20.699218 4.304688 17.382813 6.464844 30.425782 6.433594 47.777344-.027344 8.25-3.085938 16.21875-7.421875 23.621094-12.667969 3.628906-2.578125 7.117187-5.382812 10.460937-8.359375l-10.460937-3.175781zm0 0" fill="#eb8975"/><path d="m114.675781 164.390625c0 27.238281 20.164063 59.96875 48.035157 79.75 7.457031 5.273437 15.453124 9.636719 23.730468 12.726563 17.382813 6.433593 30.425782 6.40625 47.777344-.058594 8.25-3.058594 16.21875-7.421875 23.621094-12.667969 27.871094-19.78125 48.003906-52.511719 48.003906-79.75l.339844-30.265625-94.449219-14.140625-97.371094 14.140625zm0 0" fill="#ffd9b0"/><path d="m114.675781 164.390625c0 27.238281 20.164063 59.96875 48.035157 79.75 3.96875 2.808594 8.050781 5.355469 12.273437 7.570313 3.746094 1.980468 7.574219 3.710937 11.457031 5.15625 14.660156 5.414062 26.230469 6.265624 39.894532 2.523437-2.492188-.679687-5.074219-1.53125-7.738282-2.523437-3.972656-1.472657-7.882812-3.230469-11.679687-5.269532-4.144531-2.183594-8.167969-4.675781-12.054688-7.425781-27.898437-19.78125-48.03125-52.515625-48.03125-79.78125l-.3125-30.265625h-32.15625zm0 0" fill="#ebab92"/><path d="m114.363281 134.125h192.472657c6.039062 0 11-4.960938 11-10.996094v-10.371094c0-6.039062-4.960938-10.996093-11-10.996093h-194.257813c-6.039063 0-10.972656 4.957031-10.972656 10.996093v10.371094c0 6.035156 4.933593 10.996094 10.972656 10.996094zm0 0" fill="#f59556"/><path d="m112.578125 101.761719c-6.039063.027343-10.972656 4.957031-10.972656 10.996093v10.371094c0 4.902344 3.230469 9.066406 7.683593 10.484375 1.050782.3125 2.15625.511719 3.289063.511719h23.167969c-5.980469-.113281-10.832032-5.015625-10.832032-10.996094v-10.371094c0-3.316406 1.503907-6.292968 3.828126-8.304687 1.929687-1.671875 4.394531-2.664063 7.113281-2.691406zm0 0" fill="#d65036"/><path d="m486.917969 338.484375c-.03125-5.496094.023437-21.367187-16.589844-23.265625-40.464844-.707031-38.648437-20.941406-71.964844-20.941406-33.316406 0-31.472656 20.234375-71.933593 20.941406-16.648438 1.898438-16.589844 17.769531-16.589844 23.265625l-.058594 71.164063c.085938 5.214843.796875 10.429687 2.101562 15.585937 7.34375 29.390625 33.65625 56.824219 71.679688 74.960937 10.886719 4.933594 15.960938 6.347657 29.628906 0 38.023438-18.136718 64.335938-45.570312 71.683594-74.960937 1.273438-5.15625 1.984375-10.371094 2.066406-15.585937zm0 0" fill="#d0ffb5"/><path d="m398.363281 294.277344c-33.316406 0-31.472656 20.234375-71.964843 20.941406-16.613282 1.898438-16.558594 17.769531-16.558594 23.265625l-.058594 11.648437v59.515626c.085938 5.214843.796875 10.429687 2.101562 15.585937 7.34375 29.390625 33.65625 56.824219 71.679688 74.960937 10.886719 4.933594 15.960938 6.347657 29.628906 0 38.023438-18.136718 64.335938-45.570312 71.683594-74.960937 1.273438-5.15625 1.984375-10.371094 2.066406-15.585937v-59.515626l-.023437-11.648437c-.03125-5.496094.023437-21.367187-16.589844-23.265625-40.464844-.707031-38.648437-20.941406-71.964844-20.941406zm-61.527343 62.773437c0-3.828125-.027344-14.851562 11.511718-16.183593 28.15625-.511719 26.851563-14.566407 50.015625-14.566407 23.167969 0 21.890625 14.054688 50.019531 14.566407 11.566407 1.332031 11.539063 12.355468 11.539063 16.183593l.027344 8.078125v41.375c-.058594 3.628906-.566407 7.253906-1.445313 10.855469-5.101562 20.429687-23.390625 39.476563-49.816406 52.089844-9.5 4.417969-13.042969 3.429687-20.613281 0-26.429688-12.613281-44.714844-31.660157-49.820313-52.089844-.90625-3.601563-1.390625-7.230469-1.445312-10.855469v-41.375zm0 0" fill="#52c46d"/><path d="m373.183594 349.597656.027344-8.078125c0-1.617187 0-4.535156.882812-7.453125-5.816406 3.34375-12.5625 6.574219-25.75 6.800782-11.539062 1.332031-11.507812 12.355468-11.507812 16.183593l-.03125 8.078125v41.375c.058593 3.628906.539062 7.253906 1.449218 10.855469 2.097656 8.414063 6.460938 16.632813 12.730469 24.257813 8.875 10.824218 21.578125 20.433593 37.085937 27.832031 7.570313 3.429687 11.113282 4.417969 20.613282 0 8.050781-3.855469 15.339844-8.277344 21.746094-13.179688-1.8125-.511719-3.714844-1.332031-5.980469-2.351562-7.570313-3.628907-14.488281-7.765625-20.617188-12.328125-36.886719-27.460938-30.648437-50.785156-30.648437-91.992188zm0 0" fill="#aaf589"/></g><path d="m494.472656 338.316406c-.117187-23.109375-12.726562-29.398437-23.289062-30.605468-.238282-.027344-.480469-.042969-.722656-.046876-19.074219-.335937-27.3125-5.1875-36.035157-10.324218-8.863281-5.222656-18.027343-10.621094-36.0625-10.621094-8.871093 0-15.585937 1.308594-21.179687 3.257812-9.636719-21.199218-28.90625-26.707031-47.597656-32.03125-2.742188-.78125-5.574219-1.589843-8.390626-2.441406l-47.492187-14.433594c17.492187-15.675781 30.957031-36.039062 36.675781-56.21875 6.292969-1.285156 12.652344-4.738281 17.78125-9.804687 6.351563-6.277344 9.992188-14.191406 9.992188-21.707031v-9.550782c0-8.101562-5.632813-14.898437-13.1875-16.722656.273437-1.269531.429687-2.585937.429687-3.9375v-10.371094c0-8.089843-5.214843-14.96875-12.453125-17.5-5.582031-35.453124-28.671875-65.429687-61.660156-79.832031-3.363281-9-12.042969-15.425781-22.191406-15.425781h-39.128906c-10.113282 0-18.765626 6.359375-22.167969 15.285156-16.3125 7.070313-30.609375 18.226563-41.527344 32.4375-10.757813 14.003906-17.769531 30.425782-20.480469 47.789063-6.863281 2.722656-11.734375 9.417969-11.734375 17.246093v10.371094c0 1.523438.203125 3 .550781 4.417969-6.714843 2.351563-11.554687 8.734375-11.554687 16.242187v9.550782c0 7.515625 3.640625 15.425781 9.988281 21.699218 4.9375 4.875 11.011719 8.269532 17.078125 9.664063 5.703125 20.246094 19.191407 40.652344 36.726563 56.367187l-52.339844 15.878907s-.003906 0-.007812 0c-.019532.007812-.042969.015625-.0625.019531-2.839844.863281-5.589844 1.648438-8.246094 2.40625-19.625 5.597656-36.570313 10.429688-45.074219 36.710938-.015625.046874-.027344.089843-.042969.132812l-35.667968 117.613281c-4.453126 14.675781-7.140626 23.535157-2.40625 29.867188 3.726562 4.976562 9.511718 5.523437 17.96875 5.523437 1.140624 0 2.335937-.011718 3.574218-.023437 1.535156-.011719 3.1875-.023438 4.96875-.023438h283.988282c12.871093 22.84375 36.175781 43.226563 66.816406 57.839844.046875.023437.089844.042969.136718.0625 5.941407 2.691406 11.375 4.921875 17.703126 4.921875 5.308593 0 10.757812-1.480469 18.296874-4.984375 40.246094-19.195313 67.859376-48.335937 75.765626-79.964844 1.425781-5.773437 2.195312-11.582031 2.289062-17.277343 0-.042969 0-.082032 0-.125zm-181.074218-173.839844.257812-22.792968h7.273438c1.164062 0 2.113281.945312 2.113281 2.105468v9.550782c0 3.453125-2.058594 7.550781-5.507813 10.953125-1.308594 1.296875-2.746094 2.40625-4.222656 3.320312.050781-1.050781.085938-2.097656.085938-3.136719zm-224.253907 269.582032h-59.640625c-1.824218 0-3.523437.015625-5.097656.027344-3.132812.027343-6.566406.054687-8.699219-.117188.523438-3.777344 2.816407-11.34375 4.15625-15.75l35.648438-117.542969c5.894531-18.15625 15.820312-21.339843 33.632812-26.429687zm241.695313-160.027344c15.320312 4.492188 26.746094 8.976562 32.753906 22.554688-.429688.253906-.855469.503906-1.28125.753906-7.988281 4.710937-15.578125 9.175781-31.472656 10.148437zm-149.488282-250.320312c0-4.742188 3.863282-8.597657 8.605469-8.597657h39.128907c4.730468 0 8.578124 3.855469 8.578124 8.597657v27.941406c0 4.726562-3.847656 8.570312-8.578124 8.570312h-39.128907c-4.742187 0-8.605469-3.84375-8.605469-8.570312zm-15.113281 9.144531v18.800781c0 13.058594 10.640625 23.683594 23.722657 23.683594h39.128906c13.0625 0 23.6875-10.625 23.6875-23.683594v-18.652344c23.1875 12.804688 39.5 35.097656 44.636718 61.199219h-176.058593c5.164062-26.234375 21.570312-48.585937 44.882812-61.347656zm-62.578125 131.433593c-3.441406-3.402343-5.5-7.496093-5.5-10.949218v-9.550782c0-1.160156.949219-2.105468 2.113282-2.105468h6.609374l.234376 22.707031c0 .917969.039062 1.839844.078124 2.765625-1.230468-.824219-2.429687-1.773438-3.535156-2.867188zm20.246094 13.507813c0-.011719 0-.023437 0-.03125-.011719-1.046875-.234375-2.039063-.628906-2.9375-.671875-3.5625-1.042969-7.082031-1.042969-10.515625l-.234375-22.625 69.03125.050781h.003906c4.171875-.003906 7.554688-3.382812 7.558594-7.554687s-3.378906-7.558594-7.550781-7.5625l-76.648438-.054688c-.011719 0-.019531 0-.027343 0 0 0 0 0-.003907 0h-1.78125c-1.855469 0-3.417969-1.574218-3.417969-3.4375v-10.375c0-1.863281 1.5625-3.4375 3.417969-3.4375h.007813.011718 193.566407.007812.011719.648438c1.867187 0 3.445312 1.574219 3.445312 3.4375v10.375c0 1.863282-1.578125 3.4375-3.445312 3.4375h-81.148438c-4.175781 0-7.558594 3.382813-7.558594 7.554688 0 4.175781 3.382813 7.558594 7.558594 7.558594h72.855469l-.257813 22.710937c0 32.222656-31.167968 72.101563-66.699218 85.335937-15.703126 5.847657-26.820313 5.859376-42.484376.054688-30.792968-11.429688-58.300781-42.796875-65.195312-71.984375zm148.113281 78.558594c-7.78125 16.992187-33.511719 29.539062-62.636719 29.539062-29.269531 0-54.480468-12.113281-62.4375-29.066406l14.519532-4.402344c7.109375 4.726563 14.632812 8.652344 22.378906 11.527344 9.503906 3.523437 17.960938 5.285156 26.421875 5.285156 8.507813 0 17.019531-1.785156 26.59375-5.347656 7.691406-2.863281 15.15625-6.769531 22.226563-11.464844zm1.570313 177.703125h-128.644532v-21.976563l128.644532.074219zm0-37.015625-128.644532-.074219v-10.246094c0-.640625.550782-1.199218 1.179688-1.199218h126.289062c.625 0 1.175782.558593 1.175782 1.199218zm42.136718-86.472657c-7.308593 3.761719-13.445312 11.726563-13.441406 27.878907l-.058594 11.683593v59.515626.125c.097657 5.753906.878907 11.578124 2.324219 17.292968.585938 2.347656 1.292969 4.675782 2.09375 6.992188h-17.941406v-47.335938c0-8.996094-7.308594-16.316406-16.289063-16.316406h-126.289062c-8.984375 0-16.292969 7.320312-16.292969 16.316406v47.335938h-25.574219v-164.277344l25.574219-7.757812v71.191406c0 8.980468 7.308594 16.285156 16.285157 16.285156l45.226562.03125h.003906c4.171875 0 7.554688-3.382812 7.558594-7.554688.003906-4.171874-3.378906-7.558593-7.550781-7.5625l-45.230469-.027343c-.617188 0-1.179688-.558594-1.179688-1.171875v-54.3125c14.589844 13.582031 37.980469 22.109375 64.4375 22.109375 26.242188 0 49.855469-8.773438 64.546876-22.46875v54.671875c0 .625-.5625 1.171875-1.203126 1.171875h-46.757812c-4.175781 0-7.558594 3.382812-7.558594 7.558593 0 4.171876 3.382813 7.554688 7.558594 7.554688h46.757812c8.996094 0 16.316407-7.304688 16.316407-16.285156v-71.6875l26.683593 8.109375zm163.660157 99.015626c-.078125 4.535156-.699219 9.191406-1.84375 13.816406-6.804688 27.21875-31.441407 52.722656-67.53125 69.941406-5.277344 2.449219-8.9375 3.542969-11.859375 3.542969-.003906 0-.003906 0-.003906 0-3.03125 0-6.09375-1.144531-11.398438-3.542969-36.125-17.25-60.738281-42.738281-67.539062-69.960938-1.160157-4.585937-1.789063-9.226562-1.867188-13.796874v-59.414063l.054688-11.742187c0-10.460938 2.601562-14.746094 9.5625-15.660157 22.777343-.46875 33.53125-6.8125 43.027343-12.410156 8.082031-4.761719 14.464844-8.523437 28.375-8.523437 13.917969 0 20.304688 3.761718 28.394531 8.527343 9.503907 5.597657 20.265626 11.9375 43.042969 12.40625 6.910157.910157 9.507813 5.183594 9.558594 15.621094l.027344 11.746094zm0 0"/><path d="m430.511719 370.8125c-3.230469-2.648438-7.992188-2.167969-10.636719 1.0625l-32.4375 39.652344-11.75-9.28125c-3.273438-2.589844-8.027344-2.03125-10.613281 1.246094-2.589844 3.273437-2.03125 8.027343 1.246093 10.613281l17.578126 13.886719c1.386718 1.097656 3.039062 1.628906 4.679687 1.628906 2.191406 0 4.363281-.949219 5.855469-2.773438l37.140625-45.402344c2.644531-3.230468 2.167969-7.992187-1.0625-10.632812zm0 0"/><path d="m449.246094 333.359375c-.242188-.027344-.484375-.042969-.726563-.046875-12.648437-.230469-17.867187-3.304688-23.910156-6.867188-6.128906-3.609374-13.074219-7.703124-26.246094-7.703124-13.167969 0-20.109375 4.09375-26.230469 7.699218-6.039062 3.5625-11.257812 6.640625-23.921874 6.871094-.246094.003906-.488282.019531-.730469.046875-6.796875.785156-18.203125 4.902344-18.199219 23.664063l-.03125 8.132812v41.347656c0 .039063 0 .074219.003906.113282.0625 4.203124.625 8.441406 1.667969 12.574218 5.652344 22.625 25.296875 43.429688 53.894531 57.078125.046875.019531.089844.042969.136719.0625 4.386719 1.984375 8.40625 3.628907 13.273437 3.628907 4.050782 0 8.132813-1.09375 13.714844-3.691407 28.601563-13.652343 48.246094-34.457031 53.902344-57.117187 1.039062-4.242188 1.597656-8.457032 1.664062-12.527344 0-.039062 0-.082031 0-.121094v-41.375l-.027343-8.109375c-.003907-18.757812-11.425781-22.875-18.234375-23.660156zm3.148437 73.082031c-.054687 2.925782-.46875 5.992188-1.226562 9.085938-4.550781 18.234375-21.222657 35.398437-45.671875 47.070312-3.300782 1.535156-5.609375 2.25-7.273438 2.25-1.6875 0-3.59375-.726562-6.964844-2.25-24.476562-11.699218-41.121093-28.851562-45.679687-47.085937-.757813-3-1.164063-6.050781-1.214844-9.066407v-41.261718l.027344-8.160156c0-7.21875 1.847656-8.25 4.496094-8.609376 16.371093-.367187 24.433593-5.125 30.921875-8.949218 5.519531-3.253906 9.507812-5.605469 18.554687-5.605469 9.050781 0 13.042969 2.351563 18.570313 5.609375 6.488281 3.824219 14.554687 8.578125 30.90625 8.945312 2.664062.359376 4.523437 1.390626 4.523437 8.664063l.027344 8.078125v41.285156zm0 0"/></svg>